M48
; DRILL file {KiCad 6.0.10-86aedd382b~118~ubuntu20.04.1} date mar 20 dic 2022 17:41:23
; FORMAT={-:-/ absolute / inch / decimal}
; #@! TF.CreationDate,2022-12-20T17:41:23+01:00
; #@! TF.GenerationSoftware,Kicad,Pcbnew,6.0.10-86aedd382b~118~ubuntu20.04.1
; #@! TF.FileFunction,Plated,1,2,PTH
FMAT,2
INCH
; #@! TA.AperFunction,Plated,PTH,ViaDrill
T1C0.0079
; #@! TA.AperFunction,Plated,PTH,ComponentDrill
T2C0.0079
; #@! TA.AperFunction,Plated,PTH,ComponentDrill
T3C0.0300
%
G90
G05
T1
X1.3209Y-1.9118
X1.4252Y-1.4488
X1.4488Y-1.4488
X1.4488Y-1.7184
X1.4724Y-1.4488
X1.5118Y-1.3701
X1.5118Y-1.4094
X1.5118Y-1.4488
X1.5709Y-1.6565
X1.5827Y-1.4803
X1.5827Y-1.5039
X1.5927Y-1.8305
X1.5984Y-1.5276
X1.5995Y-1.6791
X1.6063Y-1.9528
X1.6299Y-1.9528
X1.6433Y-1.9025
X1.6457Y-1.9291
X1.6701Y-1.9778
X1.6939Y-1.9951
X1.7165Y-1.8366
X1.8067Y-1.8746
X1.8563Y-1.7646
X1.8625Y-1.6006
X1.8913Y-1.6874
X1.9055Y-1.315
X2.1024Y-1.315
X2.1024Y-1.4016
X2.1024Y-1.5748
X2.1091Y-2.015
X2.1093Y-1.9213
X2.1093Y-2.1181
X2.1093Y-2.2126
X2.1181Y-1.6988
X2.176Y-1.3327
X2.176Y-1.3665
X2.1988Y-1.3835
X2.2287Y-1.3835
T2
X1.6801Y-1.6329
X1.6801Y-1.6742
X1.6801Y-1.7156
X1.6801Y-1.7569
X1.7224Y-1.6329
X1.7224Y-1.6742
X1.7224Y-1.7156
X1.7224Y-1.7569
X1.7648Y-1.6329
X1.7648Y-1.6742
X1.7648Y-1.7156
X1.7648Y-1.7569
T3
X1.1801Y-1.5719
X1.1801Y-1.6719
X1.1801Y-1.7719
X1.1801Y-1.8719
X1.1801Y-1.9719
X1.2392Y-1.5719
X1.2392Y-1.6719
X1.2392Y-1.7719
X1.2392Y-1.8719
X1.2392Y-1.9719
X2.3041Y-1.572
X2.3041Y-1.672
X2.3041Y-1.772
X2.3041Y-1.872
X2.3041Y-1.972
X2.3632Y-1.572
X2.3632Y-1.672
X2.3632Y-1.772
X2.3632Y-1.872
X2.3632Y-1.972
T0
M30
