%TF.GenerationSoftware,KiCad,Pcbnew,6.0.10-86aedd382b~118~ubuntu20.04.1*%
%TF.CreationDate,2022-12-20T17:41:17+01:00*%
%TF.ProjectId,DC_UPS,44435f55-5053-42e6-9b69-6361645f7063,rev?*%
%TF.SameCoordinates,Original*%
%TF.FileFunction,Soldermask,Top*%
%TF.FilePolarity,Negative*%
%FSLAX46Y46*%
G04 Gerber Fmt 4.6, Leading zero omitted, Abs format (unit mm)*
G04 Created by KiCad (PCBNEW 6.0.10-86aedd382b~118~ubuntu20.04.1) date 2022-12-20 17:41:17*
%MOMM*%
%LPD*%
G01*
G04 APERTURE LIST*
G04 Aperture macros list*
%AMRoundRect*
0 Rectangle with rounded corners*
0 $1 Rounding radius*
0 $2 $3 $4 $5 $6 $7 $8 $9 X,Y pos of 4 corners*
0 Add a 4 corners polygon primitive as box body*
4,1,4,$2,$3,$4,$5,$6,$7,$8,$9,$2,$3,0*
0 Add four circle primitives for the rounded corners*
1,1,$1+$1,$2,$3*
1,1,$1+$1,$4,$5*
1,1,$1+$1,$6,$7*
1,1,$1+$1,$8,$9*
0 Add four rect primitives between the rounded corners*
20,1,$1+$1,$2,$3,$4,$5,0*
20,1,$1+$1,$4,$5,$6,$7,0*
20,1,$1+$1,$6,$7,$8,$9,0*
20,1,$1+$1,$8,$9,$2,$3,0*%
%AMFreePoly0*
4,1,22,0.550000,-0.750000,0.000000,-0.750000,0.000000,-0.745033,-0.079941,-0.743568,-0.215256,-0.701293,-0.333266,-0.622738,-0.424486,-0.514219,-0.481581,-0.384460,-0.499164,-0.250000,-0.500000,-0.250000,-0.500000,0.250000,-0.499164,0.250000,-0.499963,0.256109,-0.478152,0.396186,-0.417904,0.524511,-0.324060,0.630769,-0.204165,0.706417,-0.067858,0.745374,0.000000,0.744959,0.000000,0.750000,
0.550000,0.750000,0.550000,-0.750000,0.550000,-0.750000,$1*%
%AMFreePoly1*
4,1,20,0.000000,0.744959,0.073905,0.744508,0.209726,0.703889,0.328688,0.626782,0.421226,0.519385,0.479903,0.390333,0.500000,0.250000,0.500000,-0.250000,0.499851,-0.262216,0.476331,-0.402017,0.414519,-0.529596,0.319384,-0.634700,0.198574,-0.708877,0.061801,-0.746166,0.000000,-0.745033,0.000000,-0.750000,-0.550000,-0.750000,-0.550000,0.750000,0.000000,0.750000,0.000000,0.744959,
0.000000,0.744959,$1*%
%AMFreePoly2*
4,1,21,1.372500,0.787500,0.862500,0.787500,0.862500,0.532500,1.372500,0.532500,1.372500,0.127500,0.862500,0.127500,0.862500,-0.127500,1.372500,-0.127500,1.372500,-0.532500,0.862500,-0.532500,0.862500,-0.787500,1.372500,-0.787500,1.372500,-1.195000,0.612500,-1.195000,0.612500,-1.117500,-0.862500,-1.117500,-0.862500,1.117500,0.612500,1.117500,0.612500,1.195000,1.372500,1.195000,
1.372500,0.787500,1.372500,0.787500,$1*%
%AMFreePoly3*
4,1,22,0.500000,-0.750000,0.000000,-0.750000,0.000000,-0.745033,-0.079941,-0.743568,-0.215256,-0.701293,-0.333266,-0.622738,-0.424486,-0.514219,-0.481581,-0.384460,-0.499164,-0.250000,-0.500000,-0.250000,-0.500000,0.250000,-0.499164,0.250000,-0.499963,0.256109,-0.478152,0.396186,-0.417904,0.524511,-0.324060,0.630769,-0.204165,0.706417,-0.067858,0.745374,0.000000,0.744959,0.000000,0.750000,
0.500000,0.750000,0.500000,-0.750000,0.500000,-0.750000,$1*%
%AMFreePoly4*
4,1,20,0.000000,0.744959,0.073905,0.744508,0.209726,0.703889,0.328688,0.626782,0.421226,0.519385,0.479903,0.390333,0.500000,0.250000,0.500000,-0.250000,0.499851,-0.262216,0.476331,-0.402017,0.414519,-0.529596,0.319384,-0.634700,0.198574,-0.708877,0.061801,-0.746166,0.000000,-0.745033,0.000000,-0.750000,-0.500000,-0.750000,-0.500000,0.750000,0.000000,0.750000,0.000000,0.744959,
0.000000,0.744959,$1*%
G04 Aperture macros list end*
%ADD10RoundRect,0.250000X0.400000X0.625000X-0.400000X0.625000X-0.400000X-0.625000X0.400000X-0.625000X0*%
%ADD11FreePoly0,0.000000*%
%ADD12R,1.000000X1.500000*%
%ADD13FreePoly1,0.000000*%
%ADD14RoundRect,0.250000X-0.400000X-0.625000X0.400000X-0.625000X0.400000X0.625000X-0.400000X0.625000X0*%
%ADD15RoundRect,0.062500X-0.362500X-0.062500X0.362500X-0.062500X0.362500X0.062500X-0.362500X0.062500X0*%
%ADD16RoundRect,0.062500X-0.062500X-0.362500X0.062500X-0.362500X0.062500X0.362500X-0.062500X0.362500X0*%
%ADD17R,2.650000X3.650000*%
%ADD18R,2.200000X2.700000*%
%ADD19R,0.405000X0.990000*%
%ADD20FreePoly2,90.000000*%
%ADD21RoundRect,0.250000X0.650000X-0.412500X0.650000X0.412500X-0.650000X0.412500X-0.650000X-0.412500X0*%
%ADD22RoundRect,0.250000X-0.625000X0.400000X-0.625000X-0.400000X0.625000X-0.400000X0.625000X0.400000X0*%
%ADD23FreePoly3,0.000000*%
%ADD24FreePoly4,0.000000*%
%ADD25RoundRect,0.150000X-0.625000X0.150000X-0.625000X-0.150000X0.625000X-0.150000X0.625000X0.150000X0*%
%ADD26RoundRect,0.250000X-0.650000X0.350000X-0.650000X-0.350000X0.650000X-0.350000X0.650000X0.350000X0*%
%ADD27RoundRect,0.155000X0.212500X0.155000X-0.212500X0.155000X-0.212500X-0.155000X0.212500X-0.155000X0*%
%ADD28FreePoly3,180.000000*%
%ADD29FreePoly4,180.000000*%
%ADD30RoundRect,0.250001X-0.624999X0.462499X-0.624999X-0.462499X0.624999X-0.462499X0.624999X0.462499X0*%
%ADD31RoundRect,0.155000X0.155000X-0.212500X0.155000X0.212500X-0.155000X0.212500X-0.155000X-0.212500X0*%
%ADD32O,3.048000X1.524000*%
%ADD33C,1.524000*%
%ADD34RoundRect,0.155000X-0.155000X0.212500X-0.155000X-0.212500X0.155000X-0.212500X0.155000X0.212500X0*%
G04 APERTURE END LIST*
D10*
%TO.C,R_{pf}1*%
X52450000Y-37750000D03*
X49350000Y-37750000D03*
%TD*%
D11*
%TO.C,F_SEL1*%
X50050000Y-53750000D03*
D12*
X51350000Y-53750000D03*
D13*
X52650000Y-53750000D03*
%TD*%
D14*
%TO.C,R5*%
X45200000Y-53750000D03*
X48300000Y-53750000D03*
%TD*%
%TO.C,R4*%
X45200000Y-51250000D03*
X48300000Y-51250000D03*
%TD*%
D15*
%TO.C,U1*%
X41800000Y-41550000D03*
X41800000Y-42050000D03*
X41800000Y-42550000D03*
X41800000Y-43050000D03*
X41800000Y-43550000D03*
X41800000Y-44050000D03*
X41800000Y-44550000D03*
D16*
X42750000Y-45500000D03*
X43250000Y-45500000D03*
X43750000Y-45500000D03*
X44250000Y-45500000D03*
X44750000Y-45500000D03*
D15*
X45700000Y-44550000D03*
X45700000Y-44050000D03*
X45700000Y-43550000D03*
X45700000Y-43050000D03*
X45700000Y-42550000D03*
X45700000Y-42050000D03*
X45700000Y-41550000D03*
D16*
X44750000Y-40600000D03*
X44250000Y-40600000D03*
X43750000Y-40600000D03*
X43250000Y-40600000D03*
X42750000Y-40600000D03*
D17*
X43750000Y-43050000D03*
%TD*%
D18*
%TO.C,L1*%
X44750000Y-38100000D03*
X44750000Y-33000000D03*
%TD*%
D19*
%TO.C,Q1*%
X37944891Y-47389374D03*
X38604891Y-47389374D03*
X39264891Y-47389374D03*
X39924891Y-47389374D03*
D20*
X38934891Y-45396874D03*
%TD*%
D21*
%TO.C,C5*%
X39000000Y-40950000D03*
X39000000Y-37825000D03*
%TD*%
D14*
%TO.C,R_Prog1*%
X49400000Y-33400000D03*
X52500000Y-33400000D03*
%TD*%
D10*
%TO.C,R_{fb}1*%
X52454498Y-42059157D03*
X49354498Y-42059157D03*
%TD*%
D22*
%TO.C,R3*%
X36640000Y-53520000D03*
X36640000Y-56620000D03*
%TD*%
D10*
%TO.C,R_{sense}1*%
X36650000Y-50450000D03*
X33550000Y-50450000D03*
%TD*%
D22*
%TO.C,R2*%
X34470000Y-53520000D03*
X34470000Y-56620000D03*
%TD*%
D11*
%TO.C,F_SEL2*%
X50050000Y-56250000D03*
D12*
X51350000Y-56250000D03*
D13*
X52650000Y-56250000D03*
%TD*%
D23*
%TO.C,OVPO1*%
X38450000Y-50450000D03*
D24*
X39750000Y-50450000D03*
%TD*%
D25*
%TO.C,J4*%
X56505000Y-32270000D03*
X56505000Y-33270000D03*
X56505000Y-34270000D03*
D26*
X59030000Y-35570000D03*
X59030000Y-30970000D03*
%TD*%
D14*
%TO.C,R_{fb}2*%
X49350000Y-39900000D03*
X52450000Y-39900000D03*
%TD*%
D27*
%TO.C,C2*%
X40135000Y-35300000D03*
X39000000Y-35300000D03*
%TD*%
D28*
%TO.C,NTC_Dis0*%
X52650000Y-48750000D03*
D29*
X51350000Y-48750000D03*
%TD*%
D30*
%TO.C,D2*%
X39010000Y-53645000D03*
X39010000Y-56620000D03*
%TD*%
D19*
%TO.C,Q2*%
X34060000Y-47389374D03*
X34720000Y-47389374D03*
X35380000Y-47389374D03*
X36040000Y-47389374D03*
D20*
X35050000Y-45396874D03*
%TD*%
D31*
%TO.C,C4*%
X40600000Y-40617500D03*
X40600000Y-39482500D03*
%TD*%
D14*
%TO.C,R6*%
X45200000Y-56250000D03*
X48300000Y-56250000D03*
%TD*%
D30*
%TO.C,D1*%
X41430000Y-53645000D03*
X41430000Y-56620000D03*
%TD*%
D14*
%TO.C,R_{pf}2*%
X49350000Y-35600000D03*
X52450000Y-35600000D03*
%TD*%
D27*
%TO.C,C3*%
X40135000Y-36350000D03*
X39000000Y-36350000D03*
%TD*%
D32*
%TO.C,J2*%
X30713000Y-50085000D03*
D33*
X29975000Y-50085000D03*
D32*
X30713000Y-47545000D03*
D33*
X29975000Y-47545000D03*
D32*
X30713000Y-45005000D03*
D33*
X29975000Y-45005000D03*
D32*
X30713000Y-42465000D03*
D33*
X29975000Y-42465000D03*
D32*
X30713000Y-39925000D03*
D33*
X29975000Y-39925000D03*
%TD*%
D10*
%TO.C,R1*%
X52450000Y-46350000D03*
X49350000Y-46350000D03*
%TD*%
D11*
%TO.C,F_SEL0*%
X50050000Y-51250000D03*
D12*
X51350000Y-51250000D03*
D13*
X52650000Y-51250000D03*
%TD*%
D21*
%TO.C,C6*%
X36800000Y-40950000D03*
X36800000Y-37825000D03*
%TD*%
D10*
%TO.C,R_{BIAS}1*%
X52450000Y-44200000D03*
X49350000Y-44200000D03*
%TD*%
D34*
%TO.C,C1*%
X41050000Y-47715000D03*
X41050000Y-48850000D03*
%TD*%
D32*
%TO.C,J3*%
X59287000Y-50090000D03*
D33*
X60025000Y-50090000D03*
D32*
X59287000Y-47550000D03*
D33*
X60025000Y-47550000D03*
D32*
X59287000Y-45010000D03*
D33*
X60025000Y-45010000D03*
X60025000Y-42470000D03*
D32*
X59287000Y-42470000D03*
X59287000Y-39930000D03*
D33*
X60025000Y-39930000D03*
%TD*%
M02*
