%TF.GenerationSoftware,KiCad,Pcbnew,6.0.10-86aedd382b~118~ubuntu20.04.1*%
%TF.CreationDate,2022-12-20T17:41:17+01:00*%
%TF.ProjectId,DC_UPS,44435f55-5053-42e6-9b69-6361645f7063,rev?*%
%TF.SameCoordinates,Original*%
%TF.FileFunction,Legend,Bot*%
%TF.FilePolarity,Positive*%
%FSLAX46Y46*%
G04 Gerber Fmt 4.6, Leading zero omitted, Abs format (unit mm)*
G04 Created by KiCad (PCBNEW 6.0.10-86aedd382b~118~ubuntu20.04.1) date 2022-12-20 17:41:17*
%MOMM*%
%LPD*%
G01*
G04 APERTURE LIST*
%ADD10C,0.477244*%
G04 APERTURE END LIST*
%TO.C,kibuzzard-63A1A734*%
G36*
X54750488Y-47659700D02*
G01*
X54533000Y-47659700D01*
X54640950Y-47115187D01*
X54642538Y-47115187D01*
X54750488Y-47659700D01*
G37*
G36*
X51777100Y-46726250D02*
G01*
X56749150Y-46726250D01*
X56826951Y-46730072D01*
X56904003Y-46741502D01*
X56979563Y-46760429D01*
X57052905Y-46786671D01*
X57123321Y-46819975D01*
X57190134Y-46860021D01*
X57252700Y-46906423D01*
X57310416Y-46958734D01*
X57362727Y-47016450D01*
X57409129Y-47079016D01*
X57449175Y-47145829D01*
X57482479Y-47216245D01*
X57508721Y-47289587D01*
X57527648Y-47365147D01*
X57539078Y-47442199D01*
X57542900Y-47520000D01*
X57539078Y-47597801D01*
X57527648Y-47674853D01*
X57508721Y-47750413D01*
X57482479Y-47823755D01*
X57449175Y-47894171D01*
X57409129Y-47960984D01*
X57362727Y-48023550D01*
X57310416Y-48081266D01*
X57252700Y-48133577D01*
X57190134Y-48179979D01*
X57123321Y-48220025D01*
X57052905Y-48253329D01*
X56979563Y-48279571D01*
X56904003Y-48298498D01*
X56826951Y-48309928D01*
X56749150Y-48313750D01*
X51777100Y-48313750D01*
X51777100Y-48099437D01*
X51975538Y-48099437D01*
X52531163Y-48099437D01*
X52531163Y-48059750D01*
X52724838Y-48059750D01*
X52809857Y-48090618D01*
X52899815Y-48109139D01*
X52994713Y-48115312D01*
X53087730Y-48105887D01*
X53106118Y-48099437D01*
X53483663Y-48099437D01*
X53666225Y-48099437D01*
X53758300Y-47766063D01*
X53784295Y-47694030D01*
X53814656Y-47649381D01*
X53910700Y-47618425D01*
X53972613Y-47618425D01*
X53972613Y-48099437D01*
X54150413Y-48099437D01*
X54261538Y-48099437D01*
X54445688Y-48099437D01*
X54506013Y-47794638D01*
X54777475Y-47794638D01*
X54837800Y-48099437D01*
X55015600Y-48099437D01*
X55114025Y-48099437D01*
X55293413Y-48099437D01*
X55293413Y-47543812D01*
X55575988Y-47543812D01*
X55575988Y-48099437D01*
X55749025Y-48099437D01*
X55749025Y-47318387D01*
X55939525Y-47318387D01*
X56109388Y-47318387D01*
X56109388Y-47070737D01*
X56145900Y-47064387D01*
X56216235Y-47076602D01*
X56273782Y-47113247D01*
X56318541Y-47174322D01*
X56350511Y-47259826D01*
X56369693Y-47369761D01*
X56376088Y-47504125D01*
X56369032Y-47649161D01*
X56347865Y-47767826D01*
X56312588Y-47860122D01*
X56263199Y-47926047D01*
X56199699Y-47965602D01*
X56122088Y-47978787D01*
X56037950Y-47966484D01*
X55947463Y-47929575D01*
X55947463Y-48075625D01*
X56043109Y-48105391D01*
X56149075Y-48115312D01*
X56243209Y-48105763D01*
X56324791Y-48077113D01*
X56393823Y-48029364D01*
X56450303Y-47962516D01*
X56494232Y-47876567D01*
X56525610Y-47771520D01*
X56544437Y-47647372D01*
X56550713Y-47504125D01*
X56544511Y-47368319D01*
X56525908Y-47250621D01*
X56494902Y-47151030D01*
X56451494Y-47069547D01*
X56395683Y-47006171D01*
X56327470Y-46960902D01*
X56246855Y-46933741D01*
X56153838Y-46924687D01*
X56040728Y-46933419D01*
X55939525Y-46959613D01*
X55939525Y-47318387D01*
X55749025Y-47318387D01*
X55749025Y-46940563D01*
X55575988Y-46940563D01*
X55575988Y-47408875D01*
X55293413Y-47408875D01*
X55293413Y-46940563D01*
X55114025Y-46940563D01*
X55114025Y-48099437D01*
X55015600Y-48099437D01*
X54742550Y-46940563D01*
X54536175Y-46940563D01*
X54261538Y-48099437D01*
X54150413Y-48099437D01*
X54150413Y-46956437D01*
X54061865Y-46938799D01*
X53971907Y-46928215D01*
X53880538Y-46924687D01*
X53765797Y-46933948D01*
X53673457Y-46961729D01*
X53603519Y-47008031D01*
X53554571Y-47074265D01*
X53525202Y-47161842D01*
X53515413Y-47270762D01*
X53526525Y-47374545D01*
X53559863Y-47458881D01*
X53615425Y-47523770D01*
X53693213Y-47569212D01*
X53693213Y-47572387D01*
X53632888Y-47650969D01*
X53582088Y-47775587D01*
X53483663Y-48099437D01*
X53106118Y-48099437D01*
X53168345Y-48077609D01*
X53236558Y-48030480D01*
X53292369Y-47964500D01*
X53335777Y-47879668D01*
X53366783Y-47775984D01*
X53385386Y-47653449D01*
X53391588Y-47512062D01*
X53384890Y-47369882D01*
X53364798Y-47248141D01*
X53331312Y-47146838D01*
X53284431Y-47065975D01*
X53201088Y-46987482D01*
X53093931Y-46940386D01*
X52962963Y-46924687D01*
X52861759Y-46933419D01*
X52764525Y-46959613D01*
X52764525Y-47102487D01*
X52865728Y-47073913D01*
X52962963Y-47064387D01*
X53076072Y-47089589D01*
X53155050Y-47165194D01*
X53189446Y-47248538D01*
X53210083Y-47364160D01*
X53216963Y-47512062D01*
X53210436Y-47663404D01*
X53190857Y-47782996D01*
X53158225Y-47870838D01*
X53086788Y-47951800D01*
X52989950Y-47978787D01*
X52894700Y-47959737D01*
X52894700Y-47543812D01*
X53094725Y-47543812D01*
X53094725Y-47408875D01*
X52724838Y-47408875D01*
X52724838Y-48059750D01*
X52531163Y-48059750D01*
X52531163Y-46940563D01*
X51975538Y-46940563D01*
X51975538Y-47078675D01*
X52353363Y-47078675D01*
X52353363Y-47408875D01*
X51991413Y-47408875D01*
X51991413Y-47543812D01*
X52353363Y-47543812D01*
X52353363Y-47961325D01*
X51975538Y-47961325D01*
X51975538Y-48099437D01*
X51777100Y-48099437D01*
X51777100Y-46726250D01*
G37*
G36*
X53972613Y-47075500D02*
G01*
X53972613Y-47480313D01*
X53910700Y-47480313D01*
X53807513Y-47468406D01*
X53739250Y-47432687D01*
X53701150Y-47368394D01*
X53688450Y-47270762D01*
X53700356Y-47177298D01*
X53736075Y-47112806D01*
X53796003Y-47075302D01*
X53880538Y-47062800D01*
X53972613Y-47075500D01*
G37*
%TO.C,kibuzzard-63A1A50F*%
G36*
X33153730Y-48339928D02*
G01*
X33076678Y-48328498D01*
X33001118Y-48309571D01*
X32927776Y-48283329D01*
X32857360Y-48250025D01*
X32790547Y-48209979D01*
X32727982Y-48163577D01*
X32690314Y-48129437D01*
X33429969Y-48129437D01*
X33612531Y-48129437D01*
X33704606Y-47796063D01*
X33730602Y-47724030D01*
X33760962Y-47679381D01*
X33857006Y-47648425D01*
X33918919Y-47648425D01*
X33918919Y-48129437D01*
X34096719Y-48129437D01*
X34303094Y-48129437D01*
X34858719Y-48129437D01*
X34858719Y-46970563D01*
X34996831Y-46970563D01*
X35100019Y-48129437D01*
X35306394Y-48129437D01*
X35385769Y-47351562D01*
X35390531Y-47351562D01*
X35484194Y-48129437D01*
X35655644Y-48129437D01*
X35707238Y-47550000D01*
X35822331Y-47550000D01*
X35826653Y-47688994D01*
X35839617Y-47807528D01*
X35861225Y-47905600D01*
X35909048Y-48017916D01*
X35974731Y-48091337D01*
X36061250Y-48131819D01*
X36171581Y-48145312D01*
X36281912Y-48131819D01*
X36368431Y-48091337D01*
X36434114Y-48017916D01*
X36481937Y-47905600D01*
X36503545Y-47807528D01*
X36516510Y-47688994D01*
X36520831Y-47550000D01*
X36516510Y-47411006D01*
X36508966Y-47342037D01*
X36628781Y-47342037D01*
X36638747Y-47468156D01*
X36668645Y-47569226D01*
X36718475Y-47645250D01*
X36788942Y-47698167D01*
X36880753Y-47729917D01*
X36993906Y-47740500D01*
X37085981Y-47732563D01*
X37085981Y-48129437D01*
X37263781Y-48129437D01*
X37263781Y-46986437D01*
X37175234Y-46968799D01*
X37085276Y-46958215D01*
X36993906Y-46954687D01*
X36878371Y-46964830D01*
X36785767Y-46995257D01*
X36716094Y-47045969D01*
X36667587Y-47119435D01*
X36638483Y-47218124D01*
X36628781Y-47342037D01*
X36508966Y-47342037D01*
X36503545Y-47292472D01*
X36481937Y-47194400D01*
X36434114Y-47082084D01*
X36368431Y-47008663D01*
X36281912Y-46968181D01*
X36171581Y-46954687D01*
X36061250Y-46968181D01*
X35974731Y-47008663D01*
X35909048Y-47082084D01*
X35861225Y-47194400D01*
X35839617Y-47292472D01*
X35826653Y-47411006D01*
X35822331Y-47550000D01*
X35707238Y-47550000D01*
X35758831Y-46970563D01*
X35588969Y-46970563D01*
X35533406Y-47851625D01*
X35530231Y-47851625D01*
X35442919Y-47161062D01*
X35301631Y-47161062D01*
X35217494Y-47962750D01*
X35214319Y-47962750D01*
X35155581Y-46970563D01*
X34996831Y-46970563D01*
X34858719Y-46970563D01*
X34303094Y-46970563D01*
X34303094Y-47108675D01*
X34680919Y-47108675D01*
X34680919Y-47438875D01*
X34318969Y-47438875D01*
X34318969Y-47573812D01*
X34680919Y-47573812D01*
X34680919Y-47991325D01*
X34303094Y-47991325D01*
X34303094Y-48129437D01*
X34096719Y-48129437D01*
X34096719Y-46986437D01*
X34008171Y-46968799D01*
X33918213Y-46958215D01*
X33826844Y-46954687D01*
X33712103Y-46963948D01*
X33619763Y-46991729D01*
X33549825Y-47038031D01*
X33500877Y-47104265D01*
X33471508Y-47191842D01*
X33461719Y-47300762D01*
X33472831Y-47404545D01*
X33506169Y-47488881D01*
X33561731Y-47553770D01*
X33639519Y-47599212D01*
X33639519Y-47602387D01*
X33579194Y-47680969D01*
X33528394Y-47805587D01*
X33429969Y-48129437D01*
X32690314Y-48129437D01*
X32670265Y-48111266D01*
X32617954Y-48053550D01*
X32571552Y-47990984D01*
X32531506Y-47924171D01*
X32498202Y-47853755D01*
X32471960Y-47780413D01*
X32453033Y-47704853D01*
X32441603Y-47627801D01*
X32437781Y-47550000D01*
X32441603Y-47472199D01*
X32453033Y-47395147D01*
X32471960Y-47319587D01*
X32498202Y-47246245D01*
X32531506Y-47175829D01*
X32571552Y-47109016D01*
X32617954Y-47046450D01*
X32670265Y-46988734D01*
X32727982Y-46936423D01*
X32790547Y-46890021D01*
X32857360Y-46849975D01*
X32927776Y-46816671D01*
X33001118Y-46790429D01*
X33076678Y-46771502D01*
X33153730Y-46760072D01*
X33231531Y-46756250D01*
X37462219Y-46756250D01*
X37462219Y-48343750D01*
X33231531Y-48343750D01*
X33153730Y-48339928D01*
G37*
G36*
X33918919Y-47105500D02*
G01*
X33918919Y-47510313D01*
X33857006Y-47510313D01*
X33753819Y-47498406D01*
X33685556Y-47462687D01*
X33647456Y-47398394D01*
X33634756Y-47300762D01*
X33646662Y-47207298D01*
X33682381Y-47142806D01*
X33742309Y-47105302D01*
X33826844Y-47092800D01*
X33918919Y-47105500D01*
G37*
G36*
X37085981Y-47105500D02*
G01*
X37085981Y-47592862D01*
X36993906Y-47603975D01*
X36908380Y-47589092D01*
X36848650Y-47544444D01*
X36813527Y-47464077D01*
X36801819Y-47342037D01*
X36813527Y-47228531D01*
X36848650Y-47151537D01*
X36908380Y-47107484D01*
X36993906Y-47092800D01*
X37085981Y-47105500D01*
G37*
G36*
X36253734Y-47117208D02*
G01*
X36309694Y-47190431D01*
X36333506Y-47273775D01*
X36347794Y-47393631D01*
X36352556Y-47550000D01*
X36347794Y-47706369D01*
X36333506Y-47826225D01*
X36309694Y-47909569D01*
X36253734Y-47982792D01*
X36171581Y-48007200D01*
X36089428Y-47982792D01*
X36033469Y-47909569D01*
X36009656Y-47826225D01*
X35995369Y-47706369D01*
X35990606Y-47550000D01*
X35995369Y-47393631D01*
X36009656Y-47273775D01*
X36033469Y-47190431D01*
X36089428Y-47117208D01*
X36171581Y-47092800D01*
X36253734Y-47117208D01*
G37*
%TO.C,kibuzzard-63A1A568*%
G36*
X33915206Y-39507087D02*
G01*
X33915206Y-40394500D01*
X33843769Y-40408787D01*
X33732842Y-40383388D01*
X33657238Y-40307188D01*
X33625047Y-40220581D01*
X33605732Y-40096226D01*
X33599294Y-39934125D01*
X33605820Y-39787369D01*
X33625399Y-39673069D01*
X33658031Y-39591225D01*
X33733834Y-39517406D01*
X33843769Y-39492800D01*
X33915206Y-39507087D01*
G37*
G36*
X33150018Y-40739928D02*
G01*
X33072966Y-40728498D01*
X32997405Y-40709571D01*
X32924064Y-40683329D01*
X32853648Y-40650025D01*
X32786835Y-40609979D01*
X32724269Y-40563577D01*
X32666553Y-40511266D01*
X32614242Y-40453550D01*
X32567840Y-40390984D01*
X32527794Y-40324171D01*
X32494489Y-40253755D01*
X32468247Y-40180413D01*
X32449320Y-40104853D01*
X32437891Y-40027801D01*
X32434069Y-39950000D01*
X32434849Y-39934125D01*
X33426256Y-39934125D01*
X33431460Y-40077882D01*
X33447070Y-40200119D01*
X33473087Y-40300838D01*
X33530436Y-40415733D01*
X33608819Y-40490544D01*
X33712006Y-40531620D01*
X33843769Y-40545312D01*
X33973547Y-40537375D01*
X34013370Y-40529437D01*
X34270806Y-40529437D01*
X34448606Y-40529437D01*
X34696256Y-39688062D01*
X34699431Y-39688062D01*
X34699431Y-40529437D01*
X34874056Y-40529437D01*
X34874056Y-40489750D01*
X35040744Y-40489750D01*
X35125763Y-40520618D01*
X35215722Y-40539139D01*
X35310619Y-40545312D01*
X35403636Y-40535887D01*
X35484252Y-40507609D01*
X35552464Y-40460480D01*
X35608275Y-40394500D01*
X35651683Y-40309668D01*
X35682689Y-40205984D01*
X35701293Y-40083449D01*
X35707494Y-39942062D01*
X35700796Y-39799882D01*
X35680705Y-39678141D01*
X35647218Y-39576838D01*
X35600338Y-39495975D01*
X35516994Y-39417482D01*
X35409838Y-39370386D01*
X35278869Y-39354687D01*
X35177666Y-39363419D01*
X35080431Y-39389613D01*
X35080431Y-39532487D01*
X35181634Y-39503913D01*
X35278869Y-39494387D01*
X35391978Y-39519589D01*
X35470956Y-39595194D01*
X35505352Y-39678538D01*
X35525990Y-39794160D01*
X35532869Y-39942062D01*
X35526342Y-40093404D01*
X35506763Y-40212996D01*
X35474131Y-40300838D01*
X35402694Y-40381800D01*
X35305856Y-40408787D01*
X35210606Y-40389737D01*
X35210606Y-39973812D01*
X35410631Y-39973812D01*
X35410631Y-39838875D01*
X35040744Y-39838875D01*
X35040744Y-40489750D01*
X34874056Y-40489750D01*
X34874056Y-39370563D01*
X34689906Y-39370563D01*
X34442256Y-40211937D01*
X34437494Y-40211937D01*
X34437494Y-39370563D01*
X34270806Y-39370563D01*
X34270806Y-40529437D01*
X34013370Y-40529437D01*
X34093006Y-40513563D01*
X34093006Y-39386437D01*
X33968784Y-39362625D01*
X33843769Y-39354687D01*
X33709449Y-39369063D01*
X33602822Y-39412190D01*
X33523887Y-39484069D01*
X33481174Y-39560715D01*
X33450664Y-39661273D01*
X33432358Y-39785743D01*
X33426256Y-39934125D01*
X32434849Y-39934125D01*
X32437891Y-39872199D01*
X32449320Y-39795147D01*
X32468247Y-39719587D01*
X32494489Y-39646245D01*
X32527794Y-39575829D01*
X32567840Y-39509016D01*
X32614242Y-39446450D01*
X32666553Y-39388734D01*
X32724269Y-39336423D01*
X32786835Y-39290021D01*
X32853648Y-39249975D01*
X32924064Y-39216671D01*
X32997405Y-39190429D01*
X33072966Y-39171502D01*
X33150018Y-39160072D01*
X33227819Y-39156250D01*
X35905931Y-39156250D01*
X35905931Y-40743750D01*
X33227819Y-40743750D01*
X33150018Y-40739928D01*
G37*
%TO.C,kibuzzard-63A1A543*%
G36*
X33148761Y-45809928D02*
G01*
X33071710Y-45798498D01*
X32996149Y-45779571D01*
X32922808Y-45753329D01*
X32852391Y-45720025D01*
X32785579Y-45679979D01*
X32723013Y-45633577D01*
X32665296Y-45581266D01*
X32612985Y-45523550D01*
X32566583Y-45460984D01*
X32526537Y-45394171D01*
X32493233Y-45323755D01*
X32466991Y-45250413D01*
X32448064Y-45174853D01*
X32436635Y-45097801D01*
X32432812Y-45020000D01*
X32436635Y-44942199D01*
X32448064Y-44865147D01*
X32461368Y-44812037D01*
X33425000Y-44812037D01*
X33434966Y-44938156D01*
X33464864Y-45039226D01*
X33514694Y-45115250D01*
X33585161Y-45168167D01*
X33676972Y-45199917D01*
X33790125Y-45210500D01*
X33882200Y-45202563D01*
X33882200Y-45599437D01*
X34060000Y-45599437D01*
X34060000Y-45297812D01*
X34237800Y-45297812D01*
X34246002Y-45401176D01*
X34270608Y-45482668D01*
X34311619Y-45542287D01*
X34371503Y-45582857D01*
X34452730Y-45607199D01*
X34555300Y-45615312D01*
X34657870Y-45607199D01*
X34683771Y-45599437D01*
X34996625Y-45599437D01*
X35188712Y-45599437D01*
X35466525Y-45043812D01*
X35469700Y-45043812D01*
X35469700Y-45599437D01*
X35647500Y-45599437D01*
X35647500Y-44818387D01*
X35857050Y-44818387D01*
X36026912Y-44818387D01*
X36026912Y-44570737D01*
X36063425Y-44564387D01*
X36133760Y-44576602D01*
X36191307Y-44613247D01*
X36236066Y-44674322D01*
X36268036Y-44759826D01*
X36287218Y-44869761D01*
X36293612Y-45004125D01*
X36286557Y-45149161D01*
X36265390Y-45267826D01*
X36230112Y-45360122D01*
X36180724Y-45426047D01*
X36117224Y-45465602D01*
X36039612Y-45478787D01*
X35955475Y-45466484D01*
X35864987Y-45429575D01*
X35864987Y-45575625D01*
X35960634Y-45605391D01*
X36066600Y-45615312D01*
X36160734Y-45605763D01*
X36178748Y-45599437D01*
X36560312Y-45599437D01*
X36744462Y-45599437D01*
X36804787Y-45294638D01*
X37076250Y-45294638D01*
X37136575Y-45599437D01*
X37314375Y-45599437D01*
X37235827Y-45266063D01*
X37393750Y-45266063D01*
X37403981Y-45372778D01*
X37434672Y-45460090D01*
X37485825Y-45528000D01*
X37557439Y-45576507D01*
X37649514Y-45605611D01*
X37762050Y-45615312D01*
X37852361Y-45611785D01*
X37941261Y-45601201D01*
X38028750Y-45583563D01*
X38028750Y-44456437D01*
X37902544Y-44432625D01*
X37771575Y-44424687D01*
X37646988Y-44436244D01*
X37550087Y-44470915D01*
X37480872Y-44528700D01*
X37439343Y-44609599D01*
X37425500Y-44713612D01*
X37438002Y-44803306D01*
X37475506Y-44878712D01*
X37533648Y-44935069D01*
X37608063Y-44967613D01*
X37608063Y-44969200D01*
X37523727Y-45002934D01*
X37454869Y-45069212D01*
X37409030Y-45159700D01*
X37393750Y-45266063D01*
X37235827Y-45266063D01*
X37041325Y-44440563D01*
X36834950Y-44440563D01*
X36560312Y-45599437D01*
X36178748Y-45599437D01*
X36242316Y-45577113D01*
X36311348Y-45529364D01*
X36367828Y-45462516D01*
X36411757Y-45376567D01*
X36443135Y-45271520D01*
X36461962Y-45147372D01*
X36468238Y-45004125D01*
X36462036Y-44868319D01*
X36443433Y-44750621D01*
X36412427Y-44651030D01*
X36369019Y-44569547D01*
X36313208Y-44506171D01*
X36244995Y-44460902D01*
X36164380Y-44433741D01*
X36071362Y-44424687D01*
X35958253Y-44433419D01*
X35857050Y-44459613D01*
X35857050Y-44818387D01*
X35647500Y-44818387D01*
X35647500Y-44440563D01*
X35469700Y-44440563D01*
X35469700Y-44948562D01*
X35466525Y-44948562D01*
X35195062Y-44440563D01*
X35004562Y-44440563D01*
X35307775Y-44993012D01*
X34996625Y-45599437D01*
X34683771Y-45599437D01*
X34739097Y-45582857D01*
X34798981Y-45542287D01*
X34839992Y-45482668D01*
X34864598Y-45401176D01*
X34872800Y-45297812D01*
X34872800Y-44440563D01*
X34693412Y-44440563D01*
X34693412Y-45266063D01*
X34685475Y-45368853D01*
X34661662Y-45432750D01*
X34618403Y-45466088D01*
X34552125Y-45477200D01*
X34442587Y-45433544D01*
X34418775Y-45369845D01*
X34410837Y-45266063D01*
X34410837Y-44440563D01*
X34237800Y-44440563D01*
X34237800Y-45297812D01*
X34060000Y-45297812D01*
X34060000Y-44456437D01*
X33971453Y-44438799D01*
X33881494Y-44428215D01*
X33790125Y-44424687D01*
X33674590Y-44434830D01*
X33581986Y-44465257D01*
X33512312Y-44515969D01*
X33463806Y-44589435D01*
X33434701Y-44688124D01*
X33425000Y-44812037D01*
X32461368Y-44812037D01*
X32466991Y-44789587D01*
X32493233Y-44716245D01*
X32526537Y-44645829D01*
X32566583Y-44579016D01*
X32612985Y-44516450D01*
X32665296Y-44458734D01*
X32723013Y-44406423D01*
X32785579Y-44360021D01*
X32852391Y-44319975D01*
X32922808Y-44286671D01*
X32996149Y-44260429D01*
X33071710Y-44241502D01*
X33148761Y-44230072D01*
X33226563Y-44226250D01*
X38227188Y-44226250D01*
X38227188Y-45813750D01*
X33226563Y-45813750D01*
X33148761Y-45809928D01*
G37*
G36*
X33882200Y-44575500D02*
G01*
X33882200Y-45062862D01*
X33790125Y-45073975D01*
X33704598Y-45059092D01*
X33644869Y-45014444D01*
X33609745Y-44934077D01*
X33598038Y-44812037D01*
X33609745Y-44698531D01*
X33644869Y-44621537D01*
X33704598Y-44577484D01*
X33790125Y-44562800D01*
X33882200Y-44575500D01*
G37*
G36*
X37850950Y-44573913D02*
G01*
X37850950Y-44908875D01*
X37804913Y-44908875D01*
X37711250Y-44897961D01*
X37646163Y-44865219D01*
X37608063Y-44808267D01*
X37595362Y-44724725D01*
X37614942Y-44633885D01*
X37673679Y-44579381D01*
X37771575Y-44561212D01*
X37850950Y-44573913D01*
G37*
G36*
X37850950Y-45466088D02*
G01*
X37762050Y-45478787D01*
X37676127Y-45465889D01*
X37615206Y-45427194D01*
X37578892Y-45360320D01*
X37566787Y-45262887D01*
X37579884Y-45164066D01*
X37619175Y-45096200D01*
X37686644Y-45056909D01*
X37784275Y-45043812D01*
X37850950Y-45043812D01*
X37850950Y-45466088D01*
G37*
G36*
X37049263Y-45159700D02*
G01*
X36831775Y-45159700D01*
X36939725Y-44615187D01*
X36941312Y-44615187D01*
X37049263Y-45159700D01*
G37*
%TO.C,kibuzzard-63A1A4C9*%
G36*
X37076519Y-49675500D02*
G01*
X37076519Y-50162862D01*
X36984444Y-50173975D01*
X36898917Y-50159092D01*
X36839188Y-50114444D01*
X36804064Y-50034077D01*
X36792356Y-49912037D01*
X36804064Y-49798531D01*
X36839188Y-49721537D01*
X36898917Y-49677484D01*
X36984444Y-49662800D01*
X37076519Y-49675500D01*
G37*
G36*
X33144268Y-50909928D02*
G01*
X33067216Y-50898498D01*
X32991655Y-50879571D01*
X32918314Y-50853329D01*
X32847898Y-50820025D01*
X32781085Y-50779979D01*
X32718519Y-50733577D01*
X32660803Y-50681266D01*
X32608492Y-50623550D01*
X32562090Y-50560984D01*
X32522044Y-50494171D01*
X32488739Y-50423755D01*
X32462497Y-50350413D01*
X32443570Y-50274853D01*
X32432141Y-50197801D01*
X32428319Y-50120000D01*
X32432141Y-50042199D01*
X32443570Y-49965147D01*
X32462497Y-49889587D01*
X32488739Y-49816245D01*
X32522044Y-49745829D01*
X32562090Y-49679016D01*
X32608492Y-49616450D01*
X32660803Y-49558734D01*
X32680852Y-49540563D01*
X33420506Y-49540563D01*
X33679269Y-50699437D01*
X33885644Y-50699437D01*
X34112169Y-49678675D01*
X35042931Y-49678675D01*
X35279469Y-49678675D01*
X35279469Y-50699437D01*
X35457269Y-50699437D01*
X35457269Y-50397812D01*
X35844619Y-50397812D01*
X35852821Y-50501176D01*
X35877427Y-50582668D01*
X35918438Y-50642287D01*
X35978322Y-50682857D01*
X36059549Y-50707199D01*
X36162119Y-50715312D01*
X36264689Y-50707199D01*
X36345916Y-50682857D01*
X36405800Y-50642287D01*
X36446810Y-50582668D01*
X36471417Y-50501176D01*
X36479619Y-50397812D01*
X36479619Y-49912037D01*
X36619319Y-49912037D01*
X36629285Y-50038156D01*
X36659183Y-50139226D01*
X36709012Y-50215250D01*
X36779480Y-50268167D01*
X36871290Y-50299917D01*
X36984444Y-50310500D01*
X37076519Y-50302563D01*
X37076519Y-50699437D01*
X37254319Y-50699437D01*
X37447994Y-50699437D01*
X37625794Y-50699437D01*
X37873444Y-49858062D01*
X37876619Y-49858062D01*
X37876619Y-50699437D01*
X38051244Y-50699437D01*
X38273494Y-50699437D01*
X38813244Y-50699437D01*
X38813244Y-50561325D01*
X38635444Y-50561325D01*
X38635444Y-49678675D01*
X38813244Y-49678675D01*
X38813244Y-49540563D01*
X38273494Y-49540563D01*
X38273494Y-49678675D01*
X38451294Y-49678675D01*
X38451294Y-50561325D01*
X38273494Y-50561325D01*
X38273494Y-50699437D01*
X38051244Y-50699437D01*
X38051244Y-49540563D01*
X37867094Y-49540563D01*
X37619444Y-50381937D01*
X37614681Y-50381937D01*
X37614681Y-49540563D01*
X37447994Y-49540563D01*
X37447994Y-50699437D01*
X37254319Y-50699437D01*
X37254319Y-49556437D01*
X37165772Y-49538799D01*
X37075813Y-49528215D01*
X36984444Y-49524687D01*
X36868909Y-49534830D01*
X36776305Y-49565257D01*
X36706631Y-49615969D01*
X36658124Y-49689435D01*
X36629020Y-49788124D01*
X36619319Y-49912037D01*
X36479619Y-49912037D01*
X36479619Y-49540563D01*
X36300231Y-49540563D01*
X36300231Y-50366063D01*
X36292294Y-50468853D01*
X36268481Y-50532750D01*
X36225222Y-50566088D01*
X36158944Y-50577200D01*
X36049406Y-50533544D01*
X36025594Y-50469845D01*
X36017656Y-50366063D01*
X36017656Y-49540563D01*
X35844619Y-49540563D01*
X35844619Y-50397812D01*
X35457269Y-50397812D01*
X35457269Y-49678675D01*
X35693806Y-49678675D01*
X35693806Y-49540563D01*
X35042931Y-49540563D01*
X35042931Y-49678675D01*
X34112169Y-49678675D01*
X34142819Y-49540563D01*
X33960256Y-49540563D01*
X33779281Y-50540688D01*
X33777694Y-50540688D01*
X33596719Y-49540563D01*
X33420506Y-49540563D01*
X32680852Y-49540563D01*
X32718519Y-49506423D01*
X32781085Y-49460021D01*
X32847898Y-49419975D01*
X32918314Y-49386671D01*
X32991655Y-49360429D01*
X33067216Y-49341502D01*
X33144268Y-49330072D01*
X33222069Y-49326250D01*
X39011681Y-49326250D01*
X39011681Y-50913750D01*
X33222069Y-50913750D01*
X33144268Y-50909928D01*
G37*
%TO.C,J3*%
D10*
X57773622Y-51120000D02*
G75*
G03*
X57773622Y-51120000I-238622J0D01*
G01*
%TO.C,kibuzzard-63A1A72A*%
G36*
X51577303Y-44587208D02*
G01*
X51633262Y-44660431D01*
X51657075Y-44743775D01*
X51671363Y-44863631D01*
X51676125Y-45020000D01*
X51671363Y-45176369D01*
X51657075Y-45296225D01*
X51633262Y-45379569D01*
X51577303Y-45452792D01*
X51495150Y-45477200D01*
X51412997Y-45452792D01*
X51357038Y-45379569D01*
X51333225Y-45296225D01*
X51318938Y-45176369D01*
X51314175Y-45020000D01*
X51318938Y-44863631D01*
X51333225Y-44743775D01*
X51357038Y-44660431D01*
X51412997Y-44587208D01*
X51495150Y-44562800D01*
X51577303Y-44587208D01*
G37*
G36*
X49383775Y-44226250D02*
G01*
X56762475Y-44226250D01*
X56840276Y-44230072D01*
X56917328Y-44241502D01*
X56992888Y-44260429D01*
X57066230Y-44286671D01*
X57136646Y-44319975D01*
X57203459Y-44360021D01*
X57266025Y-44406423D01*
X57323741Y-44458734D01*
X57376052Y-44516450D01*
X57422454Y-44579016D01*
X57462500Y-44645829D01*
X57495804Y-44716245D01*
X57522046Y-44789587D01*
X57540973Y-44865147D01*
X57552403Y-44942199D01*
X57556225Y-45020000D01*
X57552403Y-45097801D01*
X57540973Y-45174853D01*
X57522046Y-45250413D01*
X57495804Y-45323755D01*
X57462500Y-45394171D01*
X57422454Y-45460984D01*
X57376052Y-45523550D01*
X57323741Y-45581266D01*
X57266025Y-45633577D01*
X57203459Y-45679979D01*
X57136646Y-45720025D01*
X57066230Y-45753329D01*
X56992888Y-45779571D01*
X56917328Y-45798498D01*
X56840276Y-45809928D01*
X56762475Y-45813750D01*
X49383775Y-45813750D01*
X49383775Y-44578675D01*
X49582212Y-44578675D01*
X49818750Y-44578675D01*
X49818750Y-45599437D01*
X49996550Y-45599437D01*
X49996550Y-45297812D01*
X50383900Y-45297812D01*
X50392102Y-45401176D01*
X50416708Y-45482668D01*
X50457719Y-45542287D01*
X50517603Y-45582857D01*
X50598830Y-45607199D01*
X50701400Y-45615312D01*
X50803970Y-45607199D01*
X50885197Y-45582857D01*
X50945081Y-45542287D01*
X50986092Y-45482668D01*
X51010698Y-45401176D01*
X51018900Y-45297812D01*
X51018900Y-45020000D01*
X51145900Y-45020000D01*
X51150222Y-45158994D01*
X51163186Y-45277528D01*
X51184794Y-45375600D01*
X51232617Y-45487916D01*
X51298300Y-45561337D01*
X51384819Y-45601819D01*
X51495150Y-45615312D01*
X51605481Y-45601819D01*
X51692000Y-45561337D01*
X51757683Y-45487916D01*
X51805506Y-45375600D01*
X51827114Y-45277528D01*
X51840078Y-45158994D01*
X51844400Y-45020000D01*
X51840078Y-44881006D01*
X51827114Y-44762472D01*
X51805506Y-44664400D01*
X51769005Y-44578675D01*
X52757213Y-44578675D01*
X52993750Y-44578675D01*
X52993750Y-45599437D01*
X53171550Y-45599437D01*
X53595413Y-45599437D01*
X54151038Y-45599437D01*
X54151038Y-45297812D01*
X54352650Y-45297812D01*
X54366303Y-45412112D01*
X54407260Y-45501013D01*
X54475523Y-45564512D01*
X54571090Y-45602612D01*
X54693963Y-45615312D01*
X54792388Y-45606846D01*
X54818628Y-45599437D01*
X55182913Y-45599437D01*
X55738538Y-45599437D01*
X55897288Y-45599437D01*
X56079850Y-45599437D01*
X56171925Y-45266063D01*
X56197920Y-45194030D01*
X56228281Y-45149381D01*
X56324325Y-45118425D01*
X56386238Y-45118425D01*
X56386238Y-45599437D01*
X56564038Y-45599437D01*
X56564038Y-44456437D01*
X56475490Y-44438799D01*
X56385532Y-44428215D01*
X56294163Y-44424687D01*
X56179422Y-44433948D01*
X56087082Y-44461729D01*
X56017144Y-44508031D01*
X55968196Y-44574265D01*
X55938827Y-44661842D01*
X55929038Y-44770762D01*
X55940150Y-44874545D01*
X55973488Y-44958881D01*
X56029050Y-45023770D01*
X56106838Y-45069212D01*
X56106838Y-45072387D01*
X56046513Y-45150969D01*
X55995713Y-45275587D01*
X55897288Y-45599437D01*
X55738538Y-45599437D01*
X55738538Y-44440563D01*
X55182913Y-44440563D01*
X55182913Y-44578675D01*
X55560738Y-44578675D01*
X55560738Y-44908875D01*
X55198788Y-44908875D01*
X55198788Y-45043812D01*
X55560738Y-45043812D01*
X55560738Y-45461325D01*
X55182913Y-45461325D01*
X55182913Y-45599437D01*
X54818628Y-45599437D01*
X54882346Y-45581446D01*
X54963838Y-45539113D01*
X54963838Y-45374012D01*
X54880053Y-45431339D01*
X54791682Y-45465735D01*
X54698725Y-45477200D01*
X54628081Y-45466286D01*
X54574900Y-45433544D01*
X54541563Y-45379767D01*
X54530450Y-45305750D01*
X54538983Y-45235106D01*
X54564581Y-45178750D01*
X54610023Y-45132316D01*
X54678088Y-45091438D01*
X54775366Y-45040638D01*
X54851301Y-44987721D01*
X54905894Y-44932687D01*
X54955305Y-44839025D01*
X54971775Y-44726312D01*
X54950939Y-44599312D01*
X54888431Y-44504063D01*
X54825019Y-44459965D01*
X54745909Y-44433507D01*
X54651100Y-44424687D01*
X54558672Y-44429979D01*
X54469772Y-44445854D01*
X54384400Y-44472312D01*
X54384400Y-44631062D01*
X54507034Y-44579866D01*
X54630463Y-44562800D01*
X54699916Y-44573119D01*
X54752700Y-44604075D01*
X54786038Y-44653287D01*
X54797150Y-44718375D01*
X54783039Y-44798985D01*
X54740706Y-44863014D01*
X54670150Y-44910462D01*
X54562024Y-44964967D01*
X54478944Y-45020529D01*
X54420913Y-45077150D01*
X54369716Y-45175178D01*
X54352650Y-45297812D01*
X54151038Y-45297812D01*
X54151038Y-44440563D01*
X53595413Y-44440563D01*
X53595413Y-44578675D01*
X53973238Y-44578675D01*
X53973238Y-44908875D01*
X53611288Y-44908875D01*
X53611288Y-45043812D01*
X53973238Y-45043812D01*
X53973238Y-45461325D01*
X53595413Y-45461325D01*
X53595413Y-45599437D01*
X53171550Y-45599437D01*
X53171550Y-44578675D01*
X53408088Y-44578675D01*
X53408088Y-44440563D01*
X52757213Y-44440563D01*
X52757213Y-44578675D01*
X51769005Y-44578675D01*
X51757683Y-44552084D01*
X51692000Y-44478663D01*
X51605481Y-44438181D01*
X51495150Y-44424687D01*
X51384819Y-44438181D01*
X51298300Y-44478663D01*
X51232617Y-44552084D01*
X51184794Y-44664400D01*
X51163186Y-44762472D01*
X51150222Y-44881006D01*
X51145900Y-45020000D01*
X51018900Y-45020000D01*
X51018900Y-44440563D01*
X50839512Y-44440563D01*
X50839512Y-45266063D01*
X50831575Y-45368853D01*
X50807763Y-45432750D01*
X50764503Y-45466088D01*
X50698225Y-45477200D01*
X50588688Y-45433544D01*
X50564875Y-45369845D01*
X50556938Y-45266063D01*
X50556938Y-44440563D01*
X50383900Y-44440563D01*
X50383900Y-45297812D01*
X49996550Y-45297812D01*
X49996550Y-44578675D01*
X50233088Y-44578675D01*
X50233088Y-44440563D01*
X49582212Y-44440563D01*
X49582212Y-44578675D01*
X49383775Y-44578675D01*
X49383775Y-44226250D01*
G37*
G36*
X56386238Y-44575500D02*
G01*
X56386238Y-44980313D01*
X56324325Y-44980313D01*
X56221138Y-44968406D01*
X56152875Y-44932687D01*
X56114775Y-44868394D01*
X56102075Y-44770762D01*
X56113981Y-44677298D01*
X56149700Y-44612806D01*
X56209628Y-44575302D01*
X56294163Y-44562800D01*
X56386238Y-44575500D01*
G37*
%TO.C,kibuzzard-63A1A785*%
G36*
X52609056Y-49284188D02*
G01*
X56765131Y-49284188D01*
X56842154Y-49287971D01*
X56918436Y-49299287D01*
X56993241Y-49318024D01*
X57065849Y-49344004D01*
X57135561Y-49376975D01*
X57201705Y-49416621D01*
X57263645Y-49462559D01*
X57320785Y-49514347D01*
X57372573Y-49571486D01*
X57418510Y-49633426D01*
X57458156Y-49699571D01*
X57491127Y-49769283D01*
X57517107Y-49841891D01*
X57535845Y-49916696D01*
X57547160Y-49992977D01*
X57550944Y-50070000D01*
X57547160Y-50147023D01*
X57535845Y-50223304D01*
X57517107Y-50298109D01*
X57491127Y-50370717D01*
X57458156Y-50440429D01*
X57418510Y-50506574D01*
X57372573Y-50568514D01*
X57320785Y-50625653D01*
X57263645Y-50677441D01*
X57201705Y-50723379D01*
X57135561Y-50763025D01*
X57065849Y-50795996D01*
X56993241Y-50821976D01*
X56918436Y-50840713D01*
X56842154Y-50852029D01*
X56765131Y-50855812D01*
X52609056Y-50855812D01*
X52609056Y-49620737D01*
X52807494Y-49620737D01*
X53044031Y-49620737D01*
X53044031Y-50641500D01*
X53221831Y-50641500D01*
X53625056Y-50641500D01*
X54172744Y-50641500D01*
X54172744Y-50339875D01*
X54402931Y-50339875D01*
X54411133Y-50443239D01*
X54435740Y-50524731D01*
X54476750Y-50584350D01*
X54536634Y-50624919D01*
X54617861Y-50649261D01*
X54720431Y-50657375D01*
X54823001Y-50649261D01*
X54848899Y-50641500D01*
X55137944Y-50641500D01*
X55322094Y-50641500D01*
X55382419Y-50336700D01*
X55653881Y-50336700D01*
X55714206Y-50641500D01*
X55892006Y-50641500D01*
X55651497Y-49620737D01*
X56026944Y-49620737D01*
X56388894Y-49620737D01*
X56388894Y-49950938D01*
X56042819Y-49950938D01*
X56042819Y-50085875D01*
X56388894Y-50085875D01*
X56388894Y-50641500D01*
X56566694Y-50641500D01*
X56566694Y-49482625D01*
X56026944Y-49482625D01*
X56026944Y-49620737D01*
X55651497Y-49620737D01*
X55618956Y-49482625D01*
X55412581Y-49482625D01*
X55137944Y-50641500D01*
X54848899Y-50641500D01*
X54904228Y-50624919D01*
X54964113Y-50584350D01*
X55005123Y-50524731D01*
X55029729Y-50443239D01*
X55037931Y-50339875D01*
X55037931Y-49482625D01*
X54858544Y-49482625D01*
X54858544Y-50308125D01*
X54850606Y-50410916D01*
X54826794Y-50474813D01*
X54783534Y-50508150D01*
X54717256Y-50519263D01*
X54607719Y-50475606D01*
X54583906Y-50411908D01*
X54575969Y-50308125D01*
X54575969Y-49482625D01*
X54402931Y-49482625D01*
X54402931Y-50339875D01*
X54172744Y-50339875D01*
X54172744Y-49482625D01*
X53994944Y-49482625D01*
X53994944Y-50503388D01*
X53625056Y-50503388D01*
X53625056Y-50641500D01*
X53221831Y-50641500D01*
X53221831Y-49620737D01*
X53458369Y-49620737D01*
X53458369Y-49482625D01*
X52807494Y-49482625D01*
X52807494Y-49620737D01*
X52609056Y-49620737D01*
X52609056Y-49284188D01*
G37*
G36*
X55626894Y-50201763D02*
G01*
X55409406Y-50201763D01*
X55517356Y-49657250D01*
X55518944Y-49657250D01*
X55626894Y-50201763D01*
G37*
%TO.C,kibuzzard-63A1A568*%
G36*
X33915206Y-42017087D02*
G01*
X33915206Y-42904500D01*
X33843769Y-42918787D01*
X33732842Y-42893388D01*
X33657238Y-42817188D01*
X33625047Y-42730581D01*
X33605732Y-42606226D01*
X33599294Y-42444125D01*
X33605820Y-42297369D01*
X33625399Y-42183069D01*
X33658031Y-42101225D01*
X33733834Y-42027406D01*
X33843769Y-42002800D01*
X33915206Y-42017087D01*
G37*
G36*
X33150018Y-43249928D02*
G01*
X33072966Y-43238498D01*
X32997405Y-43219571D01*
X32924064Y-43193329D01*
X32853648Y-43160025D01*
X32786835Y-43119979D01*
X32724269Y-43073577D01*
X32666553Y-43021266D01*
X32614242Y-42963550D01*
X32567840Y-42900984D01*
X32527794Y-42834171D01*
X32494489Y-42763755D01*
X32468247Y-42690413D01*
X32449320Y-42614853D01*
X32437891Y-42537801D01*
X32434069Y-42460000D01*
X32434849Y-42444125D01*
X33426256Y-42444125D01*
X33431460Y-42587882D01*
X33447070Y-42710119D01*
X33473087Y-42810838D01*
X33530436Y-42925733D01*
X33608819Y-43000544D01*
X33712006Y-43041620D01*
X33843769Y-43055312D01*
X33973547Y-43047375D01*
X34013370Y-43039437D01*
X34270806Y-43039437D01*
X34448606Y-43039437D01*
X34696256Y-42198062D01*
X34699431Y-42198062D01*
X34699431Y-43039437D01*
X34874056Y-43039437D01*
X34874056Y-42999750D01*
X35040744Y-42999750D01*
X35125763Y-43030618D01*
X35215722Y-43049139D01*
X35310619Y-43055312D01*
X35403636Y-43045887D01*
X35484252Y-43017609D01*
X35552464Y-42970480D01*
X35608275Y-42904500D01*
X35651683Y-42819668D01*
X35682689Y-42715984D01*
X35701293Y-42593449D01*
X35707494Y-42452062D01*
X35700796Y-42309882D01*
X35680705Y-42188141D01*
X35647218Y-42086838D01*
X35600338Y-42005975D01*
X35516994Y-41927482D01*
X35409838Y-41880386D01*
X35278869Y-41864687D01*
X35177666Y-41873419D01*
X35080431Y-41899613D01*
X35080431Y-42042487D01*
X35181634Y-42013913D01*
X35278869Y-42004387D01*
X35391978Y-42029589D01*
X35470956Y-42105194D01*
X35505352Y-42188538D01*
X35525990Y-42304160D01*
X35532869Y-42452062D01*
X35526342Y-42603404D01*
X35506763Y-42722996D01*
X35474131Y-42810838D01*
X35402694Y-42891800D01*
X35305856Y-42918787D01*
X35210606Y-42899737D01*
X35210606Y-42483812D01*
X35410631Y-42483812D01*
X35410631Y-42348875D01*
X35040744Y-42348875D01*
X35040744Y-42999750D01*
X34874056Y-42999750D01*
X34874056Y-41880563D01*
X34689906Y-41880563D01*
X34442256Y-42721937D01*
X34437494Y-42721937D01*
X34437494Y-41880563D01*
X34270806Y-41880563D01*
X34270806Y-43039437D01*
X34013370Y-43039437D01*
X34093006Y-43023563D01*
X34093006Y-41896437D01*
X33968784Y-41872625D01*
X33843769Y-41864687D01*
X33709449Y-41879063D01*
X33602822Y-41922190D01*
X33523887Y-41994069D01*
X33481174Y-42070715D01*
X33450664Y-42171273D01*
X33432358Y-42295743D01*
X33426256Y-42444125D01*
X32434849Y-42444125D01*
X32437891Y-42382199D01*
X32449320Y-42305147D01*
X32468247Y-42229587D01*
X32494489Y-42156245D01*
X32527794Y-42085829D01*
X32567840Y-42019016D01*
X32614242Y-41956450D01*
X32666553Y-41898734D01*
X32724269Y-41846423D01*
X32786835Y-41800021D01*
X32853648Y-41759975D01*
X32924064Y-41726671D01*
X32997405Y-41700429D01*
X33072966Y-41681502D01*
X33150018Y-41670072D01*
X33227819Y-41666250D01*
X35905931Y-41666250D01*
X35905931Y-43253750D01*
X33227819Y-43253750D01*
X33150018Y-43249928D01*
G37*
%TO.C,kibuzzard-63A1A71E*%
G36*
X50968000Y-41686250D02*
G01*
X56778250Y-41686250D01*
X56856051Y-41690072D01*
X56933103Y-41701502D01*
X57008663Y-41720429D01*
X57082005Y-41746671D01*
X57152421Y-41779975D01*
X57219234Y-41820021D01*
X57281800Y-41866423D01*
X57339516Y-41918734D01*
X57391827Y-41976450D01*
X57438229Y-42039016D01*
X57478275Y-42105829D01*
X57511579Y-42176245D01*
X57537821Y-42249587D01*
X57556748Y-42325147D01*
X57568178Y-42402199D01*
X57572000Y-42480000D01*
X57568178Y-42557801D01*
X57556748Y-42634853D01*
X57537821Y-42710413D01*
X57511579Y-42783755D01*
X57478275Y-42854171D01*
X57438229Y-42920984D01*
X57391827Y-42983550D01*
X57339516Y-43041266D01*
X57281800Y-43093577D01*
X57219234Y-43139979D01*
X57152421Y-43180025D01*
X57082005Y-43213329D01*
X57008663Y-43239571D01*
X56933103Y-43258498D01*
X56856051Y-43269928D01*
X56778250Y-43273750D01*
X50968000Y-43273750D01*
X50968000Y-43019750D01*
X51166438Y-43019750D01*
X51251457Y-43050618D01*
X51341415Y-43069139D01*
X51436313Y-43075312D01*
X51529330Y-43065887D01*
X51609945Y-43037609D01*
X51678158Y-42990480D01*
X51733969Y-42924500D01*
X51777377Y-42839668D01*
X51808383Y-42735984D01*
X51826986Y-42613449D01*
X51832840Y-42480000D01*
X51936375Y-42480000D01*
X51940697Y-42618994D01*
X51953661Y-42737528D01*
X51975269Y-42835600D01*
X52023092Y-42947916D01*
X52088775Y-43021337D01*
X52175294Y-43061819D01*
X52285625Y-43075312D01*
X52395956Y-43061819D01*
X52401047Y-43059437D01*
X52719013Y-43059437D01*
X52901575Y-43059437D01*
X52993650Y-42726063D01*
X53019645Y-42654030D01*
X53050006Y-42609381D01*
X53146050Y-42578425D01*
X53207963Y-42578425D01*
X53207963Y-43059437D01*
X53385763Y-43059437D01*
X53385763Y-42272037D01*
X53536575Y-42272037D01*
X53546541Y-42398156D01*
X53576439Y-42499226D01*
X53626269Y-42575250D01*
X53696736Y-42628167D01*
X53788547Y-42659917D01*
X53901700Y-42670500D01*
X53993775Y-42662563D01*
X53993775Y-43059437D01*
X54171575Y-43059437D01*
X55159000Y-43059437D01*
X55706688Y-43059437D01*
X55706688Y-42278387D01*
X55968625Y-42278387D01*
X56138488Y-42278387D01*
X56138488Y-42030737D01*
X56175000Y-42024387D01*
X56245335Y-42036602D01*
X56302882Y-42073247D01*
X56347641Y-42134322D01*
X56379611Y-42219826D01*
X56398793Y-42329761D01*
X56405188Y-42464125D01*
X56398132Y-42609161D01*
X56376965Y-42727826D01*
X56341688Y-42820122D01*
X56292299Y-42886047D01*
X56228799Y-42925602D01*
X56151188Y-42938787D01*
X56067050Y-42926484D01*
X55976563Y-42889575D01*
X55976563Y-43035625D01*
X56072209Y-43065391D01*
X56178175Y-43075312D01*
X56272309Y-43065763D01*
X56353891Y-43037113D01*
X56422923Y-42989364D01*
X56479403Y-42922516D01*
X56523332Y-42836567D01*
X56554710Y-42731520D01*
X56573537Y-42607372D01*
X56579813Y-42464125D01*
X56573611Y-42328319D01*
X56555008Y-42210621D01*
X56524002Y-42111030D01*
X56480594Y-42029547D01*
X56424783Y-41966171D01*
X56356570Y-41920902D01*
X56275955Y-41893741D01*
X56182938Y-41884687D01*
X56069828Y-41893419D01*
X55968625Y-41919613D01*
X55968625Y-42278387D01*
X55706688Y-42278387D01*
X55706688Y-41900563D01*
X55528888Y-41900563D01*
X55528888Y-42921325D01*
X55159000Y-42921325D01*
X55159000Y-43059437D01*
X54171575Y-43059437D01*
X54171575Y-41916437D01*
X54083028Y-41898799D01*
X53993069Y-41888215D01*
X53901700Y-41884687D01*
X53786165Y-41894830D01*
X53693561Y-41925257D01*
X53623888Y-41975969D01*
X53575381Y-42049435D01*
X53546276Y-42148124D01*
X53536575Y-42272037D01*
X53385763Y-42272037D01*
X53385763Y-41916437D01*
X53297215Y-41898799D01*
X53207257Y-41888215D01*
X53115888Y-41884687D01*
X53001147Y-41893948D01*
X52908807Y-41921729D01*
X52838869Y-41968031D01*
X52789921Y-42034265D01*
X52760552Y-42121842D01*
X52750763Y-42230762D01*
X52761875Y-42334545D01*
X52795213Y-42418881D01*
X52850775Y-42483770D01*
X52928563Y-42529212D01*
X52928563Y-42532387D01*
X52868238Y-42610969D01*
X52817438Y-42735587D01*
X52719013Y-43059437D01*
X52401047Y-43059437D01*
X52482475Y-43021337D01*
X52548158Y-42947916D01*
X52595981Y-42835600D01*
X52617589Y-42737528D01*
X52630553Y-42618994D01*
X52634875Y-42480000D01*
X52630553Y-42341006D01*
X52617589Y-42222472D01*
X52595981Y-42124400D01*
X52548158Y-42012084D01*
X52482475Y-41938663D01*
X52395956Y-41898181D01*
X52285625Y-41884687D01*
X52175294Y-41898181D01*
X52088775Y-41938663D01*
X52023092Y-42012084D01*
X51975269Y-42124400D01*
X51953661Y-42222472D01*
X51940697Y-42341006D01*
X51936375Y-42480000D01*
X51832840Y-42480000D01*
X51833188Y-42472062D01*
X51826490Y-42329882D01*
X51806398Y-42208141D01*
X51772912Y-42106838D01*
X51726031Y-42025975D01*
X51642688Y-41947482D01*
X51535531Y-41900386D01*
X51404563Y-41884687D01*
X51303359Y-41893419D01*
X51206125Y-41919613D01*
X51206125Y-42062487D01*
X51307328Y-42033913D01*
X51404563Y-42024387D01*
X51517672Y-42049589D01*
X51596650Y-42125194D01*
X51631046Y-42208538D01*
X51651683Y-42324160D01*
X51658563Y-42472062D01*
X51652036Y-42623404D01*
X51632457Y-42742996D01*
X51599825Y-42830838D01*
X51528388Y-42911800D01*
X51431550Y-42938787D01*
X51336300Y-42919737D01*
X51336300Y-42503812D01*
X51536325Y-42503812D01*
X51536325Y-42368875D01*
X51166438Y-42368875D01*
X51166438Y-43019750D01*
X50968000Y-43019750D01*
X50968000Y-41686250D01*
G37*
G36*
X53993775Y-42035500D02*
G01*
X53993775Y-42522862D01*
X53901700Y-42533975D01*
X53816173Y-42519092D01*
X53756444Y-42474444D01*
X53721320Y-42394077D01*
X53709613Y-42272037D01*
X53721320Y-42158531D01*
X53756444Y-42081537D01*
X53816173Y-42037484D01*
X53901700Y-42022800D01*
X53993775Y-42035500D01*
G37*
G36*
X52367778Y-42047208D02*
G01*
X52423738Y-42120431D01*
X52447550Y-42203775D01*
X52461838Y-42323631D01*
X52466600Y-42480000D01*
X52461838Y-42636369D01*
X52447550Y-42756225D01*
X52423738Y-42839569D01*
X52367778Y-42912792D01*
X52285625Y-42937200D01*
X52203472Y-42912792D01*
X52147513Y-42839569D01*
X52123700Y-42756225D01*
X52109413Y-42636369D01*
X52104650Y-42480000D01*
X52109413Y-42323631D01*
X52123700Y-42203775D01*
X52147513Y-42120431D01*
X52203472Y-42047208D01*
X52285625Y-42022800D01*
X52367778Y-42047208D01*
G37*
G36*
X53207963Y-42035500D02*
G01*
X53207963Y-42440313D01*
X53146050Y-42440313D01*
X53042863Y-42428406D01*
X52974600Y-42392687D01*
X52936500Y-42328394D01*
X52923800Y-42230762D01*
X52935706Y-42137298D01*
X52971425Y-42072806D01*
X53031353Y-42035302D01*
X53115888Y-42022800D01*
X53207963Y-42035500D01*
G37*
%TO.C,kibuzzard-63A1A798*%
G36*
X55564991Y-39487208D02*
G01*
X55620950Y-39560431D01*
X55644763Y-39643775D01*
X55659050Y-39763631D01*
X55663813Y-39920000D01*
X55659050Y-40076369D01*
X55644763Y-40196225D01*
X55620950Y-40279569D01*
X55564991Y-40352792D01*
X55482838Y-40377200D01*
X55400684Y-40352792D01*
X55344725Y-40279569D01*
X55320913Y-40196225D01*
X55306625Y-40076369D01*
X55301863Y-39920000D01*
X55306625Y-39763631D01*
X55320913Y-39643775D01*
X55344725Y-39560431D01*
X55400684Y-39487208D01*
X55482838Y-39462800D01*
X55564991Y-39487208D01*
G37*
G36*
X53230175Y-39475500D02*
G01*
X53230175Y-39880313D01*
X53168263Y-39880313D01*
X53065075Y-39868406D01*
X52996813Y-39832687D01*
X52958713Y-39768394D01*
X52946013Y-39670762D01*
X52957919Y-39577298D01*
X52993638Y-39512806D01*
X53053566Y-39475302D01*
X53138100Y-39462800D01*
X53230175Y-39475500D01*
G37*
G36*
X50833050Y-40059700D02*
G01*
X50615563Y-40059700D01*
X50723513Y-39515187D01*
X50725100Y-39515187D01*
X50833050Y-40059700D01*
G37*
G36*
X56397238Y-39475500D02*
G01*
X56397238Y-39962862D01*
X56305163Y-39973975D01*
X56219636Y-39959092D01*
X56159906Y-39914444D01*
X56124783Y-39834077D01*
X56113075Y-39712037D01*
X56124783Y-39598531D01*
X56159906Y-39521537D01*
X56219636Y-39477484D01*
X56305163Y-39462800D01*
X56397238Y-39475500D01*
G37*
G36*
X48632775Y-39126250D02*
G01*
X56773475Y-39126250D01*
X56851276Y-39130072D01*
X56928328Y-39141502D01*
X57003888Y-39160429D01*
X57077230Y-39186671D01*
X57147646Y-39219975D01*
X57214459Y-39260021D01*
X57277025Y-39306423D01*
X57334741Y-39358734D01*
X57387052Y-39416450D01*
X57433454Y-39479016D01*
X57473500Y-39545829D01*
X57506804Y-39616245D01*
X57533046Y-39689587D01*
X57551973Y-39765147D01*
X57563403Y-39842199D01*
X57567225Y-39920000D01*
X57563403Y-39997801D01*
X57551973Y-40074853D01*
X57533046Y-40150413D01*
X57506804Y-40223755D01*
X57473500Y-40294171D01*
X57433454Y-40360984D01*
X57387052Y-40423550D01*
X57334741Y-40481266D01*
X57277025Y-40533577D01*
X57214459Y-40579979D01*
X57147646Y-40620025D01*
X57077230Y-40653329D01*
X57003888Y-40679571D01*
X56928328Y-40698498D01*
X56851276Y-40709928D01*
X56773475Y-40713750D01*
X48632775Y-40713750D01*
X48632775Y-40499437D01*
X48831213Y-40499437D01*
X49378900Y-40499437D01*
X49656713Y-40499437D01*
X50196463Y-40499437D01*
X50344100Y-40499437D01*
X50528250Y-40499437D01*
X50588575Y-40194638D01*
X50860038Y-40194638D01*
X50920363Y-40499437D01*
X51098163Y-40499437D01*
X50857654Y-39478675D01*
X51233100Y-39478675D01*
X51595050Y-39478675D01*
X51595050Y-39808875D01*
X51248975Y-39808875D01*
X51248975Y-39943812D01*
X51595050Y-39943812D01*
X51595050Y-40499437D01*
X51772850Y-40499437D01*
X52741225Y-40499437D01*
X52923788Y-40499437D01*
X53015863Y-40166063D01*
X53041858Y-40094030D01*
X53072219Y-40049381D01*
X53168263Y-40018425D01*
X53230175Y-40018425D01*
X53230175Y-40499437D01*
X53407975Y-40499437D01*
X53614350Y-40499437D01*
X54169975Y-40499437D01*
X54169975Y-39340563D01*
X54308088Y-39340563D01*
X54411275Y-40499437D01*
X54617650Y-40499437D01*
X54697025Y-39721562D01*
X54701788Y-39721562D01*
X54795450Y-40499437D01*
X54966900Y-40499437D01*
X55018494Y-39920000D01*
X55133588Y-39920000D01*
X55137909Y-40058994D01*
X55150874Y-40177528D01*
X55172481Y-40275600D01*
X55220305Y-40387916D01*
X55285988Y-40461337D01*
X55372506Y-40501819D01*
X55482838Y-40515312D01*
X55593169Y-40501819D01*
X55679688Y-40461337D01*
X55745370Y-40387916D01*
X55793194Y-40275600D01*
X55814801Y-40177528D01*
X55827766Y-40058994D01*
X55832088Y-39920000D01*
X55827766Y-39781006D01*
X55820222Y-39712037D01*
X55940038Y-39712037D01*
X55950003Y-39838156D01*
X55979901Y-39939226D01*
X56029731Y-40015250D01*
X56100199Y-40068167D01*
X56192009Y-40099917D01*
X56305163Y-40110500D01*
X56397238Y-40102563D01*
X56397238Y-40499437D01*
X56575038Y-40499437D01*
X56575038Y-39356437D01*
X56486490Y-39338799D01*
X56396532Y-39328215D01*
X56305163Y-39324687D01*
X56189628Y-39334830D01*
X56097024Y-39365257D01*
X56027350Y-39415969D01*
X55978843Y-39489435D01*
X55949739Y-39588124D01*
X55940038Y-39712037D01*
X55820222Y-39712037D01*
X55814801Y-39662472D01*
X55793194Y-39564400D01*
X55745370Y-39452084D01*
X55679688Y-39378663D01*
X55593169Y-39338181D01*
X55482838Y-39324687D01*
X55372506Y-39338181D01*
X55285988Y-39378663D01*
X55220305Y-39452084D01*
X55172481Y-39564400D01*
X55150874Y-39662472D01*
X55137909Y-39781006D01*
X55133588Y-39920000D01*
X55018494Y-39920000D01*
X55070088Y-39340563D01*
X54900225Y-39340563D01*
X54844663Y-40221625D01*
X54841488Y-40221625D01*
X54754175Y-39531062D01*
X54612888Y-39531062D01*
X54528750Y-40332750D01*
X54525575Y-40332750D01*
X54466838Y-39340563D01*
X54308088Y-39340563D01*
X54169975Y-39340563D01*
X53614350Y-39340563D01*
X53614350Y-39478675D01*
X53992175Y-39478675D01*
X53992175Y-39808875D01*
X53630225Y-39808875D01*
X53630225Y-39943812D01*
X53992175Y-39943812D01*
X53992175Y-40361325D01*
X53614350Y-40361325D01*
X53614350Y-40499437D01*
X53407975Y-40499437D01*
X53407975Y-39356437D01*
X53319428Y-39338799D01*
X53229469Y-39328215D01*
X53138100Y-39324687D01*
X53023359Y-39333948D01*
X52931019Y-39361729D01*
X52861081Y-39408031D01*
X52812133Y-39474265D01*
X52782765Y-39561842D01*
X52772975Y-39670762D01*
X52784088Y-39774545D01*
X52817425Y-39858881D01*
X52872988Y-39923770D01*
X52950775Y-39969212D01*
X52950775Y-39972387D01*
X52890450Y-40050969D01*
X52839650Y-40175587D01*
X52741225Y-40499437D01*
X51772850Y-40499437D01*
X51772850Y-39340563D01*
X51233100Y-39340563D01*
X51233100Y-39478675D01*
X50857654Y-39478675D01*
X50825113Y-39340563D01*
X50618738Y-39340563D01*
X50344100Y-40499437D01*
X50196463Y-40499437D01*
X50196463Y-40361325D01*
X50018663Y-40361325D01*
X50018663Y-39478675D01*
X50196463Y-39478675D01*
X50196463Y-39340563D01*
X49656713Y-39340563D01*
X49656713Y-39478675D01*
X49834513Y-39478675D01*
X49834513Y-40361325D01*
X49656713Y-40361325D01*
X49656713Y-40499437D01*
X49378900Y-40499437D01*
X49378900Y-39340563D01*
X49201100Y-39340563D01*
X49201100Y-40361325D01*
X48831213Y-40361325D01*
X48831213Y-40499437D01*
X48632775Y-40499437D01*
X48632775Y-39126250D01*
G37*
%TD*%
M02*
