%TF.GenerationSoftware,KiCad,Pcbnew,6.0.10-86aedd382b~118~ubuntu20.04.1*%
%TF.CreationDate,2022-12-20T17:41:17+01:00*%
%TF.ProjectId,DC_UPS,44435f55-5053-42e6-9b69-6361645f7063,rev?*%
%TF.SameCoordinates,Original*%
%TF.FileFunction,Legend,Top*%
%TF.FilePolarity,Positive*%
%FSLAX46Y46*%
G04 Gerber Fmt 4.6, Leading zero omitted, Abs format (unit mm)*
G04 Created by KiCad (PCBNEW 6.0.10-86aedd382b~118~ubuntu20.04.1) date 2022-12-20 17:41:17*
%MOMM*%
%LPD*%
G01*
G04 APERTURE LIST*
%ADD10C,0.150000*%
%ADD11C,0.120000*%
%ADD12C,0.477244*%
G04 APERTURE END LIST*
D10*
%TO.C,R_{pf}1*%
X54092857Y-38202380D02*
X53759523Y-37726190D01*
X53521428Y-38202380D02*
X53521428Y-37202380D01*
X53902380Y-37202380D01*
X53997619Y-37250000D01*
X54045238Y-37297619D01*
X54092857Y-37392857D01*
X54092857Y-37535714D01*
X54045238Y-37630952D01*
X53997619Y-37678571D01*
X53902380Y-37726190D01*
X53521428Y-37726190D01*
X54473809Y-37778571D02*
X54473809Y-38578571D01*
X54473809Y-37816666D02*
X54550000Y-37778571D01*
X54702380Y-37778571D01*
X54778571Y-37816666D01*
X54816666Y-37854761D01*
X54854761Y-37930952D01*
X54854761Y-38159523D01*
X54816666Y-38235714D01*
X54778571Y-38273809D01*
X54702380Y-38311904D01*
X54550000Y-38311904D01*
X54473809Y-38273809D01*
X55083333Y-37778571D02*
X55388095Y-37778571D01*
X55197619Y-38311904D02*
X55197619Y-37626190D01*
X55235714Y-37550000D01*
X55311904Y-37511904D01*
X55388095Y-37511904D01*
X56226190Y-38202380D02*
X55654761Y-38202380D01*
X55940476Y-38202380D02*
X55940476Y-37202380D01*
X55845238Y-37345238D01*
X55750000Y-37440476D01*
X55654761Y-37488095D01*
%TO.C,R5*%
X43313333Y-54252380D02*
X42980000Y-53776190D01*
X42741904Y-54252380D02*
X42741904Y-53252380D01*
X43122857Y-53252380D01*
X43218095Y-53300000D01*
X43265714Y-53347619D01*
X43313333Y-53442857D01*
X43313333Y-53585714D01*
X43265714Y-53680952D01*
X43218095Y-53728571D01*
X43122857Y-53776190D01*
X42741904Y-53776190D01*
X44218095Y-53252380D02*
X43741904Y-53252380D01*
X43694285Y-53728571D01*
X43741904Y-53680952D01*
X43837142Y-53633333D01*
X44075238Y-53633333D01*
X44170476Y-53680952D01*
X44218095Y-53728571D01*
X44265714Y-53823809D01*
X44265714Y-54061904D01*
X44218095Y-54157142D01*
X44170476Y-54204761D01*
X44075238Y-54252380D01*
X43837142Y-54252380D01*
X43741904Y-54204761D01*
X43694285Y-54157142D01*
%TO.C,R4*%
X43333333Y-52502380D02*
X43000000Y-52026190D01*
X42761904Y-52502380D02*
X42761904Y-51502380D01*
X43142857Y-51502380D01*
X43238095Y-51550000D01*
X43285714Y-51597619D01*
X43333333Y-51692857D01*
X43333333Y-51835714D01*
X43285714Y-51930952D01*
X43238095Y-51978571D01*
X43142857Y-52026190D01*
X42761904Y-52026190D01*
X44190476Y-51835714D02*
X44190476Y-52502380D01*
X43952380Y-51454761D02*
X43714285Y-52169047D01*
X44333333Y-52169047D01*
%TO.C,U1*%
X46688095Y-40752380D02*
X46688095Y-41561904D01*
X46735714Y-41657142D01*
X46783333Y-41704761D01*
X46878571Y-41752380D01*
X47069047Y-41752380D01*
X47164285Y-41704761D01*
X47211904Y-41657142D01*
X47259523Y-41561904D01*
X47259523Y-40752380D01*
X48259523Y-41752380D02*
X47688095Y-41752380D01*
X47973809Y-41752380D02*
X47973809Y-40752380D01*
X47878571Y-40895238D01*
X47783333Y-40990476D01*
X47688095Y-41038095D01*
%TO.C,L1*%
X40083333Y-33652380D02*
X39607142Y-33652380D01*
X39607142Y-32652380D01*
X40940476Y-33652380D02*
X40369047Y-33652380D01*
X40654761Y-33652380D02*
X40654761Y-32652380D01*
X40559523Y-32795238D01*
X40464285Y-32890476D01*
X40369047Y-32938095D01*
%TO.C,Q1*%
X38854761Y-43797619D02*
X38759523Y-43750000D01*
X38664285Y-43654761D01*
X38521428Y-43511904D01*
X38426190Y-43464285D01*
X38330952Y-43464285D01*
X38378571Y-43702380D02*
X38283333Y-43654761D01*
X38188095Y-43559523D01*
X38140476Y-43369047D01*
X38140476Y-43035714D01*
X38188095Y-42845238D01*
X38283333Y-42750000D01*
X38378571Y-42702380D01*
X38569047Y-42702380D01*
X38664285Y-42750000D01*
X38759523Y-42845238D01*
X38807142Y-43035714D01*
X38807142Y-43369047D01*
X38759523Y-43559523D01*
X38664285Y-43654761D01*
X38569047Y-43702380D01*
X38378571Y-43702380D01*
X39759523Y-43702380D02*
X39188095Y-43702380D01*
X39473809Y-43702380D02*
X39473809Y-42702380D01*
X39378571Y-42845238D01*
X39283333Y-42940476D01*
X39188095Y-42988095D01*
%TO.C,C5*%
X34633333Y-39857142D02*
X34585714Y-39904761D01*
X34442857Y-39952380D01*
X34347619Y-39952380D01*
X34204761Y-39904761D01*
X34109523Y-39809523D01*
X34061904Y-39714285D01*
X34014285Y-39523809D01*
X34014285Y-39380952D01*
X34061904Y-39190476D01*
X34109523Y-39095238D01*
X34204761Y-39000000D01*
X34347619Y-38952380D01*
X34442857Y-38952380D01*
X34585714Y-39000000D01*
X34633333Y-39047619D01*
X35538095Y-38952380D02*
X35061904Y-38952380D01*
X35014285Y-39428571D01*
X35061904Y-39380952D01*
X35157142Y-39333333D01*
X35395238Y-39333333D01*
X35490476Y-39380952D01*
X35538095Y-39428571D01*
X35585714Y-39523809D01*
X35585714Y-39761904D01*
X35538095Y-39857142D01*
X35490476Y-39904761D01*
X35395238Y-39952380D01*
X35157142Y-39952380D01*
X35061904Y-39904761D01*
X35014285Y-39857142D01*
%TO.C,R_Prog1*%
X48788095Y-31682380D02*
X48454761Y-31206190D01*
X48216666Y-31682380D02*
X48216666Y-30682380D01*
X48597619Y-30682380D01*
X48692857Y-30730000D01*
X48740476Y-30777619D01*
X48788095Y-30872857D01*
X48788095Y-31015714D01*
X48740476Y-31110952D01*
X48692857Y-31158571D01*
X48597619Y-31206190D01*
X48216666Y-31206190D01*
X48978571Y-31777619D02*
X49740476Y-31777619D01*
X49978571Y-31682380D02*
X49978571Y-30682380D01*
X50359523Y-30682380D01*
X50454761Y-30730000D01*
X50502380Y-30777619D01*
X50550000Y-30872857D01*
X50550000Y-31015714D01*
X50502380Y-31110952D01*
X50454761Y-31158571D01*
X50359523Y-31206190D01*
X49978571Y-31206190D01*
X50978571Y-31682380D02*
X50978571Y-31015714D01*
X50978571Y-31206190D02*
X51026190Y-31110952D01*
X51073809Y-31063333D01*
X51169047Y-31015714D01*
X51264285Y-31015714D01*
X51740476Y-31682380D02*
X51645238Y-31634761D01*
X51597619Y-31587142D01*
X51550000Y-31491904D01*
X51550000Y-31206190D01*
X51597619Y-31110952D01*
X51645238Y-31063333D01*
X51740476Y-31015714D01*
X51883333Y-31015714D01*
X51978571Y-31063333D01*
X52026190Y-31110952D01*
X52073809Y-31206190D01*
X52073809Y-31491904D01*
X52026190Y-31587142D01*
X51978571Y-31634761D01*
X51883333Y-31682380D01*
X51740476Y-31682380D01*
X52930952Y-31015714D02*
X52930952Y-31825238D01*
X52883333Y-31920476D01*
X52835714Y-31968095D01*
X52740476Y-32015714D01*
X52597619Y-32015714D01*
X52502380Y-31968095D01*
X52930952Y-31634761D02*
X52835714Y-31682380D01*
X52645238Y-31682380D01*
X52550000Y-31634761D01*
X52502380Y-31587142D01*
X52454761Y-31491904D01*
X52454761Y-31206190D01*
X52502380Y-31110952D01*
X52550000Y-31063333D01*
X52645238Y-31015714D01*
X52835714Y-31015714D01*
X52930952Y-31063333D01*
X53930952Y-31682380D02*
X53359523Y-31682380D01*
X53645238Y-31682380D02*
X53645238Y-30682380D01*
X53550000Y-30825238D01*
X53454761Y-30920476D01*
X53359523Y-30968095D01*
%TO.C,R_{fb}1*%
X54172355Y-42486537D02*
X53839021Y-42010347D01*
X53600926Y-42486537D02*
X53600926Y-41486537D01*
X53981878Y-41486537D01*
X54077117Y-41534157D01*
X54124736Y-41581776D01*
X54172355Y-41677014D01*
X54172355Y-41819871D01*
X54124736Y-41915109D01*
X54077117Y-41962728D01*
X53981878Y-42010347D01*
X53600926Y-42010347D01*
X54439021Y-42062728D02*
X54743783Y-42062728D01*
X54553307Y-42596061D02*
X54553307Y-41910347D01*
X54591402Y-41834157D01*
X54667593Y-41796061D01*
X54743783Y-41796061D01*
X55010450Y-42596061D02*
X55010450Y-41796061D01*
X55010450Y-42100823D02*
X55086640Y-42062728D01*
X55239021Y-42062728D01*
X55315212Y-42100823D01*
X55353307Y-42138918D01*
X55391402Y-42215109D01*
X55391402Y-42443680D01*
X55353307Y-42519871D01*
X55315212Y-42557966D01*
X55239021Y-42596061D01*
X55086640Y-42596061D01*
X55010450Y-42557966D01*
X56305688Y-42486537D02*
X55734259Y-42486537D01*
X56019974Y-42486537D02*
X56019974Y-41486537D01*
X55924736Y-41629395D01*
X55829498Y-41724633D01*
X55734259Y-41772252D01*
%TO.C,R3*%
X36483333Y-52502380D02*
X36150000Y-52026190D01*
X35911904Y-52502380D02*
X35911904Y-51502380D01*
X36292857Y-51502380D01*
X36388095Y-51550000D01*
X36435714Y-51597619D01*
X36483333Y-51692857D01*
X36483333Y-51835714D01*
X36435714Y-51930952D01*
X36388095Y-51978571D01*
X36292857Y-52026190D01*
X35911904Y-52026190D01*
X36816666Y-51502380D02*
X37435714Y-51502380D01*
X37102380Y-51883333D01*
X37245238Y-51883333D01*
X37340476Y-51930952D01*
X37388095Y-51978571D01*
X37435714Y-52073809D01*
X37435714Y-52311904D01*
X37388095Y-52407142D01*
X37340476Y-52454761D01*
X37245238Y-52502380D01*
X36959523Y-52502380D01*
X36864285Y-52454761D01*
X36816666Y-52407142D01*
%TO.C,R_{sense}1*%
X33868095Y-49292380D02*
X33534761Y-48816190D01*
X33296666Y-49292380D02*
X33296666Y-48292380D01*
X33677619Y-48292380D01*
X33772857Y-48340000D01*
X33820476Y-48387619D01*
X33868095Y-48482857D01*
X33868095Y-48625714D01*
X33820476Y-48720952D01*
X33772857Y-48768571D01*
X33677619Y-48816190D01*
X33296666Y-48816190D01*
X34210952Y-49363809D02*
X34287142Y-49401904D01*
X34439523Y-49401904D01*
X34515714Y-49363809D01*
X34553809Y-49287619D01*
X34553809Y-49249523D01*
X34515714Y-49173333D01*
X34439523Y-49135238D01*
X34325238Y-49135238D01*
X34249047Y-49097142D01*
X34210952Y-49020952D01*
X34210952Y-48982857D01*
X34249047Y-48906666D01*
X34325238Y-48868571D01*
X34439523Y-48868571D01*
X34515714Y-48906666D01*
X35201428Y-49363809D02*
X35125238Y-49401904D01*
X34972857Y-49401904D01*
X34896666Y-49363809D01*
X34858571Y-49287619D01*
X34858571Y-48982857D01*
X34896666Y-48906666D01*
X34972857Y-48868571D01*
X35125238Y-48868571D01*
X35201428Y-48906666D01*
X35239523Y-48982857D01*
X35239523Y-49059047D01*
X34858571Y-49135238D01*
X35582380Y-48868571D02*
X35582380Y-49401904D01*
X35582380Y-48944761D02*
X35620476Y-48906666D01*
X35696666Y-48868571D01*
X35810952Y-48868571D01*
X35887142Y-48906666D01*
X35925238Y-48982857D01*
X35925238Y-49401904D01*
X36268095Y-49363809D02*
X36344285Y-49401904D01*
X36496666Y-49401904D01*
X36572857Y-49363809D01*
X36610952Y-49287619D01*
X36610952Y-49249523D01*
X36572857Y-49173333D01*
X36496666Y-49135238D01*
X36382380Y-49135238D01*
X36306190Y-49097142D01*
X36268095Y-49020952D01*
X36268095Y-48982857D01*
X36306190Y-48906666D01*
X36382380Y-48868571D01*
X36496666Y-48868571D01*
X36572857Y-48906666D01*
X37258571Y-49363809D02*
X37182380Y-49401904D01*
X37030000Y-49401904D01*
X36953809Y-49363809D01*
X36915714Y-49287619D01*
X36915714Y-48982857D01*
X36953809Y-48906666D01*
X37030000Y-48868571D01*
X37182380Y-48868571D01*
X37258571Y-48906666D01*
X37296666Y-48982857D01*
X37296666Y-49059047D01*
X36915714Y-49135238D01*
X38210952Y-49292380D02*
X37639523Y-49292380D01*
X37925238Y-49292380D02*
X37925238Y-48292380D01*
X37830000Y-48435238D01*
X37734761Y-48530476D01*
X37639523Y-48578095D01*
%TO.C,R2*%
X34303333Y-52512380D02*
X33970000Y-52036190D01*
X33731904Y-52512380D02*
X33731904Y-51512380D01*
X34112857Y-51512380D01*
X34208095Y-51560000D01*
X34255714Y-51607619D01*
X34303333Y-51702857D01*
X34303333Y-51845714D01*
X34255714Y-51940952D01*
X34208095Y-51988571D01*
X34112857Y-52036190D01*
X33731904Y-52036190D01*
X34684285Y-51607619D02*
X34731904Y-51560000D01*
X34827142Y-51512380D01*
X35065238Y-51512380D01*
X35160476Y-51560000D01*
X35208095Y-51607619D01*
X35255714Y-51702857D01*
X35255714Y-51798095D01*
X35208095Y-51940952D01*
X34636666Y-52512380D01*
X35255714Y-52512380D01*
%TO.C,R_{fb}2*%
X54167857Y-40352380D02*
X53834523Y-39876190D01*
X53596428Y-40352380D02*
X53596428Y-39352380D01*
X53977380Y-39352380D01*
X54072619Y-39400000D01*
X54120238Y-39447619D01*
X54167857Y-39542857D01*
X54167857Y-39685714D01*
X54120238Y-39780952D01*
X54072619Y-39828571D01*
X53977380Y-39876190D01*
X53596428Y-39876190D01*
X54434523Y-39928571D02*
X54739285Y-39928571D01*
X54548809Y-40461904D02*
X54548809Y-39776190D01*
X54586904Y-39700000D01*
X54663095Y-39661904D01*
X54739285Y-39661904D01*
X55005952Y-40461904D02*
X55005952Y-39661904D01*
X55005952Y-39966666D02*
X55082142Y-39928571D01*
X55234523Y-39928571D01*
X55310714Y-39966666D01*
X55348809Y-40004761D01*
X55386904Y-40080952D01*
X55386904Y-40309523D01*
X55348809Y-40385714D01*
X55310714Y-40423809D01*
X55234523Y-40461904D01*
X55082142Y-40461904D01*
X55005952Y-40423809D01*
X55729761Y-39447619D02*
X55777380Y-39400000D01*
X55872619Y-39352380D01*
X56110714Y-39352380D01*
X56205952Y-39400000D01*
X56253571Y-39447619D01*
X56301190Y-39542857D01*
X56301190Y-39638095D01*
X56253571Y-39780952D01*
X55682142Y-40352380D01*
X56301190Y-40352380D01*
%TO.C,C2*%
X37383333Y-35157142D02*
X37335714Y-35204761D01*
X37192857Y-35252380D01*
X37097619Y-35252380D01*
X36954761Y-35204761D01*
X36859523Y-35109523D01*
X36811904Y-35014285D01*
X36764285Y-34823809D01*
X36764285Y-34680952D01*
X36811904Y-34490476D01*
X36859523Y-34395238D01*
X36954761Y-34300000D01*
X37097619Y-34252380D01*
X37192857Y-34252380D01*
X37335714Y-34300000D01*
X37383333Y-34347619D01*
X37764285Y-34347619D02*
X37811904Y-34300000D01*
X37907142Y-34252380D01*
X38145238Y-34252380D01*
X38240476Y-34300000D01*
X38288095Y-34347619D01*
X38335714Y-34442857D01*
X38335714Y-34538095D01*
X38288095Y-34680952D01*
X37716666Y-35252380D01*
X38335714Y-35252380D01*
%TO.C,D2*%
X38231904Y-52502380D02*
X38231904Y-51502380D01*
X38470000Y-51502380D01*
X38612857Y-51550000D01*
X38708095Y-51645238D01*
X38755714Y-51740476D01*
X38803333Y-51930952D01*
X38803333Y-52073809D01*
X38755714Y-52264285D01*
X38708095Y-52359523D01*
X38612857Y-52454761D01*
X38470000Y-52502380D01*
X38231904Y-52502380D01*
X39184285Y-51597619D02*
X39231904Y-51550000D01*
X39327142Y-51502380D01*
X39565238Y-51502380D01*
X39660476Y-51550000D01*
X39708095Y-51597619D01*
X39755714Y-51692857D01*
X39755714Y-51788095D01*
X39708095Y-51930952D01*
X39136666Y-52502380D01*
X39755714Y-52502380D01*
%TO.C,Q2*%
X34954761Y-43797619D02*
X34859523Y-43750000D01*
X34764285Y-43654761D01*
X34621428Y-43511904D01*
X34526190Y-43464285D01*
X34430952Y-43464285D01*
X34478571Y-43702380D02*
X34383333Y-43654761D01*
X34288095Y-43559523D01*
X34240476Y-43369047D01*
X34240476Y-43035714D01*
X34288095Y-42845238D01*
X34383333Y-42750000D01*
X34478571Y-42702380D01*
X34669047Y-42702380D01*
X34764285Y-42750000D01*
X34859523Y-42845238D01*
X34907142Y-43035714D01*
X34907142Y-43369047D01*
X34859523Y-43559523D01*
X34764285Y-43654761D01*
X34669047Y-43702380D01*
X34478571Y-43702380D01*
X35288095Y-42797619D02*
X35335714Y-42750000D01*
X35430952Y-42702380D01*
X35669047Y-42702380D01*
X35764285Y-42750000D01*
X35811904Y-42797619D01*
X35859523Y-42892857D01*
X35859523Y-42988095D01*
X35811904Y-43130952D01*
X35240476Y-43702380D01*
X35859523Y-43702380D01*
%TO.C,C4*%
X34633333Y-41557142D02*
X34585714Y-41604761D01*
X34442857Y-41652380D01*
X34347619Y-41652380D01*
X34204761Y-41604761D01*
X34109523Y-41509523D01*
X34061904Y-41414285D01*
X34014285Y-41223809D01*
X34014285Y-41080952D01*
X34061904Y-40890476D01*
X34109523Y-40795238D01*
X34204761Y-40700000D01*
X34347619Y-40652380D01*
X34442857Y-40652380D01*
X34585714Y-40700000D01*
X34633333Y-40747619D01*
X35490476Y-40985714D02*
X35490476Y-41652380D01*
X35252380Y-40604761D02*
X35014285Y-41319047D01*
X35633333Y-41319047D01*
%TO.C,R6*%
X43313333Y-56642380D02*
X42980000Y-56166190D01*
X42741904Y-56642380D02*
X42741904Y-55642380D01*
X43122857Y-55642380D01*
X43218095Y-55690000D01*
X43265714Y-55737619D01*
X43313333Y-55832857D01*
X43313333Y-55975714D01*
X43265714Y-56070952D01*
X43218095Y-56118571D01*
X43122857Y-56166190D01*
X42741904Y-56166190D01*
X44170476Y-55642380D02*
X43980000Y-55642380D01*
X43884761Y-55690000D01*
X43837142Y-55737619D01*
X43741904Y-55880476D01*
X43694285Y-56070952D01*
X43694285Y-56451904D01*
X43741904Y-56547142D01*
X43789523Y-56594761D01*
X43884761Y-56642380D01*
X44075238Y-56642380D01*
X44170476Y-56594761D01*
X44218095Y-56547142D01*
X44265714Y-56451904D01*
X44265714Y-56213809D01*
X44218095Y-56118571D01*
X44170476Y-56070952D01*
X44075238Y-56023333D01*
X43884761Y-56023333D01*
X43789523Y-56070952D01*
X43741904Y-56118571D01*
X43694285Y-56213809D01*
%TO.C,D1*%
X40711904Y-52502380D02*
X40711904Y-51502380D01*
X40950000Y-51502380D01*
X41092857Y-51550000D01*
X41188095Y-51645238D01*
X41235714Y-51740476D01*
X41283333Y-51930952D01*
X41283333Y-52073809D01*
X41235714Y-52264285D01*
X41188095Y-52359523D01*
X41092857Y-52454761D01*
X40950000Y-52502380D01*
X40711904Y-52502380D01*
X42235714Y-52502380D02*
X41664285Y-52502380D01*
X41950000Y-52502380D02*
X41950000Y-51502380D01*
X41854761Y-51645238D01*
X41759523Y-51740476D01*
X41664285Y-51788095D01*
%TO.C,R_{pf}2*%
X54042857Y-36052380D02*
X53709523Y-35576190D01*
X53471428Y-36052380D02*
X53471428Y-35052380D01*
X53852380Y-35052380D01*
X53947619Y-35100000D01*
X53995238Y-35147619D01*
X54042857Y-35242857D01*
X54042857Y-35385714D01*
X53995238Y-35480952D01*
X53947619Y-35528571D01*
X53852380Y-35576190D01*
X53471428Y-35576190D01*
X54423809Y-35628571D02*
X54423809Y-36428571D01*
X54423809Y-35666666D02*
X54500000Y-35628571D01*
X54652380Y-35628571D01*
X54728571Y-35666666D01*
X54766666Y-35704761D01*
X54804761Y-35780952D01*
X54804761Y-36009523D01*
X54766666Y-36085714D01*
X54728571Y-36123809D01*
X54652380Y-36161904D01*
X54500000Y-36161904D01*
X54423809Y-36123809D01*
X55033333Y-35628571D02*
X55338095Y-35628571D01*
X55147619Y-36161904D02*
X55147619Y-35476190D01*
X55185714Y-35400000D01*
X55261904Y-35361904D01*
X55338095Y-35361904D01*
X55604761Y-35147619D02*
X55652380Y-35100000D01*
X55747619Y-35052380D01*
X55985714Y-35052380D01*
X56080952Y-35100000D01*
X56128571Y-35147619D01*
X56176190Y-35242857D01*
X56176190Y-35338095D01*
X56128571Y-35480952D01*
X55557142Y-36052380D01*
X56176190Y-36052380D01*
%TO.C,C3*%
X37350833Y-36557142D02*
X37303214Y-36604761D01*
X37160357Y-36652380D01*
X37065119Y-36652380D01*
X36922261Y-36604761D01*
X36827023Y-36509523D01*
X36779404Y-36414285D01*
X36731785Y-36223809D01*
X36731785Y-36080952D01*
X36779404Y-35890476D01*
X36827023Y-35795238D01*
X36922261Y-35700000D01*
X37065119Y-35652380D01*
X37160357Y-35652380D01*
X37303214Y-35700000D01*
X37350833Y-35747619D01*
X37684166Y-35652380D02*
X38303214Y-35652380D01*
X37969880Y-36033333D01*
X38112738Y-36033333D01*
X38207976Y-36080952D01*
X38255595Y-36128571D01*
X38303214Y-36223809D01*
X38303214Y-36461904D01*
X38255595Y-36557142D01*
X38207976Y-36604761D01*
X38112738Y-36652380D01*
X37827023Y-36652380D01*
X37731785Y-36604761D01*
X37684166Y-36557142D01*
%TO.C,R1*%
X54033333Y-46602380D02*
X53700000Y-46126190D01*
X53461904Y-46602380D02*
X53461904Y-45602380D01*
X53842857Y-45602380D01*
X53938095Y-45650000D01*
X53985714Y-45697619D01*
X54033333Y-45792857D01*
X54033333Y-45935714D01*
X53985714Y-46030952D01*
X53938095Y-46078571D01*
X53842857Y-46126190D01*
X53461904Y-46126190D01*
X54985714Y-46602380D02*
X54414285Y-46602380D01*
X54700000Y-46602380D02*
X54700000Y-45602380D01*
X54604761Y-45745238D01*
X54509523Y-45840476D01*
X54414285Y-45888095D01*
%TO.C,C6*%
X34683333Y-38207142D02*
X34635714Y-38254761D01*
X34492857Y-38302380D01*
X34397619Y-38302380D01*
X34254761Y-38254761D01*
X34159523Y-38159523D01*
X34111904Y-38064285D01*
X34064285Y-37873809D01*
X34064285Y-37730952D01*
X34111904Y-37540476D01*
X34159523Y-37445238D01*
X34254761Y-37350000D01*
X34397619Y-37302380D01*
X34492857Y-37302380D01*
X34635714Y-37350000D01*
X34683333Y-37397619D01*
X35540476Y-37302380D02*
X35350000Y-37302380D01*
X35254761Y-37350000D01*
X35207142Y-37397619D01*
X35111904Y-37540476D01*
X35064285Y-37730952D01*
X35064285Y-38111904D01*
X35111904Y-38207142D01*
X35159523Y-38254761D01*
X35254761Y-38302380D01*
X35445238Y-38302380D01*
X35540476Y-38254761D01*
X35588095Y-38207142D01*
X35635714Y-38111904D01*
X35635714Y-37873809D01*
X35588095Y-37778571D01*
X35540476Y-37730952D01*
X35445238Y-37683333D01*
X35254761Y-37683333D01*
X35159523Y-37730952D01*
X35111904Y-37778571D01*
X35064285Y-37873809D01*
%TO.C,R_{BIAS}1*%
X54169047Y-44677380D02*
X53835714Y-44201190D01*
X53597619Y-44677380D02*
X53597619Y-43677380D01*
X53978571Y-43677380D01*
X54073809Y-43725000D01*
X54121428Y-43772619D01*
X54169047Y-43867857D01*
X54169047Y-44010714D01*
X54121428Y-44105952D01*
X54073809Y-44153571D01*
X53978571Y-44201190D01*
X53597619Y-44201190D01*
X54816666Y-44367857D02*
X54930952Y-44405952D01*
X54969047Y-44444047D01*
X55007142Y-44520238D01*
X55007142Y-44634523D01*
X54969047Y-44710714D01*
X54930952Y-44748809D01*
X54854761Y-44786904D01*
X54550000Y-44786904D01*
X54550000Y-43986904D01*
X54816666Y-43986904D01*
X54892857Y-44025000D01*
X54930952Y-44063095D01*
X54969047Y-44139285D01*
X54969047Y-44215476D01*
X54930952Y-44291666D01*
X54892857Y-44329761D01*
X54816666Y-44367857D01*
X54550000Y-44367857D01*
X55350000Y-44786904D02*
X55350000Y-43986904D01*
X55692857Y-44558333D02*
X56073809Y-44558333D01*
X55616666Y-44786904D02*
X55883333Y-43986904D01*
X56150000Y-44786904D01*
X56378571Y-44748809D02*
X56492857Y-44786904D01*
X56683333Y-44786904D01*
X56759523Y-44748809D01*
X56797619Y-44710714D01*
X56835714Y-44634523D01*
X56835714Y-44558333D01*
X56797619Y-44482142D01*
X56759523Y-44444047D01*
X56683333Y-44405952D01*
X56530952Y-44367857D01*
X56454761Y-44329761D01*
X56416666Y-44291666D01*
X56378571Y-44215476D01*
X56378571Y-44139285D01*
X56416666Y-44063095D01*
X56454761Y-44025000D01*
X56530952Y-43986904D01*
X56721428Y-43986904D01*
X56835714Y-44025000D01*
X57750000Y-44677380D02*
X57178571Y-44677380D01*
X57464285Y-44677380D02*
X57464285Y-43677380D01*
X57369047Y-43820238D01*
X57273809Y-43915476D01*
X57178571Y-43963095D01*
%TO.C,C1*%
X42333333Y-48657142D02*
X42285714Y-48704761D01*
X42142857Y-48752380D01*
X42047619Y-48752380D01*
X41904761Y-48704761D01*
X41809523Y-48609523D01*
X41761904Y-48514285D01*
X41714285Y-48323809D01*
X41714285Y-48180952D01*
X41761904Y-47990476D01*
X41809523Y-47895238D01*
X41904761Y-47800000D01*
X42047619Y-47752380D01*
X42142857Y-47752380D01*
X42285714Y-47800000D01*
X42333333Y-47847619D01*
X43285714Y-48752380D02*
X42714285Y-48752380D01*
X43000000Y-48752380D02*
X43000000Y-47752380D01*
X42904761Y-47895238D01*
X42809523Y-47990476D01*
X42714285Y-48038095D01*
D11*
%TO.C,R_{pf}1*%
X51627064Y-38660000D02*
X50172936Y-38660000D01*
X51627064Y-36840000D02*
X50172936Y-36840000D01*
%TO.C,F_SEL1*%
X49950000Y-52750000D02*
X52750000Y-52750000D01*
X50150000Y-54950000D02*
X49850000Y-55250000D01*
X50150000Y-54950000D02*
X50450000Y-55250000D01*
X52750000Y-54750000D02*
X49950000Y-54750000D01*
X49850000Y-55250000D02*
X50450000Y-55250000D01*
X49300000Y-54050000D02*
X49300000Y-53450000D01*
X53400000Y-53450000D02*
X53400000Y-54050000D01*
X52700000Y-54750000D02*
G75*
G03*
X53400000Y-54050000I0J700000D01*
G01*
X49300000Y-54050000D02*
G75*
G03*
X50000000Y-54750000I699999J-1D01*
G01*
X50000000Y-52750000D02*
G75*
G03*
X49300000Y-53450000I-1J-699999D01*
G01*
X53400000Y-53450000D02*
G75*
G03*
X52700000Y-52750000I-700000J0D01*
G01*
%TO.C,R5*%
X46022936Y-52840000D02*
X47477064Y-52840000D01*
X46022936Y-54660000D02*
X47477064Y-54660000D01*
%TO.C,R4*%
X46022936Y-50340000D02*
X47477064Y-50340000D01*
X46022936Y-52160000D02*
X47477064Y-52160000D01*
%TO.C,kibuzzard-63A19CFD*%
G36*
X55095793Y-51123878D02*
G01*
X55096983Y-51210000D01*
X55094867Y-51322889D01*
X55088517Y-51418139D01*
X55077933Y-51495750D01*
X55055907Y-51582269D01*
X55027927Y-51635450D01*
X54944583Y-51671963D01*
X54865208Y-51639419D01*
X54815996Y-51527500D01*
X55092221Y-51049663D01*
X55095793Y-51123878D01*
G37*
G36*
X55019196Y-50775819D02*
G01*
X55066821Y-50870275D01*
X54795358Y-51341763D01*
X54792183Y-51210000D01*
X54794300Y-51097111D01*
X54800650Y-51001861D01*
X54811233Y-50924250D01*
X54833260Y-50837731D01*
X54861240Y-50784550D01*
X54944583Y-50748038D01*
X55019196Y-50775819D01*
G37*
G36*
X53899479Y-51210000D02*
G01*
X54627083Y-51210000D01*
X54631228Y-51350847D01*
X54643664Y-51470703D01*
X54664390Y-51569569D01*
X54709038Y-51681884D01*
X54768371Y-51753719D01*
X54845761Y-51792414D01*
X54944583Y-51805313D01*
X55043405Y-51792414D01*
X55120796Y-51753719D01*
X55180129Y-51681884D01*
X55224777Y-51569569D01*
X55245503Y-51470703D01*
X55257938Y-51350847D01*
X55262083Y-51210000D01*
X55257938Y-51069153D01*
X55245503Y-50949297D01*
X55224777Y-50850431D01*
X55180129Y-50738116D01*
X55120796Y-50666281D01*
X55043405Y-50627586D01*
X54944583Y-50614687D01*
X54845761Y-50627586D01*
X54768371Y-50666281D01*
X54709038Y-50738116D01*
X54664390Y-50850431D01*
X54643664Y-50949297D01*
X54631228Y-51069153D01*
X54627083Y-51210000D01*
X53899479Y-51210000D01*
X54428646Y-50416250D01*
X55460521Y-50416250D01*
X55460521Y-52003750D01*
X54428646Y-52003750D01*
X53899479Y-51210000D01*
G37*
%TO.C,kibuzzard-63A1A128*%
G36*
X55466930Y-31539475D02*
G01*
X55466930Y-34860525D01*
X53793070Y-34860525D01*
X53793070Y-34701775D01*
X54471250Y-34701775D01*
X54576660Y-34701775D01*
X54576660Y-34320775D01*
X54471250Y-34320775D01*
X54471250Y-34701775D01*
X53793070Y-34701775D01*
X53793070Y-34193775D01*
X55218010Y-34193775D01*
X55308180Y-34193775D01*
X55308180Y-33558775D01*
X55218010Y-33558775D01*
X55218010Y-34193775D01*
X53793070Y-34193775D01*
X53793070Y-33097765D01*
X54097870Y-33097765D01*
X55075770Y-33505435D01*
X55075770Y-33383515D01*
X54097870Y-32975845D01*
X54097870Y-33097765D01*
X53793070Y-33097765D01*
X53793070Y-32866625D01*
X53951820Y-32866625D01*
X54043260Y-32866625D01*
X54043260Y-32345925D01*
X53951820Y-32345925D01*
X53951820Y-32866625D01*
X53793070Y-32866625D01*
X53793070Y-32039855D01*
X54212170Y-32039855D01*
X54478870Y-32039855D01*
X54478870Y-32244325D01*
X54584280Y-32244325D01*
X54584280Y-32039855D01*
X54847170Y-32039855D01*
X54847170Y-31903965D01*
X54584280Y-31903965D01*
X54584280Y-31698225D01*
X54478870Y-31698225D01*
X54478870Y-31903965D01*
X54212170Y-31903965D01*
X54212170Y-32039855D01*
X53793070Y-32039855D01*
X53793070Y-31539475D01*
X55466930Y-31539475D01*
G37*
%TO.C,U1*%
X45135000Y-45660000D02*
X45860000Y-45660000D01*
X42365000Y-40440000D02*
X41640000Y-40440000D01*
X41640000Y-45660000D02*
X41640000Y-44935000D01*
X45860000Y-40440000D02*
X45860000Y-41165000D01*
X45135000Y-40440000D02*
X45860000Y-40440000D01*
X45860000Y-45660000D02*
X45860000Y-44935000D01*
X42365000Y-45660000D02*
X41640000Y-45660000D01*
%TO.C,L1*%
X41200000Y-32000000D02*
X43250000Y-32000000D01*
X43250000Y-39100000D02*
X41200000Y-39100000D01*
X41200000Y-39100000D02*
X41200000Y-32000000D01*
X46250000Y-39100000D02*
X48300000Y-39100000D01*
X48300000Y-32000000D02*
X46250000Y-32000000D01*
X48300000Y-39100000D02*
X48300000Y-32000000D01*
%TO.C,Q1*%
X37299891Y-44319374D02*
X37634891Y-44319374D01*
X40234891Y-47589374D02*
X40569891Y-47589374D01*
X37299891Y-47824374D02*
X37299891Y-44319374D01*
X40569891Y-47589374D02*
X40569891Y-44319374D01*
X40234891Y-44319374D02*
X40569891Y-44319374D01*
%TO.C,C5*%
X39910000Y-40098752D02*
X39910000Y-38676248D01*
X38090000Y-40098752D02*
X38090000Y-38676248D01*
%TO.C,R_Prog1*%
X50222936Y-32490000D02*
X51677064Y-32490000D01*
X50222936Y-34310000D02*
X51677064Y-34310000D01*
%TO.C,R_{fb}1*%
X51631562Y-41149157D02*
X50177434Y-41149157D01*
X51631562Y-42969157D02*
X50177434Y-42969157D01*
%TO.C,R3*%
X37550000Y-54342936D02*
X37550000Y-55797064D01*
X35730000Y-54342936D02*
X35730000Y-55797064D01*
%TO.C,kibuzzard-63A1A287*%
G36*
X41497846Y-59322029D02*
G01*
X41421564Y-59310713D01*
X41346759Y-59291976D01*
X41274151Y-59265996D01*
X41204439Y-59233025D01*
X41138295Y-59193379D01*
X41076355Y-59147441D01*
X41036700Y-59111500D01*
X41773306Y-59111500D01*
X41951106Y-59111500D01*
X42447994Y-59111500D01*
X42625794Y-59111500D01*
X42686119Y-58806700D01*
X42957581Y-58806700D01*
X43017906Y-59111500D01*
X43202056Y-59111500D01*
X43130575Y-58809875D01*
X43302069Y-58809875D01*
X43310271Y-58913239D01*
X43334877Y-58994731D01*
X43375887Y-59054350D01*
X43435772Y-59094919D01*
X43516999Y-59119261D01*
X43619569Y-59127375D01*
X43722139Y-59119261D01*
X43748037Y-59111500D01*
X44167256Y-59111500D01*
X44714944Y-59111500D01*
X44714944Y-58973388D01*
X44345056Y-58973388D01*
X44345056Y-58090737D01*
X44881631Y-58090737D01*
X45118169Y-58090737D01*
X45118169Y-59111500D01*
X45295969Y-59111500D01*
X45295969Y-58090737D01*
X45532506Y-58090737D01*
X45532506Y-57952625D01*
X44881631Y-57952625D01*
X44881631Y-58090737D01*
X44345056Y-58090737D01*
X44345056Y-57952625D01*
X44167256Y-57952625D01*
X44167256Y-59111500D01*
X43748037Y-59111500D01*
X43803366Y-59094919D01*
X43863250Y-59054350D01*
X43904260Y-58994731D01*
X43928867Y-58913239D01*
X43937069Y-58809875D01*
X43937069Y-57952625D01*
X43764031Y-57952625D01*
X43764031Y-58778125D01*
X43756094Y-58881908D01*
X43732281Y-58945606D01*
X43622744Y-58989263D01*
X43556466Y-58978150D01*
X43513206Y-58944813D01*
X43489394Y-58880916D01*
X43481456Y-58778125D01*
X43481456Y-57952625D01*
X43302069Y-57952625D01*
X43302069Y-58809875D01*
X43130575Y-58809875D01*
X42927419Y-57952625D01*
X42721044Y-57952625D01*
X42447994Y-59111500D01*
X41951106Y-59111500D01*
X41951106Y-58555875D01*
X42297181Y-58555875D01*
X42297181Y-58420938D01*
X41951106Y-58420938D01*
X41951106Y-58090737D01*
X42313056Y-58090737D01*
X42313056Y-57952625D01*
X41773306Y-57952625D01*
X41773306Y-59111500D01*
X41036700Y-59111500D01*
X41019215Y-59095653D01*
X40967427Y-59038514D01*
X40921490Y-58976574D01*
X40881844Y-58910429D01*
X40848873Y-58840717D01*
X40822893Y-58768109D01*
X40804155Y-58693304D01*
X40792840Y-58617023D01*
X40789056Y-58540000D01*
X40792840Y-58462977D01*
X40804155Y-58386696D01*
X40822893Y-58311891D01*
X40848873Y-58239283D01*
X40881844Y-58169571D01*
X40921490Y-58103426D01*
X40967427Y-58041486D01*
X41019215Y-57984347D01*
X41076355Y-57932559D01*
X41138295Y-57886621D01*
X41204439Y-57846975D01*
X41274151Y-57814004D01*
X41346759Y-57788024D01*
X41421564Y-57769287D01*
X41497846Y-57757971D01*
X41574869Y-57754188D01*
X45730944Y-57754188D01*
X45730944Y-59325812D01*
X41574869Y-59325812D01*
X41497846Y-59322029D01*
G37*
G36*
X42930594Y-58671763D02*
G01*
X42713106Y-58671763D01*
X42821056Y-58127250D01*
X42822644Y-58127250D01*
X42930594Y-58671763D01*
G37*
%TO.C,kibuzzard-63A19F98*%
G36*
X49538880Y-48619669D02*
G01*
X49596427Y-48660150D01*
X49596427Y-49188788D01*
X49493240Y-49209425D01*
X49419818Y-49192359D01*
X49367827Y-49141163D01*
X49336871Y-49047897D01*
X49326552Y-48904625D01*
X49335085Y-48765123D01*
X49360683Y-48673644D01*
X49403744Y-48623042D01*
X49464665Y-48606175D01*
X49538880Y-48619669D01*
G37*
G36*
X46596052Y-47928312D02*
G01*
X49969490Y-47928312D01*
X50503948Y-48730000D01*
X49969490Y-49531688D01*
X46596052Y-49531688D01*
X46596052Y-49317375D01*
X46794490Y-49317375D01*
X46969115Y-49317375D01*
X46969115Y-48476000D01*
X46972290Y-48476000D01*
X47219940Y-49317375D01*
X47397740Y-49317375D01*
X47397740Y-48296612D01*
X47564427Y-48296612D01*
X47800965Y-48296612D01*
X47800965Y-49317375D01*
X47978765Y-49317375D01*
X47978765Y-48722063D01*
X48358177Y-48722063D01*
X48364453Y-48865310D01*
X48383279Y-48989457D01*
X48414657Y-49094505D01*
X48458586Y-49180453D01*
X48515067Y-49247302D01*
X48584098Y-49295051D01*
X48665681Y-49323700D01*
X48759815Y-49333250D01*
X48865780Y-49323328D01*
X48961427Y-49293563D01*
X48961427Y-49147512D01*
X48870940Y-49184422D01*
X48786802Y-49196725D01*
X48709191Y-49183540D01*
X48645691Y-49143985D01*
X48596302Y-49078059D01*
X48561024Y-48985764D01*
X48546552Y-48904625D01*
X49151927Y-48904625D01*
X49161276Y-49045119D01*
X49189322Y-49155450D01*
X49236065Y-49235619D01*
X49302916Y-49289858D01*
X49391287Y-49322402D01*
X49501177Y-49333250D01*
X49599602Y-49327606D01*
X49689560Y-49310672D01*
X49771052Y-49282450D01*
X49771052Y-48126750D01*
X49596427Y-48126750D01*
X49596427Y-48510925D01*
X49523005Y-48484731D01*
X49445615Y-48476000D01*
X49354686Y-48487112D01*
X49280867Y-48520450D01*
X49224158Y-48576013D01*
X49184030Y-48656975D01*
X49159953Y-48766512D01*
X49151927Y-48904625D01*
X48546552Y-48904625D01*
X48539858Y-48867098D01*
X48532802Y-48722063D01*
X48539196Y-48587698D01*
X48558378Y-48477764D01*
X48590349Y-48392259D01*
X48635108Y-48331185D01*
X48692655Y-48294540D01*
X48762990Y-48282325D01*
X48799502Y-48288675D01*
X48799502Y-48536325D01*
X48969365Y-48536325D01*
X48969365Y-48177550D01*
X48868161Y-48151356D01*
X48755052Y-48142625D01*
X48662035Y-48151679D01*
X48581419Y-48178840D01*
X48513206Y-48224108D01*
X48457396Y-48287484D01*
X48413988Y-48368968D01*
X48382982Y-48468559D01*
X48364378Y-48586257D01*
X48358177Y-48722063D01*
X47978765Y-48722063D01*
X47978765Y-48296612D01*
X48215302Y-48296612D01*
X48215302Y-48158500D01*
X47564427Y-48158500D01*
X47564427Y-48296612D01*
X47397740Y-48296612D01*
X47397740Y-48158500D01*
X47231052Y-48158500D01*
X47231052Y-48999875D01*
X47226290Y-48999875D01*
X46978640Y-48158500D01*
X46794490Y-48158500D01*
X46794490Y-49317375D01*
X46596052Y-49317375D01*
X46596052Y-47928312D01*
G37*
%TO.C,R_{sense}1*%
X35827064Y-51360000D02*
X34372936Y-51360000D01*
X35827064Y-49540000D02*
X34372936Y-49540000D01*
%TO.C,kibuzzard-63A1A047*%
G36*
X58381281Y-37469700D02*
G01*
X58163794Y-37469700D01*
X58271744Y-36925188D01*
X58273331Y-36925188D01*
X58381281Y-37469700D01*
G37*
G36*
X57539377Y-36889381D02*
G01*
X57598115Y-36943885D01*
X57617694Y-37034725D01*
X57604994Y-37118267D01*
X57566894Y-37175219D01*
X57501806Y-37207961D01*
X57408144Y-37218875D01*
X57362106Y-37218875D01*
X57362106Y-36883913D01*
X57441481Y-36871213D01*
X57539377Y-36889381D01*
G37*
G36*
X57526412Y-37366909D02*
G01*
X57593881Y-37406200D01*
X57633172Y-37474066D01*
X57646269Y-37572888D01*
X57634164Y-37670320D01*
X57597850Y-37737194D01*
X57536930Y-37775889D01*
X57451006Y-37788788D01*
X57362106Y-37776088D01*
X57362106Y-37353813D01*
X57428781Y-37353813D01*
X57526412Y-37366909D01*
G37*
G36*
X56985869Y-36536250D02*
G01*
X59594131Y-36536250D01*
X59594131Y-38123750D01*
X56985869Y-38123750D01*
X56985869Y-37893563D01*
X57184306Y-37893563D01*
X57271795Y-37911201D01*
X57360695Y-37921785D01*
X57451006Y-37925313D01*
X57563542Y-37915611D01*
X57583071Y-37909438D01*
X57898681Y-37909438D01*
X58076481Y-37909438D01*
X58136806Y-37604638D01*
X58408269Y-37604638D01*
X58468594Y-37909438D01*
X58652744Y-37909438D01*
X58410837Y-36888675D01*
X58744819Y-36888675D01*
X58981356Y-36888675D01*
X58981356Y-37909438D01*
X59159156Y-37909438D01*
X59159156Y-36888675D01*
X59395694Y-36888675D01*
X59395694Y-36750563D01*
X58744819Y-36750563D01*
X58744819Y-36888675D01*
X58410837Y-36888675D01*
X58378106Y-36750563D01*
X58171731Y-36750563D01*
X57898681Y-37909438D01*
X57583071Y-37909438D01*
X57655617Y-37886507D01*
X57727231Y-37838000D01*
X57778384Y-37770090D01*
X57809076Y-37682778D01*
X57819306Y-37576063D01*
X57804027Y-37469700D01*
X57758187Y-37379213D01*
X57689330Y-37312934D01*
X57604994Y-37279200D01*
X57604994Y-37277613D01*
X57679408Y-37245069D01*
X57737550Y-37188713D01*
X57775055Y-37113306D01*
X57787556Y-37023613D01*
X57773713Y-36919600D01*
X57732184Y-36838701D01*
X57662969Y-36780915D01*
X57566068Y-36746244D01*
X57441481Y-36734687D01*
X57310512Y-36742625D01*
X57184306Y-36766437D01*
X57184306Y-37893563D01*
X56985869Y-37893563D01*
X56985869Y-36536250D01*
G37*
%TO.C,kibuzzard-63A19D17*%
G36*
X53900894Y-53810000D02*
G01*
X54075519Y-53548062D01*
X54692279Y-53548062D01*
X54965329Y-53395662D01*
X54968504Y-53397250D01*
X54968504Y-54389437D01*
X55146304Y-54389437D01*
X55146304Y-53230563D01*
X54970092Y-53230563D01*
X54692279Y-53392487D01*
X54692279Y-53548062D01*
X54075519Y-53548062D01*
X54419477Y-53032125D01*
X55419106Y-53032125D01*
X55419106Y-54587875D01*
X54419477Y-54587875D01*
X53900894Y-53810000D01*
G37*
%TO.C,R2*%
X35380000Y-54342936D02*
X35380000Y-55797064D01*
X33560000Y-54342936D02*
X33560000Y-55797064D01*
%TO.C,kibuzzard-63A19F8A*%
G36*
X44097151Y-50309669D02*
G01*
X44154698Y-50350150D01*
X44154698Y-50878788D01*
X44051510Y-50899425D01*
X43978089Y-50882359D01*
X43926098Y-50831163D01*
X43895142Y-50737897D01*
X43884823Y-50594625D01*
X43893356Y-50455123D01*
X43918954Y-50363644D01*
X43962015Y-50313042D01*
X44022935Y-50296175D01*
X44097151Y-50309669D01*
G37*
G36*
X43298837Y-49985422D02*
G01*
X43358567Y-50029475D01*
X43393690Y-50106469D01*
X43405398Y-50219975D01*
X43393690Y-50342014D01*
X43358567Y-50422381D01*
X43298837Y-50467030D01*
X43213310Y-50481913D01*
X43121235Y-50470800D01*
X43121235Y-49983438D01*
X43213310Y-49970737D01*
X43298837Y-49985422D01*
G37*
G36*
X40572240Y-50420000D02*
G01*
X41106698Y-49618312D01*
X44527760Y-49618312D01*
X44527760Y-51221688D01*
X41106698Y-51221688D01*
X40577532Y-50427938D01*
X41305135Y-50427938D01*
X41309457Y-50566932D01*
X41322422Y-50685465D01*
X41344029Y-50783538D01*
X41391853Y-50895853D01*
X41457535Y-50969275D01*
X41544054Y-51009756D01*
X41654385Y-51023250D01*
X41764717Y-51009756D01*
X41851235Y-50969275D01*
X41916918Y-50895853D01*
X41964742Y-50783538D01*
X41986349Y-50685465D01*
X41999314Y-50566932D01*
X42003635Y-50427938D01*
X41999314Y-50288943D01*
X41986349Y-50170410D01*
X41964742Y-50072337D01*
X41916918Y-49960022D01*
X41851235Y-49886600D01*
X41769806Y-49848500D01*
X42086185Y-49848500D01*
X42343360Y-51007375D01*
X42549735Y-51007375D01*
X42943435Y-51007375D01*
X43121235Y-51007375D01*
X43121235Y-50610500D01*
X43213310Y-50618438D01*
X43326464Y-50607854D01*
X43364718Y-50594625D01*
X43710198Y-50594625D01*
X43719547Y-50735119D01*
X43747592Y-50845450D01*
X43794335Y-50925619D01*
X43861187Y-50979858D01*
X43949558Y-51012402D01*
X44059448Y-51023250D01*
X44157873Y-51017606D01*
X44247831Y-51000672D01*
X44329323Y-50972450D01*
X44329323Y-49816750D01*
X44154698Y-49816750D01*
X44154698Y-50200925D01*
X44081276Y-50174731D01*
X44003885Y-50166000D01*
X43912957Y-50177112D01*
X43839138Y-50210450D01*
X43782429Y-50266013D01*
X43742301Y-50346975D01*
X43718224Y-50456512D01*
X43710198Y-50594625D01*
X43364718Y-50594625D01*
X43418274Y-50576104D01*
X43488742Y-50523188D01*
X43538572Y-50447164D01*
X43568469Y-50346093D01*
X43578435Y-50219975D01*
X43568734Y-50096062D01*
X43539630Y-49997372D01*
X43491123Y-49923906D01*
X43421449Y-49873194D01*
X43328845Y-49842767D01*
X43213310Y-49832625D01*
X43121941Y-49836153D01*
X43031983Y-49846736D01*
X42943435Y-49864375D01*
X42943435Y-51007375D01*
X42549735Y-51007375D01*
X42808498Y-49848500D01*
X42632285Y-49848500D01*
X42451310Y-50848625D01*
X42449723Y-50848625D01*
X42268748Y-49848500D01*
X42086185Y-49848500D01*
X41769806Y-49848500D01*
X41764717Y-49846119D01*
X41654385Y-49832625D01*
X41544054Y-49846119D01*
X41457535Y-49886600D01*
X41391853Y-49960022D01*
X41344029Y-50072337D01*
X41322422Y-50170410D01*
X41309457Y-50288943D01*
X41305135Y-50427938D01*
X40577532Y-50427938D01*
X40572240Y-50420000D01*
G37*
G36*
X41736539Y-49995145D02*
G01*
X41792498Y-50068369D01*
X41816310Y-50151713D01*
X41830598Y-50271569D01*
X41835360Y-50427938D01*
X41830598Y-50584306D01*
X41816310Y-50704162D01*
X41792498Y-50787506D01*
X41736539Y-50860730D01*
X41654385Y-50885138D01*
X41572232Y-50860730D01*
X41516273Y-50787506D01*
X41492460Y-50704162D01*
X41478173Y-50584306D01*
X41473410Y-50427938D01*
X41478173Y-50271569D01*
X41492460Y-50151713D01*
X41516273Y-50068369D01*
X41572232Y-49995145D01*
X41654385Y-49970737D01*
X41736539Y-49995145D01*
G37*
%TO.C,F_SEL2*%
X50150000Y-57450000D02*
X49850000Y-57750000D01*
X53400000Y-55950000D02*
X53400000Y-56550000D01*
X49300000Y-56550000D02*
X49300000Y-55950000D01*
X49950000Y-55250000D02*
X52750000Y-55250000D01*
X49850000Y-57750000D02*
X50450000Y-57750000D01*
X50150000Y-57450000D02*
X50450000Y-57750000D01*
X52750000Y-57250000D02*
X49950000Y-57250000D01*
X53400000Y-55950000D02*
G75*
G03*
X52700000Y-55250000I-700000J0D01*
G01*
X52700000Y-57250000D02*
G75*
G03*
X53400000Y-56550000I0J700000D01*
G01*
X49300000Y-56550000D02*
G75*
G03*
X50000000Y-57250000I699999J-1D01*
G01*
X50000000Y-55250000D02*
G75*
G03*
X49300000Y-55950000I-1J-699999D01*
G01*
%TO.C,OVPO1*%
X37700000Y-50750000D02*
X37700000Y-50150000D01*
X40500000Y-50150000D02*
X40500000Y-50750000D01*
X39800000Y-51450000D02*
X38400000Y-51450000D01*
X38400000Y-49450000D02*
X39800000Y-49450000D01*
X37700000Y-50750000D02*
G75*
G03*
X38400000Y-51450000I699999J-1D01*
G01*
X38400000Y-49450000D02*
G75*
G03*
X37700000Y-50150000I-1J-699999D01*
G01*
X39800000Y-51450000D02*
G75*
G03*
X40500000Y-50750000I0J700000D01*
G01*
X40500000Y-50150000D02*
G75*
G03*
X39800000Y-49450000I-700000J0D01*
G01*
%TO.C,kibuzzard-63A19D4B*%
G36*
X53898248Y-56200000D02*
G01*
X54422123Y-55414187D01*
X55421752Y-55414187D01*
X55421752Y-56985813D01*
X54422123Y-56985813D01*
X54289831Y-56787375D01*
X54636187Y-56787375D01*
X55207688Y-56787375D01*
X55207688Y-56649263D01*
X54820337Y-56649263D01*
X54820337Y-56646088D01*
X54913454Y-56535161D01*
X54992780Y-56430981D01*
X55058314Y-56333548D01*
X55110056Y-56242863D01*
X55159886Y-56129621D01*
X55189784Y-56022729D01*
X55199750Y-55922188D01*
X55181692Y-55788242D01*
X55127519Y-55691206D01*
X55039214Y-55632270D01*
X54918762Y-55612625D01*
X54818221Y-55621797D01*
X54724029Y-55649314D01*
X54636187Y-55695175D01*
X54636187Y-55844400D01*
X54725617Y-55792365D01*
X54807637Y-55761144D01*
X54882250Y-55750737D01*
X54986231Y-55793600D01*
X55011830Y-55849163D01*
X55020363Y-55930125D01*
X55012522Y-56017114D01*
X54989001Y-56109351D01*
X54949800Y-56206836D01*
X54894918Y-56309570D01*
X54824355Y-56417552D01*
X54738111Y-56530783D01*
X54636187Y-56649263D01*
X54636187Y-56787375D01*
X54289831Y-56787375D01*
X53898248Y-56200000D01*
G37*
%TO.C,J4*%
X57870000Y-35880000D02*
X56720000Y-35880000D01*
X57870000Y-30660000D02*
X56720000Y-30660000D01*
X59840000Y-31830000D02*
X59840000Y-34710000D01*
X56720000Y-35880000D02*
X56720000Y-34830000D01*
X56720000Y-31710000D02*
X55730000Y-31710000D01*
X56720000Y-30660000D02*
X56720000Y-31710000D01*
%TO.C,R_{fb}2*%
X50172936Y-38990000D02*
X51627064Y-38990000D01*
X50172936Y-40810000D02*
X51627064Y-40810000D01*
%TO.C,C2*%
X39683335Y-34940000D02*
X39451665Y-34940000D01*
X39683335Y-35660000D02*
X39451665Y-35660000D01*
%TO.C,NTC_Dis0*%
X53400000Y-48450000D02*
X53400000Y-49050000D01*
X52700000Y-49750000D02*
X51300000Y-49750000D01*
X50600000Y-49050000D02*
X50600000Y-48450000D01*
X51300000Y-47750000D02*
X52700000Y-47750000D01*
X53400000Y-48450000D02*
G75*
G03*
X52700000Y-47750000I-699999J1D01*
G01*
X50600000Y-49050000D02*
G75*
G03*
X51300000Y-49750000I700000J0D01*
G01*
X51300000Y-47750000D02*
G75*
G03*
X50600000Y-48450000I0J-700000D01*
G01*
X52700000Y-49750000D02*
G75*
G03*
X53400000Y-49050000I1J699999D01*
G01*
%TO.C,kibuzzard-63A1A2AA*%
G36*
X36910247Y-58105302D02*
G01*
X36970175Y-58142806D01*
X37005894Y-58207298D01*
X37017800Y-58300762D01*
X37005100Y-58398394D01*
X36967000Y-58462687D01*
X36898738Y-58498406D01*
X36795550Y-58510313D01*
X36733638Y-58510313D01*
X36733638Y-58105500D01*
X36825713Y-58092800D01*
X36910247Y-58105302D01*
G37*
G36*
X36173250Y-58689700D02*
G01*
X35955763Y-58689700D01*
X36063713Y-58145187D01*
X36065300Y-58145187D01*
X36173250Y-58689700D01*
G37*
G36*
X33957100Y-57756250D02*
G01*
X38929150Y-57756250D01*
X39006951Y-57760072D01*
X39084003Y-57771502D01*
X39159563Y-57790429D01*
X39232905Y-57816671D01*
X39303321Y-57849975D01*
X39370134Y-57890021D01*
X39432700Y-57936423D01*
X39490416Y-57988734D01*
X39542727Y-58046450D01*
X39589129Y-58109016D01*
X39629175Y-58175829D01*
X39662479Y-58246245D01*
X39688721Y-58319587D01*
X39707648Y-58395147D01*
X39719078Y-58472199D01*
X39722900Y-58550000D01*
X39719078Y-58627801D01*
X39707648Y-58704853D01*
X39688721Y-58780413D01*
X39662479Y-58853755D01*
X39629175Y-58924171D01*
X39589129Y-58990984D01*
X39542727Y-59053550D01*
X39490416Y-59111266D01*
X39432700Y-59163577D01*
X39370134Y-59209979D01*
X39303321Y-59250025D01*
X39232905Y-59283329D01*
X39159563Y-59309571D01*
X39084003Y-59328498D01*
X39006951Y-59339928D01*
X38929150Y-59343750D01*
X33957100Y-59343750D01*
X33957100Y-58534125D01*
X34155538Y-58534125D01*
X34161813Y-58677372D01*
X34180640Y-58801520D01*
X34212018Y-58906567D01*
X34255947Y-58992516D01*
X34312427Y-59059364D01*
X34381459Y-59107113D01*
X34463041Y-59135763D01*
X34557175Y-59145312D01*
X34663141Y-59135391D01*
X34682273Y-59129437D01*
X34957225Y-59129437D01*
X35130263Y-59129437D01*
X35130263Y-58573812D01*
X35412838Y-58573812D01*
X35412838Y-59129437D01*
X35592225Y-59129437D01*
X35690650Y-59129437D01*
X35868450Y-59129437D01*
X35928775Y-58824638D01*
X36200238Y-58824638D01*
X36260563Y-59129437D01*
X36444713Y-59129437D01*
X36555838Y-59129437D01*
X36733638Y-59129437D01*
X36733638Y-58648425D01*
X36795550Y-58648425D01*
X36891594Y-58679381D01*
X36921955Y-58724030D01*
X36947950Y-58796063D01*
X37040025Y-59129437D01*
X37222588Y-59129437D01*
X37124163Y-58805587D01*
X37073363Y-58680969D01*
X37013038Y-58602387D01*
X37013038Y-58599212D01*
X37090825Y-58553770D01*
X37100850Y-58542062D01*
X37314663Y-58542062D01*
X37320864Y-58683449D01*
X37339467Y-58805984D01*
X37370473Y-58909668D01*
X37413881Y-58994500D01*
X37469692Y-59060480D01*
X37537905Y-59107609D01*
X37618520Y-59135887D01*
X37711538Y-59145312D01*
X37806435Y-59139139D01*
X37853558Y-59129437D01*
X38175088Y-59129437D01*
X38730713Y-59129437D01*
X38730713Y-58991325D01*
X38352888Y-58991325D01*
X38352888Y-58573812D01*
X38714838Y-58573812D01*
X38714838Y-58438875D01*
X38352888Y-58438875D01*
X38352888Y-58108675D01*
X38730713Y-58108675D01*
X38730713Y-57970563D01*
X38175088Y-57970563D01*
X38175088Y-59129437D01*
X37853558Y-59129437D01*
X37896393Y-59120618D01*
X37981413Y-59089750D01*
X37981413Y-58438875D01*
X37611525Y-58438875D01*
X37611525Y-58573812D01*
X37811550Y-58573812D01*
X37811550Y-58989737D01*
X37716300Y-59008787D01*
X37619463Y-58981800D01*
X37548025Y-58900838D01*
X37515393Y-58812996D01*
X37495814Y-58693404D01*
X37489288Y-58542062D01*
X37496167Y-58394160D01*
X37516804Y-58278538D01*
X37551200Y-58195194D01*
X37630178Y-58119589D01*
X37743288Y-58094387D01*
X37840522Y-58103913D01*
X37941725Y-58132487D01*
X37941725Y-57989613D01*
X37844491Y-57963419D01*
X37743288Y-57954687D01*
X37612319Y-57970386D01*
X37505163Y-58017482D01*
X37421819Y-58095975D01*
X37374938Y-58176838D01*
X37341452Y-58278141D01*
X37321360Y-58399882D01*
X37314663Y-58542062D01*
X37100850Y-58542062D01*
X37146388Y-58488881D01*
X37179725Y-58404545D01*
X37190838Y-58300762D01*
X37181048Y-58191842D01*
X37151679Y-58104265D01*
X37102731Y-58038031D01*
X37032793Y-57991729D01*
X36940454Y-57963948D01*
X36825713Y-57954687D01*
X36734343Y-57958215D01*
X36644385Y-57968799D01*
X36555838Y-57986437D01*
X36555838Y-59129437D01*
X36444713Y-59129437D01*
X36170075Y-57970563D01*
X35963700Y-57970563D01*
X35690650Y-59129437D01*
X35592225Y-59129437D01*
X35592225Y-57970563D01*
X35412838Y-57970563D01*
X35412838Y-58438875D01*
X35130263Y-58438875D01*
X35130263Y-57970563D01*
X34957225Y-57970563D01*
X34957225Y-59129437D01*
X34682273Y-59129437D01*
X34758788Y-59105625D01*
X34758788Y-58959575D01*
X34668300Y-58996484D01*
X34584163Y-59008787D01*
X34506551Y-58995602D01*
X34443051Y-58956047D01*
X34393663Y-58890122D01*
X34358385Y-58797826D01*
X34337218Y-58679161D01*
X34330163Y-58534125D01*
X34336557Y-58399761D01*
X34355739Y-58289826D01*
X34387709Y-58204322D01*
X34432468Y-58143247D01*
X34490015Y-58106602D01*
X34560350Y-58094387D01*
X34596863Y-58100737D01*
X34596863Y-58348387D01*
X34766725Y-58348387D01*
X34766725Y-57989613D01*
X34665522Y-57963419D01*
X34552413Y-57954687D01*
X34459395Y-57963741D01*
X34378780Y-57990902D01*
X34310567Y-58036171D01*
X34254756Y-58099547D01*
X34211348Y-58181030D01*
X34180342Y-58280621D01*
X34161739Y-58398319D01*
X34155538Y-58534125D01*
X33957100Y-58534125D01*
X33957100Y-57756250D01*
G37*
%TO.C,D2*%
X37875000Y-52672500D02*
X37875000Y-56732500D01*
X40145000Y-56732500D02*
X40145000Y-52672500D01*
X40145000Y-52672500D02*
X37875000Y-52672500D01*
%TO.C,Q2*%
X36350000Y-44319374D02*
X36685000Y-44319374D01*
X36685000Y-47589374D02*
X36685000Y-44319374D01*
X33415000Y-47824374D02*
X33415000Y-44319374D01*
X33415000Y-44319374D02*
X33750000Y-44319374D01*
X36350000Y-47589374D02*
X36685000Y-47589374D01*
%TO.C,C4*%
X40240000Y-40165835D02*
X40240000Y-39934165D01*
X40960000Y-40165835D02*
X40960000Y-39934165D01*
%TO.C,kibuzzard-63A19E71*%
G36*
X56810320Y-56835180D02*
G01*
X56877194Y-56871494D01*
X56915889Y-56932414D01*
X56928787Y-57018338D01*
X56916088Y-57107238D01*
X56493812Y-57107238D01*
X56493812Y-57040563D01*
X56506909Y-56942931D01*
X56546200Y-56875463D01*
X56614066Y-56836172D01*
X56712887Y-56823075D01*
X56810320Y-56835180D01*
G37*
G36*
X56609700Y-56305550D02*
G01*
X56065187Y-56197600D01*
X56065187Y-56196013D01*
X56609700Y-56088063D01*
X56609700Y-56305550D01*
G37*
G36*
X57259928Y-57428984D02*
G01*
X57248498Y-57506036D01*
X57229571Y-57581597D01*
X57203329Y-57654938D01*
X57170025Y-57725354D01*
X57129979Y-57792167D01*
X57083577Y-57854733D01*
X57031266Y-57912449D01*
X56973550Y-57964760D01*
X56910984Y-58011162D01*
X56844171Y-58051208D01*
X56773755Y-58084513D01*
X56700413Y-58110755D01*
X56624853Y-58129682D01*
X56547801Y-58141111D01*
X56470000Y-58144933D01*
X56392199Y-58141111D01*
X56315147Y-58129682D01*
X56239587Y-58110755D01*
X56166245Y-58084513D01*
X56095829Y-58051208D01*
X56029016Y-58011162D01*
X55966450Y-57964760D01*
X55908734Y-57912449D01*
X55856423Y-57854733D01*
X55810021Y-57792167D01*
X55769975Y-57725354D01*
X55736671Y-57654938D01*
X55710429Y-57581597D01*
X55691502Y-57506036D01*
X55680072Y-57428984D01*
X55676250Y-57351183D01*
X55676250Y-57027863D01*
X55874687Y-57027863D01*
X55882625Y-57158831D01*
X55906437Y-57285038D01*
X57033563Y-57285038D01*
X57051201Y-57197549D01*
X57061785Y-57108649D01*
X57065312Y-57018338D01*
X57055611Y-56905801D01*
X57026507Y-56813726D01*
X56978000Y-56742113D01*
X56910090Y-56690960D01*
X56822778Y-56660268D01*
X56716063Y-56650038D01*
X56609700Y-56665317D01*
X56519212Y-56711156D01*
X56452934Y-56780014D01*
X56419200Y-56864350D01*
X56417613Y-56864350D01*
X56385069Y-56789936D01*
X56328712Y-56731794D01*
X56253306Y-56694289D01*
X56163612Y-56681788D01*
X56059599Y-56695631D01*
X55978700Y-56737160D01*
X55920915Y-56806375D01*
X55886244Y-56903276D01*
X55874687Y-57027863D01*
X55676250Y-57027863D01*
X55676250Y-56297613D01*
X55890563Y-56297613D01*
X57049437Y-56570663D01*
X57049437Y-56392863D01*
X56744638Y-56332538D01*
X56744638Y-56061075D01*
X57049437Y-56000750D01*
X57049437Y-55816600D01*
X55890563Y-56091238D01*
X55890563Y-56297613D01*
X55676250Y-56297613D01*
X55676250Y-55724525D01*
X55890563Y-55724525D01*
X56028675Y-55724525D01*
X56028675Y-55487988D01*
X57049437Y-55487988D01*
X57049437Y-55310188D01*
X56028675Y-55310188D01*
X56028675Y-55073650D01*
X55890563Y-55073650D01*
X55890563Y-55724525D01*
X55676250Y-55724525D01*
X55676250Y-53451225D01*
X55890563Y-53451225D01*
X55890563Y-53627438D01*
X56890688Y-53808412D01*
X56890688Y-53810000D01*
X55890563Y-53990975D01*
X55890563Y-54173538D01*
X57049437Y-53916363D01*
X57049437Y-53709987D01*
X55890563Y-53451225D01*
X55676250Y-53451225D01*
X55676250Y-52205038D01*
X55874687Y-52205038D01*
X55883507Y-52299847D01*
X55909965Y-52378957D01*
X55954063Y-52442369D01*
X56049312Y-52504877D01*
X56176312Y-52525713D01*
X56289025Y-52509242D01*
X56382687Y-52459831D01*
X56437721Y-52405239D01*
X56490638Y-52329303D01*
X56541438Y-52232025D01*
X56582316Y-52163961D01*
X56628750Y-52118519D01*
X56685106Y-52092920D01*
X56755750Y-52084388D01*
X56829767Y-52095500D01*
X56883544Y-52128837D01*
X56916286Y-52182019D01*
X56927200Y-52252663D01*
X56915735Y-52345619D01*
X56881339Y-52433990D01*
X56824012Y-52517775D01*
X56989113Y-52517775D01*
X57031446Y-52436283D01*
X57056846Y-52346325D01*
X57065312Y-52247900D01*
X57052612Y-52125028D01*
X57014512Y-52029460D01*
X56951013Y-51961197D01*
X56862112Y-51920240D01*
X56747812Y-51906588D01*
X56625178Y-51923653D01*
X56527150Y-51974850D01*
X56470529Y-52032882D01*
X56414967Y-52115961D01*
X56360462Y-52224087D01*
X56313014Y-52294643D01*
X56248985Y-52336976D01*
X56168375Y-52351088D01*
X56103287Y-52339975D01*
X56054075Y-52306638D01*
X56023119Y-52253853D01*
X56012800Y-52184400D01*
X56029866Y-52060972D01*
X56081062Y-51938338D01*
X55922312Y-51938338D01*
X55895854Y-52023710D01*
X55879979Y-52112610D01*
X55874687Y-52205038D01*
X55676250Y-52205038D01*
X55676250Y-51704975D01*
X55890563Y-51704975D01*
X57049437Y-51704975D01*
X57049437Y-51149350D01*
X56911325Y-51149350D01*
X56911325Y-51527175D01*
X56493812Y-51527175D01*
X56493812Y-51165225D01*
X56358875Y-51165225D01*
X56358875Y-51527175D01*
X56028675Y-51527175D01*
X56028675Y-51149350D01*
X55890563Y-51149350D01*
X55890563Y-51704975D01*
X55676250Y-51704975D01*
X55676250Y-50882650D01*
X55890563Y-50882650D01*
X57049437Y-50882650D01*
X57049437Y-50334962D01*
X56911325Y-50334962D01*
X56911325Y-50704850D01*
X55890563Y-50704850D01*
X55890563Y-50882650D01*
X55676250Y-50882650D01*
X55676250Y-50268817D01*
X55680072Y-50191016D01*
X55691502Y-50113964D01*
X55710429Y-50038403D01*
X55736671Y-49965062D01*
X55769975Y-49894646D01*
X55810021Y-49827833D01*
X55856423Y-49765267D01*
X55908734Y-49707551D01*
X55966450Y-49655240D01*
X56029016Y-49608838D01*
X56095829Y-49568792D01*
X56166245Y-49535487D01*
X56239587Y-49509245D01*
X56315147Y-49490318D01*
X56392199Y-49478889D01*
X56470000Y-49475067D01*
X56547801Y-49478889D01*
X56624853Y-49490318D01*
X56700413Y-49509245D01*
X56773755Y-49535487D01*
X56844171Y-49568792D01*
X56910984Y-49608838D01*
X56973550Y-49655240D01*
X57031266Y-49707551D01*
X57083577Y-49765267D01*
X57129979Y-49827833D01*
X57170025Y-49894646D01*
X57203329Y-49965062D01*
X57229571Y-50038403D01*
X57248498Y-50113964D01*
X57259928Y-50191016D01*
X57263750Y-50268817D01*
X57263750Y-57351183D01*
X57259928Y-57428984D01*
G37*
G36*
X56258267Y-56864350D02*
G01*
X56315219Y-56902450D01*
X56347961Y-56967538D01*
X56358875Y-57061200D01*
X56358875Y-57107238D01*
X56023913Y-57107238D01*
X56011212Y-57027863D01*
X56029381Y-56929967D01*
X56083885Y-56871229D01*
X56174725Y-56851650D01*
X56258267Y-56864350D01*
G37*
%TO.C,R6*%
X46022936Y-55340000D02*
X47477064Y-55340000D01*
X46022936Y-57160000D02*
X47477064Y-57160000D01*
%TO.C,D1*%
X40295000Y-52672500D02*
X40295000Y-56732500D01*
X42565000Y-52672500D02*
X40295000Y-52672500D01*
X42565000Y-56732500D02*
X42565000Y-52672500D01*
%TO.C,R_{pf}2*%
X50172936Y-36510000D02*
X51627064Y-36510000D01*
X50172936Y-34690000D02*
X51627064Y-34690000D01*
%TO.C,C3*%
X39683335Y-35990000D02*
X39451665Y-35990000D01*
X39683335Y-36710000D02*
X39451665Y-36710000D01*
%TO.C,J2*%
D12*
X32703622Y-51115000D02*
G75*
G03*
X32703622Y-51115000I-238622J0D01*
G01*
D11*
%TO.C,R1*%
X51627064Y-47260000D02*
X50172936Y-47260000D01*
X51627064Y-45440000D02*
X50172936Y-45440000D01*
%TO.C,F_SEL0*%
X50150000Y-52450000D02*
X50450000Y-52750000D01*
X50150000Y-52450000D02*
X49850000Y-52750000D01*
X49850000Y-52750000D02*
X50450000Y-52750000D01*
X49300000Y-51550000D02*
X49300000Y-50950000D01*
X53400000Y-50950000D02*
X53400000Y-51550000D01*
X52750000Y-52250000D02*
X49950000Y-52250000D01*
X49950000Y-50250000D02*
X52750000Y-50250000D01*
X53400000Y-50950000D02*
G75*
G03*
X52700000Y-50250000I-700000J0D01*
G01*
X50000000Y-50250000D02*
G75*
G03*
X49300000Y-50950000I-1J-699999D01*
G01*
X52700000Y-52250000D02*
G75*
G03*
X53400000Y-51550000I0J700000D01*
G01*
X49300000Y-51550000D02*
G75*
G03*
X50000000Y-52250000I699999J-1D01*
G01*
%TO.C,C6*%
X37710000Y-40098752D02*
X37710000Y-38676248D01*
X35890000Y-40098752D02*
X35890000Y-38676248D01*
%TO.C,R_{BIAS}1*%
X51627064Y-43290000D02*
X50172936Y-43290000D01*
X51627064Y-45110000D02*
X50172936Y-45110000D01*
%TO.C,C1*%
X40690000Y-48166665D02*
X40690000Y-48398335D01*
X41410000Y-48166665D02*
X41410000Y-48398335D01*
%TD*%
M02*
