%TF.GenerationSoftware,KiCad,Pcbnew,6.0.10-86aedd382b~118~ubuntu20.04.1*%
%TF.CreationDate,2022-12-20T17:41:16+01:00*%
%TF.ProjectId,DC_UPS,44435f55-5053-42e6-9b69-6361645f7063,rev?*%
%TF.SameCoordinates,Original*%
%TF.FileFunction,Copper,L2,Bot*%
%TF.FilePolarity,Positive*%
%FSLAX46Y46*%
G04 Gerber Fmt 4.6, Leading zero omitted, Abs format (unit mm)*
G04 Created by KiCad (PCBNEW 6.0.10-86aedd382b~118~ubuntu20.04.1) date 2022-12-20 17:41:16*
%MOMM*%
%LPD*%
G01*
G04 APERTURE LIST*
%TA.AperFunction,ComponentPad*%
%ADD10C,0.500000*%
%TD*%
%TA.AperFunction,SMDPad,CuDef*%
%ADD11R,2.650000X3.650000*%
%TD*%
%TA.AperFunction,ComponentPad*%
%ADD12O,3.048000X1.524000*%
%TD*%
%TA.AperFunction,ComponentPad*%
%ADD13C,1.524000*%
%TD*%
%TA.AperFunction,ViaPad*%
%ADD14C,0.500000*%
%TD*%
%TA.AperFunction,Conductor*%
%ADD15C,0.250000*%
%TD*%
G04 APERTURE END LIST*
D10*
%TO.P,U1,25,GND*%
%TO.N,GND*%
X42675000Y-43575000D03*
X43750000Y-44625000D03*
D11*
X43750000Y-43050000D03*
D10*
X44825000Y-44625000D03*
X44825000Y-43575000D03*
X42675000Y-41475000D03*
X43750000Y-41475000D03*
X43750000Y-42525000D03*
X42675000Y-44625000D03*
X44825000Y-42525000D03*
X44825000Y-41475000D03*
X43750000Y-43575000D03*
X42675000Y-42525000D03*
%TD*%
D12*
%TO.P,J2,1,Pin_1*%
%TO.N,/Input_V*%
X30713000Y-50085000D03*
D13*
X29975000Y-50085000D03*
D12*
%TO.P,J2,2,Pin_2*%
%TO.N,/CLN*%
X30713000Y-47545000D03*
D13*
X29975000Y-47545000D03*
D12*
%TO.P,J2,3,Pin_3*%
%TO.N,/V_SYS*%
X30713000Y-45005000D03*
D13*
X29975000Y-45005000D03*
D12*
%TO.P,J2,4,Pin_4*%
%TO.N,GND*%
X30713000Y-42465000D03*
D13*
X29975000Y-42465000D03*
D12*
%TO.P,J2,5,Pin_5*%
X30713000Y-39925000D03*
D13*
X29975000Y-39925000D03*
%TD*%
D12*
%TO.P,J3,1,Pin_1*%
%TO.N,/~{FAULT}*%
X59287000Y-50090000D03*
D13*
X60025000Y-50090000D03*
D12*
%TO.P,J3,2,Pin_2*%
%TO.N,/~{CHRG}*%
X59287000Y-47550000D03*
D13*
X60025000Y-47550000D03*
D12*
%TO.P,J3,3,Pin_3*%
%TO.N,/~{RST_OUT}*%
X59287000Y-45010000D03*
D13*
X60025000Y-45010000D03*
%TO.P,J3,4,Pin_4*%
%TO.N,/CLPROG*%
X60025000Y-42470000D03*
D12*
X59287000Y-42470000D03*
%TO.P,J3,5,Pin_5*%
%TO.N,/~{POWER_FAIL}*%
X59287000Y-39930000D03*
D13*
X60025000Y-39930000D03*
%TD*%
D14*
%TO.N,GND*%
X53400000Y-40000000D03*
X53575500Y-48800000D03*
X55270000Y-33850000D03*
X55850000Y-35140000D03*
X37400000Y-36800000D03*
X56610000Y-35140000D03*
X36800000Y-36800000D03*
X53575500Y-53800000D03*
X53570000Y-51180000D03*
X41400000Y-49600000D03*
X36200000Y-36800000D03*
X53575500Y-56200000D03*
X38400000Y-35800000D03*
X38400000Y-34800000D03*
X41800000Y-49000000D03*
X40800000Y-49600000D03*
X40200000Y-38200000D03*
X53400000Y-33400000D03*
X40600000Y-38800000D03*
X38400000Y-36800000D03*
X55270000Y-34710000D03*
X40200000Y-37600000D03*
X53400000Y-35600000D03*
%TO.N,/~{FAULT}*%
X43025499Y-50675499D03*
%TO.N,/~{CHRG}*%
X42420000Y-50234998D03*
%TO.N,/I_GATE*%
X40454891Y-46495109D03*
X47150000Y-44820000D03*
%TO.N,/V_SYS*%
X53800000Y-43150000D03*
X36800000Y-43646874D03*
%TO.N,/CHRG_PROG*%
X39900000Y-42075000D03*
X48400000Y-33400000D03*
%TO.N,/BSTFB*%
X48040000Y-42860000D03*
X43600000Y-46650000D03*
%TO.N,/CLPROG*%
X40626087Y-42649500D03*
%TO.N,/~{RST_OUT}*%
X45891069Y-47614079D03*
%TO.N,/CLN*%
X33549998Y-48559373D03*
X41738716Y-48324500D03*
%TO.N,/~{POWER_FAIL}*%
X47306233Y-40656233D03*
%TD*%
D15*
%TO.N,/~{FAULT}*%
X58525000Y-50090000D02*
X43610998Y-50090000D01*
X43610998Y-50090000D02*
X43025499Y-50675499D01*
%TO.N,/~{CHRG}*%
X57150000Y-49440000D02*
X43214998Y-49440000D01*
X43214998Y-49440000D02*
X42420000Y-50234998D01*
X58525000Y-48065000D02*
X57150000Y-49440000D01*
X58525000Y-47550000D02*
X58525000Y-48065000D01*
%TO.N,/I_GATE*%
X41184282Y-47224500D02*
X44745500Y-47224500D01*
X44745500Y-47224500D02*
X47150000Y-44820000D01*
X40454891Y-46495109D02*
X41184282Y-47224500D01*
%TO.N,/V_SYS*%
X53800000Y-43150000D02*
X49910421Y-47039579D01*
X45017182Y-47675500D02*
X40725500Y-47675500D01*
X40725500Y-47675500D02*
X36800000Y-43750000D01*
X36800000Y-43750000D02*
X36800000Y-43646874D01*
X49910421Y-47039579D02*
X45653103Y-47039579D01*
X45653103Y-47039579D02*
X45017182Y-47675500D01*
%TO.N,/CHRG_PROG*%
X42000000Y-39975000D02*
X39900000Y-42075000D01*
X48400000Y-38075000D02*
X46500000Y-39975000D01*
X46500000Y-39975000D02*
X42000000Y-39975000D01*
X48400000Y-33400000D02*
X48400000Y-38075000D01*
%TO.N,/BSTFB*%
X43600000Y-46650000D02*
X43826777Y-46650000D01*
X43826777Y-46650000D02*
X47616777Y-42860000D01*
X47616777Y-42860000D02*
X48040000Y-42860000D01*
%TO.N,/CLPROG*%
X40626087Y-42373913D02*
X40626087Y-42649500D01*
X57455000Y-41400000D02*
X45900000Y-41400000D01*
X58525000Y-42470000D02*
X57455000Y-41400000D01*
X42375000Y-40625000D02*
X40626087Y-42373913D01*
X45900000Y-41400000D02*
X45125000Y-40625000D01*
X45125000Y-40625000D02*
X42375000Y-40625000D01*
%TO.N,/~{RST_OUT}*%
X55915000Y-47620000D02*
X45896990Y-47620000D01*
X45896990Y-47620000D02*
X45891069Y-47614079D01*
X58525000Y-45010000D02*
X55915000Y-47620000D01*
%TO.N,/CLN*%
X33549998Y-48559373D02*
X41503843Y-48559373D01*
X41503843Y-48559373D02*
X41738716Y-48324500D01*
%TO.N,/~{POWER_FAIL}*%
X58525000Y-39930000D02*
X57511267Y-40943733D01*
X47593733Y-40943733D02*
X47306233Y-40656233D01*
X57511267Y-40943733D02*
X47593733Y-40943733D01*
%TD*%
%TA.AperFunction,Conductor*%
%TO.N,GND*%
G36*
X59941121Y-30021002D02*
G01*
X59987614Y-30074658D01*
X59999000Y-30127000D01*
X59999000Y-38841500D01*
X59978998Y-38909621D01*
X59925342Y-38956114D01*
X59873000Y-38967500D01*
X58476130Y-38967500D01*
X58429981Y-38972188D01*
X58336812Y-38981651D01*
X58336810Y-38981651D01*
X58330464Y-38982296D01*
X58143875Y-39040770D01*
X57972855Y-39135568D01*
X57824390Y-39262818D01*
X57704544Y-39417322D01*
X57701727Y-39423047D01*
X57701725Y-39423050D01*
X57621033Y-39587037D01*
X57621031Y-39587041D01*
X57618213Y-39592769D01*
X57568925Y-39781992D01*
X57558691Y-39977260D01*
X57587931Y-40170599D01*
X57618229Y-40252945D01*
X57623622Y-40267604D01*
X57628372Y-40338442D01*
X57594467Y-40400207D01*
X57413346Y-40581328D01*
X57351034Y-40615354D01*
X57324251Y-40618233D01*
X47862420Y-40618233D01*
X47794299Y-40598231D01*
X47747806Y-40544575D01*
X47743856Y-40533967D01*
X47743072Y-40528492D01*
X47718682Y-40474850D01*
X47693378Y-40419195D01*
X47693376Y-40419192D01*
X47689661Y-40411021D01*
X47631247Y-40343228D01*
X47611284Y-40320059D01*
X47611282Y-40320057D01*
X47605426Y-40313261D01*
X47497139Y-40243074D01*
X47488544Y-40240504D01*
X47488543Y-40240503D01*
X47382107Y-40208671D01*
X47382105Y-40208671D01*
X47373506Y-40206099D01*
X47364531Y-40206044D01*
X47364530Y-40206044D01*
X47309874Y-40205710D01*
X47244464Y-40205311D01*
X47232708Y-40208671D01*
X47129019Y-40238305D01*
X47129017Y-40238306D01*
X47120388Y-40240772D01*
X47109005Y-40247954D01*
X47019760Y-40304264D01*
X47011252Y-40309632D01*
X47005309Y-40316361D01*
X47005308Y-40316362D01*
X46997121Y-40325632D01*
X46925829Y-40406355D01*
X46922015Y-40414478D01*
X46922014Y-40414480D01*
X46908775Y-40442678D01*
X46870987Y-40523165D01*
X46861931Y-40581328D01*
X46852515Y-40641800D01*
X46852515Y-40641804D01*
X46851134Y-40650673D01*
X46852298Y-40659575D01*
X46852298Y-40659578D01*
X46866701Y-40769722D01*
X46866702Y-40769726D01*
X46867866Y-40778627D01*
X46871483Y-40786847D01*
X46919838Y-40896743D01*
X46916627Y-40898156D01*
X46931124Y-40950345D01*
X46910127Y-41018166D01*
X46855796Y-41063868D01*
X46805138Y-41074500D01*
X46087016Y-41074500D01*
X46018895Y-41054498D01*
X45997921Y-41037595D01*
X45475921Y-40515595D01*
X45441895Y-40453283D01*
X45446960Y-40382468D01*
X45489507Y-40325632D01*
X45556027Y-40300821D01*
X45565016Y-40300500D01*
X46480290Y-40300500D01*
X46491272Y-40300980D01*
X46517820Y-40303303D01*
X46517822Y-40303303D01*
X46528807Y-40304264D01*
X46565215Y-40294508D01*
X46575942Y-40292130D01*
X46579301Y-40291538D01*
X46613045Y-40285588D01*
X46622590Y-40280077D01*
X46625866Y-40278885D01*
X46629034Y-40277408D01*
X46639684Y-40274554D01*
X46670544Y-40252945D01*
X46679815Y-40247039D01*
X46702906Y-40233707D01*
X46712455Y-40228194D01*
X46736685Y-40199317D01*
X46744111Y-40191215D01*
X48616215Y-38319111D01*
X48624319Y-38311684D01*
X48644749Y-38294541D01*
X48653194Y-38287455D01*
X48658707Y-38277906D01*
X48672039Y-38254815D01*
X48677945Y-38245544D01*
X48693230Y-38223715D01*
X48699554Y-38214684D01*
X48702408Y-38204034D01*
X48703885Y-38200866D01*
X48705077Y-38197590D01*
X48710588Y-38188045D01*
X48717130Y-38150942D01*
X48719509Y-38140210D01*
X48729264Y-38103807D01*
X48725979Y-38066257D01*
X48725500Y-38055276D01*
X48725500Y-33760315D01*
X48745502Y-33692194D01*
X48758080Y-33675765D01*
X48777322Y-33654507D01*
X48833588Y-33538375D01*
X48854997Y-33411120D01*
X48855133Y-33400000D01*
X48836839Y-33272259D01*
X48783428Y-33154788D01*
X48699193Y-33057028D01*
X48590906Y-32986841D01*
X48582311Y-32984271D01*
X48582310Y-32984270D01*
X48475874Y-32952438D01*
X48475872Y-32952438D01*
X48467273Y-32949866D01*
X48458298Y-32949811D01*
X48458297Y-32949811D01*
X48403641Y-32949477D01*
X48338231Y-32949078D01*
X48326475Y-32952438D01*
X48222786Y-32982072D01*
X48222784Y-32982073D01*
X48214155Y-32984539D01*
X48105019Y-33053399D01*
X48019596Y-33150122D01*
X48015782Y-33158245D01*
X48015781Y-33158247D01*
X47989794Y-33213598D01*
X47964754Y-33266932D01*
X47963374Y-33275798D01*
X47946282Y-33385567D01*
X47946282Y-33385571D01*
X47944901Y-33394440D01*
X47946065Y-33403342D01*
X47946065Y-33403345D01*
X47960468Y-33513489D01*
X47960469Y-33513493D01*
X47961633Y-33522394D01*
X48013605Y-33640510D01*
X48019380Y-33647380D01*
X48019383Y-33647385D01*
X48044950Y-33677800D01*
X48073472Y-33742815D01*
X48074500Y-33758876D01*
X48074500Y-37887984D01*
X48054498Y-37956105D01*
X48037595Y-37977079D01*
X46402079Y-39612595D01*
X46339767Y-39646621D01*
X46312984Y-39649500D01*
X42019698Y-39649500D01*
X42008716Y-39649020D01*
X41982180Y-39646698D01*
X41982178Y-39646698D01*
X41971193Y-39645737D01*
X41960543Y-39648591D01*
X41960541Y-39648591D01*
X41934804Y-39655488D01*
X41924069Y-39657868D01*
X41916508Y-39659201D01*
X41886955Y-39664412D01*
X41877407Y-39669924D01*
X41874130Y-39671117D01*
X41870962Y-39672594D01*
X41860316Y-39675447D01*
X41851287Y-39681769D01*
X41829453Y-39697057D01*
X41820185Y-39702961D01*
X41787545Y-39721806D01*
X41780459Y-39730251D01*
X41763320Y-39750677D01*
X41755892Y-39758782D01*
X39927404Y-41587270D01*
X39865092Y-41621296D01*
X39855410Y-41623009D01*
X39847207Y-41624133D01*
X39838231Y-41624078D01*
X39776193Y-41641809D01*
X39722786Y-41657072D01*
X39722784Y-41657073D01*
X39714155Y-41659539D01*
X39685135Y-41677849D01*
X39619106Y-41719511D01*
X39605019Y-41728399D01*
X39519596Y-41825122D01*
X39464754Y-41941932D01*
X39463374Y-41950798D01*
X39446282Y-42060567D01*
X39446282Y-42060571D01*
X39444901Y-42069440D01*
X39446065Y-42078342D01*
X39446065Y-42078345D01*
X39460468Y-42188489D01*
X39460469Y-42188493D01*
X39461633Y-42197394D01*
X39513605Y-42315510D01*
X39519382Y-42322383D01*
X39519383Y-42322384D01*
X39563208Y-42374520D01*
X39596639Y-42414291D01*
X39704060Y-42485796D01*
X39784346Y-42510879D01*
X39802120Y-42516432D01*
X39827233Y-42524278D01*
X39836203Y-42524442D01*
X39836207Y-42524443D01*
X39894942Y-42525519D01*
X39956255Y-42526643D01*
X40013247Y-42511105D01*
X40084230Y-42512485D01*
X40143199Y-42552022D01*
X40171431Y-42617163D01*
X40172380Y-42634206D01*
X40172369Y-42635067D01*
X40170988Y-42643940D01*
X40172152Y-42652842D01*
X40172152Y-42652845D01*
X40186555Y-42762989D01*
X40186556Y-42762993D01*
X40187720Y-42771894D01*
X40239692Y-42890010D01*
X40245469Y-42896883D01*
X40245470Y-42896884D01*
X40247698Y-42899534D01*
X40322726Y-42988791D01*
X40430147Y-43060296D01*
X40553320Y-43098778D01*
X40562290Y-43098942D01*
X40562294Y-43098943D01*
X40621029Y-43100019D01*
X40682342Y-43101143D01*
X40744592Y-43084172D01*
X40798179Y-43069562D01*
X40798180Y-43069562D01*
X40806842Y-43067200D01*
X40814492Y-43062503D01*
X40814494Y-43062502D01*
X40909159Y-43004378D01*
X40909162Y-43004375D01*
X40916811Y-42999679D01*
X40926001Y-42989526D01*
X40997387Y-42910661D01*
X40997390Y-42910657D01*
X41003409Y-42904007D01*
X41059675Y-42787875D01*
X41067843Y-42739328D01*
X41080277Y-42665417D01*
X41081084Y-42660620D01*
X41081220Y-42649500D01*
X41067928Y-42556684D01*
X41064200Y-42530652D01*
X41064199Y-42530649D01*
X41062926Y-42521759D01*
X41059208Y-42513582D01*
X41056690Y-42504971D01*
X41058590Y-42504415D01*
X41050212Y-42445486D01*
X41079807Y-42380952D01*
X41085806Y-42374520D01*
X41767097Y-41693230D01*
X42472922Y-40987405D01*
X42535234Y-40953379D01*
X42562017Y-40950500D01*
X44937984Y-40950500D01*
X45006105Y-40970502D01*
X45027079Y-40987405D01*
X45655889Y-41616215D01*
X45663316Y-41624319D01*
X45687545Y-41653194D01*
X45697094Y-41658707D01*
X45720185Y-41672039D01*
X45729456Y-41677945D01*
X45760316Y-41699554D01*
X45770969Y-41702409D01*
X45774131Y-41703883D01*
X45777407Y-41705075D01*
X45786955Y-41710588D01*
X45797810Y-41712502D01*
X45797815Y-41712504D01*
X45824065Y-41717133D01*
X45834792Y-41719511D01*
X45860548Y-41726412D01*
X45860551Y-41726412D01*
X45871194Y-41729264D01*
X45882169Y-41728304D01*
X45882171Y-41728304D01*
X45908744Y-41725979D01*
X45919725Y-41725500D01*
X57267984Y-41725500D01*
X57336105Y-41745502D01*
X57357079Y-41762405D01*
X57591127Y-41996453D01*
X57625153Y-42058765D01*
X57620178Y-42128775D01*
X57618213Y-42132769D01*
X57568925Y-42321992D01*
X57567969Y-42340241D01*
X57559032Y-42510759D01*
X57558691Y-42517260D01*
X57587931Y-42710599D01*
X57590134Y-42716586D01*
X57590134Y-42716587D01*
X57624551Y-42810129D01*
X57655449Y-42894108D01*
X57658812Y-42899532D01*
X57658813Y-42899534D01*
X57665712Y-42910661D01*
X57758488Y-43060293D01*
X57762874Y-43064931D01*
X57887520Y-43196740D01*
X57892839Y-43202365D01*
X58053013Y-43314521D01*
X58232468Y-43392178D01*
X58252831Y-43396432D01*
X58419136Y-43431175D01*
X58419141Y-43431176D01*
X58423872Y-43432164D01*
X58430283Y-43432500D01*
X59873000Y-43432500D01*
X59941121Y-43452502D01*
X59987614Y-43506158D01*
X59999000Y-43558500D01*
X59999000Y-43921500D01*
X59978998Y-43989621D01*
X59925342Y-44036114D01*
X59873000Y-44047500D01*
X58476130Y-44047500D01*
X58429981Y-44052188D01*
X58336812Y-44061651D01*
X58336810Y-44061651D01*
X58330464Y-44062296D01*
X58143875Y-44120770D01*
X57972855Y-44215568D01*
X57824390Y-44342818D01*
X57820479Y-44347860D01*
X57820478Y-44347861D01*
X57803978Y-44369133D01*
X57704544Y-44497322D01*
X57701727Y-44503047D01*
X57701725Y-44503050D01*
X57621033Y-44667037D01*
X57621031Y-44667041D01*
X57618213Y-44672769D01*
X57568925Y-44861992D01*
X57558691Y-45057260D01*
X57587931Y-45250599D01*
X57590136Y-45256592D01*
X57623622Y-45347603D01*
X57628372Y-45418440D01*
X57594467Y-45480206D01*
X55817079Y-47257595D01*
X55754767Y-47291620D01*
X55727984Y-47294500D01*
X50420016Y-47294500D01*
X50351895Y-47274498D01*
X50305402Y-47220842D01*
X50295298Y-47150568D01*
X50324792Y-47085988D01*
X50330921Y-47079405D01*
X51981219Y-45429108D01*
X53772789Y-43637538D01*
X53835101Y-43603512D01*
X53846310Y-43601599D01*
X53847277Y-43601478D01*
X53856255Y-43601643D01*
X53918505Y-43584671D01*
X53972092Y-43570062D01*
X53972093Y-43570062D01*
X53980755Y-43567700D01*
X53988405Y-43563003D01*
X53988407Y-43563002D01*
X54083072Y-43504878D01*
X54083075Y-43504875D01*
X54090724Y-43500179D01*
X54096750Y-43493522D01*
X54171300Y-43411161D01*
X54171303Y-43411157D01*
X54177322Y-43404507D01*
X54233588Y-43288375D01*
X54236175Y-43273002D01*
X54254190Y-43165917D01*
X54254997Y-43161120D01*
X54255133Y-43150000D01*
X54247414Y-43096101D01*
X54238112Y-43031145D01*
X54238111Y-43031142D01*
X54236839Y-43022259D01*
X54228709Y-43004378D01*
X54187145Y-42912962D01*
X54187143Y-42912959D01*
X54183428Y-42904788D01*
X54099193Y-42807028D01*
X53990906Y-42736841D01*
X53982311Y-42734271D01*
X53982310Y-42734270D01*
X53875874Y-42702438D01*
X53875872Y-42702438D01*
X53867273Y-42699866D01*
X53858298Y-42699811D01*
X53858297Y-42699811D01*
X53803641Y-42699477D01*
X53738231Y-42699078D01*
X53726475Y-42702438D01*
X53622786Y-42732072D01*
X53622784Y-42732073D01*
X53614155Y-42734539D01*
X53505019Y-42803399D01*
X53419596Y-42900122D01*
X53415782Y-42908245D01*
X53415781Y-42908247D01*
X53389794Y-42963598D01*
X53364754Y-43016932D01*
X53363374Y-43025794D01*
X53363373Y-43025798D01*
X53351166Y-43104202D01*
X53320922Y-43168434D01*
X53315761Y-43173912D01*
X49812500Y-46677174D01*
X49750188Y-46711200D01*
X49723405Y-46714079D01*
X46020437Y-46714079D01*
X45952316Y-46694077D01*
X45905823Y-46640421D01*
X45895719Y-46570147D01*
X45925213Y-46505567D01*
X45931342Y-46498984D01*
X47122788Y-45307538D01*
X47185100Y-45273512D01*
X47196309Y-45271599D01*
X47197277Y-45271478D01*
X47206255Y-45271643D01*
X47283443Y-45250599D01*
X47322092Y-45240062D01*
X47322093Y-45240062D01*
X47330755Y-45237700D01*
X47338405Y-45233003D01*
X47338407Y-45233002D01*
X47433072Y-45174878D01*
X47433075Y-45174875D01*
X47440724Y-45170179D01*
X47451741Y-45158008D01*
X47521300Y-45081161D01*
X47521303Y-45081157D01*
X47527322Y-45074507D01*
X47583588Y-44958375D01*
X47604997Y-44831120D01*
X47605133Y-44820000D01*
X47586839Y-44692259D01*
X47580724Y-44678809D01*
X47537145Y-44582962D01*
X47537143Y-44582959D01*
X47533428Y-44574788D01*
X47471615Y-44503050D01*
X47455051Y-44483826D01*
X47455049Y-44483824D01*
X47449193Y-44477028D01*
X47340906Y-44406841D01*
X47332311Y-44404271D01*
X47332310Y-44404270D01*
X47225874Y-44372438D01*
X47225872Y-44372438D01*
X47217273Y-44369866D01*
X47208298Y-44369811D01*
X47208297Y-44369811D01*
X47153641Y-44369477D01*
X47088231Y-44369078D01*
X47076475Y-44372438D01*
X46972786Y-44402072D01*
X46972784Y-44402073D01*
X46964155Y-44404539D01*
X46855019Y-44473399D01*
X46769596Y-44570122D01*
X46765782Y-44578245D01*
X46765781Y-44578247D01*
X46762192Y-44585892D01*
X46714754Y-44686932D01*
X46702692Y-44764401D01*
X46701166Y-44774203D01*
X46670922Y-44838435D01*
X46665761Y-44843913D01*
X44647579Y-46862095D01*
X44585267Y-46896121D01*
X44558484Y-46899000D01*
X44342293Y-46899000D01*
X44274172Y-46878998D01*
X44227679Y-46825342D01*
X44217575Y-46755068D01*
X44247069Y-46690488D01*
X44253198Y-46683905D01*
X47664355Y-43272749D01*
X47726667Y-43238723D01*
X47797483Y-43243788D01*
X47823267Y-43256955D01*
X47844060Y-43270796D01*
X47900327Y-43288375D01*
X47950026Y-43303902D01*
X47967233Y-43309278D01*
X47976203Y-43309442D01*
X47976207Y-43309443D01*
X48034942Y-43310519D01*
X48096255Y-43311643D01*
X48181600Y-43288375D01*
X48212092Y-43280062D01*
X48212093Y-43280062D01*
X48220755Y-43277700D01*
X48228405Y-43273003D01*
X48228407Y-43273002D01*
X48323072Y-43214878D01*
X48323075Y-43214875D01*
X48330724Y-43210179D01*
X48340155Y-43199760D01*
X48411300Y-43121161D01*
X48411303Y-43121157D01*
X48417322Y-43114507D01*
X48473588Y-42998375D01*
X48475201Y-42988791D01*
X48494190Y-42875917D01*
X48494997Y-42871120D01*
X48495133Y-42860000D01*
X48484804Y-42787875D01*
X48478112Y-42741145D01*
X48478111Y-42741142D01*
X48476839Y-42732259D01*
X48473125Y-42724090D01*
X48427145Y-42622962D01*
X48427143Y-42622959D01*
X48423428Y-42614788D01*
X48395225Y-42582057D01*
X48345051Y-42523826D01*
X48345049Y-42523824D01*
X48339193Y-42517028D01*
X48230906Y-42446841D01*
X48222311Y-42444271D01*
X48222310Y-42444270D01*
X48115874Y-42412438D01*
X48115872Y-42412438D01*
X48107273Y-42409866D01*
X48098298Y-42409811D01*
X48098297Y-42409811D01*
X48043641Y-42409477D01*
X47978231Y-42409078D01*
X47921895Y-42425179D01*
X47862786Y-42442072D01*
X47862784Y-42442073D01*
X47854155Y-42444539D01*
X47745019Y-42513399D01*
X47743353Y-42510759D01*
X47692652Y-42533372D01*
X47675829Y-42534500D01*
X47636475Y-42534500D01*
X47625493Y-42534020D01*
X47598957Y-42531698D01*
X47598955Y-42531698D01*
X47587970Y-42530737D01*
X47577320Y-42533591D01*
X47577318Y-42533591D01*
X47551581Y-42540488D01*
X47540846Y-42542868D01*
X47533285Y-42544201D01*
X47503732Y-42549412D01*
X47494184Y-42554924D01*
X47490907Y-42556117D01*
X47487739Y-42557594D01*
X47477093Y-42560447D01*
X47468064Y-42566769D01*
X47446230Y-42582057D01*
X47436962Y-42587961D01*
X47404322Y-42606806D01*
X47397234Y-42615253D01*
X47380103Y-42635669D01*
X47372677Y-42643773D01*
X45596318Y-44420133D01*
X43835375Y-46181076D01*
X43773063Y-46215102D01*
X43710181Y-46212698D01*
X43667273Y-46199866D01*
X43658297Y-46199811D01*
X43658296Y-46199811D01*
X43604558Y-46199483D01*
X43538231Y-46199078D01*
X43482164Y-46215102D01*
X43422786Y-46232072D01*
X43422784Y-46232073D01*
X43414155Y-46234539D01*
X43305019Y-46303399D01*
X43219596Y-46400122D01*
X43164754Y-46516932D01*
X43157659Y-46562498D01*
X43146282Y-46635567D01*
X43146282Y-46635571D01*
X43144901Y-46644440D01*
X43146065Y-46653342D01*
X43146065Y-46653345D01*
X43159576Y-46756663D01*
X43148576Y-46826802D01*
X43101402Y-46879859D01*
X43034640Y-46899000D01*
X41371298Y-46899000D01*
X41303177Y-46878998D01*
X41282203Y-46862095D01*
X40938837Y-46518729D01*
X40904811Y-46456417D01*
X40903205Y-46447496D01*
X40893003Y-46376254D01*
X40893002Y-46376251D01*
X40891730Y-46367368D01*
X40862645Y-46303399D01*
X40842036Y-46258071D01*
X40842034Y-46258068D01*
X40838319Y-46249897D01*
X40808338Y-46215102D01*
X40759942Y-46158935D01*
X40759940Y-46158933D01*
X40754084Y-46152137D01*
X40645797Y-46081950D01*
X40637202Y-46079380D01*
X40637201Y-46079379D01*
X40530765Y-46047547D01*
X40530763Y-46047547D01*
X40522164Y-46044975D01*
X40513189Y-46044920D01*
X40513188Y-46044920D01*
X40458532Y-46044586D01*
X40393122Y-46044187D01*
X40381366Y-46047547D01*
X40277677Y-46077181D01*
X40277675Y-46077182D01*
X40269046Y-46079648D01*
X40159910Y-46148508D01*
X40153967Y-46155237D01*
X40153966Y-46155238D01*
X40103219Y-46212698D01*
X40074487Y-46245231D01*
X40070672Y-46253356D01*
X40070671Y-46253358D01*
X40048853Y-46299830D01*
X40001798Y-46352992D01*
X39933470Y-46372275D01*
X39865564Y-46351556D01*
X39845703Y-46335377D01*
X37288451Y-43778125D01*
X37254425Y-43715813D01*
X37253293Y-43668121D01*
X37254190Y-43662790D01*
X37254997Y-43657994D01*
X37255133Y-43646874D01*
X37244133Y-43570062D01*
X37238112Y-43528019D01*
X37238111Y-43528016D01*
X37236839Y-43519133D01*
X37228221Y-43500179D01*
X37187145Y-43409836D01*
X37187143Y-43409833D01*
X37183428Y-43401662D01*
X37157625Y-43371716D01*
X37105051Y-43310700D01*
X37105049Y-43310698D01*
X37099193Y-43303902D01*
X36990906Y-43233715D01*
X36982311Y-43231145D01*
X36982310Y-43231144D01*
X36875874Y-43199312D01*
X36875872Y-43199312D01*
X36867273Y-43196740D01*
X36858298Y-43196685D01*
X36858297Y-43196685D01*
X36803641Y-43196351D01*
X36738231Y-43195952D01*
X36702976Y-43206028D01*
X36622786Y-43228946D01*
X36622784Y-43228947D01*
X36614155Y-43231413D01*
X36505019Y-43300273D01*
X36499076Y-43307002D01*
X36499075Y-43307003D01*
X36490197Y-43317056D01*
X36419596Y-43396996D01*
X36415782Y-43405119D01*
X36415781Y-43405121D01*
X36403549Y-43431175D01*
X36364754Y-43513806D01*
X36363374Y-43522672D01*
X36346282Y-43632441D01*
X36346282Y-43632445D01*
X36344901Y-43641314D01*
X36346065Y-43650216D01*
X36346065Y-43650219D01*
X36360468Y-43760363D01*
X36360469Y-43760367D01*
X36361633Y-43769268D01*
X36413605Y-43887384D01*
X36419382Y-43894257D01*
X36419383Y-43894258D01*
X36490859Y-43979289D01*
X36496639Y-43986165D01*
X36504116Y-43991142D01*
X36589287Y-44047836D01*
X36604060Y-44057670D01*
X36612630Y-44060347D01*
X36612629Y-44060347D01*
X36637416Y-44068091D01*
X36688937Y-44099263D01*
X38615052Y-46025379D01*
X40481395Y-47891722D01*
X40488815Y-47899818D01*
X40513045Y-47928694D01*
X40522588Y-47934204D01*
X40522592Y-47934207D01*
X40545679Y-47947536D01*
X40554948Y-47953440D01*
X40585816Y-47975054D01*
X40596464Y-47977907D01*
X40599635Y-47979386D01*
X40602912Y-47980579D01*
X40612455Y-47986088D01*
X40623305Y-47988001D01*
X40627346Y-47989472D01*
X40684518Y-48031566D01*
X40709856Y-48097887D01*
X40695315Y-48167379D01*
X40645513Y-48217978D01*
X40584252Y-48233873D01*
X33913411Y-48233873D01*
X33844880Y-48213606D01*
X33748436Y-48151095D01*
X33748431Y-48151093D01*
X33740904Y-48146214D01*
X33732309Y-48143644D01*
X33732308Y-48143643D01*
X33625872Y-48111811D01*
X33625870Y-48111811D01*
X33617271Y-48109239D01*
X33608296Y-48109184D01*
X33608295Y-48109184D01*
X33553639Y-48108850D01*
X33488229Y-48108451D01*
X33476473Y-48111811D01*
X33372784Y-48141445D01*
X33372782Y-48141446D01*
X33364153Y-48143912D01*
X33356563Y-48148701D01*
X33263945Y-48207139D01*
X33255017Y-48212772D01*
X33249074Y-48219501D01*
X33249073Y-48219502D01*
X33197970Y-48277365D01*
X33169594Y-48309495D01*
X33165780Y-48317618D01*
X33165779Y-48317620D01*
X33155076Y-48340417D01*
X33114752Y-48426305D01*
X33113372Y-48435171D01*
X33096280Y-48544940D01*
X33096280Y-48544944D01*
X33094899Y-48553813D01*
X33096063Y-48562715D01*
X33096063Y-48562718D01*
X33110466Y-48672862D01*
X33110467Y-48672866D01*
X33111631Y-48681767D01*
X33115248Y-48689987D01*
X33152781Y-48775287D01*
X33163603Y-48799883D01*
X33169380Y-48806756D01*
X33169381Y-48806757D01*
X33235044Y-48884873D01*
X33246637Y-48898664D01*
X33354058Y-48970169D01*
X33477231Y-49008651D01*
X33486201Y-49008815D01*
X33486205Y-49008816D01*
X33544940Y-49009892D01*
X33606253Y-49011016D01*
X33668503Y-48994044D01*
X33722090Y-48979435D01*
X33722091Y-48979435D01*
X33730753Y-48977073D01*
X33738403Y-48972376D01*
X33738405Y-48972375D01*
X33785737Y-48943313D01*
X33840722Y-48909552D01*
X33841325Y-48910534D01*
X33898645Y-48885805D01*
X33913942Y-48884873D01*
X41484133Y-48884873D01*
X41495115Y-48885353D01*
X41521663Y-48887676D01*
X41521665Y-48887676D01*
X41532650Y-48888637D01*
X41569058Y-48878881D01*
X41579785Y-48876503D01*
X41583144Y-48875911D01*
X41616888Y-48869961D01*
X41626433Y-48864450D01*
X41629709Y-48863258D01*
X41632877Y-48861781D01*
X41643527Y-48858927D01*
X41674387Y-48837318D01*
X41683658Y-48831412D01*
X41706749Y-48818080D01*
X41716298Y-48812567D01*
X41723370Y-48804139D01*
X41787900Y-48776013D01*
X41794971Y-48776143D01*
X41857221Y-48759171D01*
X41910808Y-48744562D01*
X41910809Y-48744562D01*
X41919471Y-48742200D01*
X41927121Y-48737503D01*
X41927123Y-48737502D01*
X42021788Y-48679378D01*
X42021791Y-48679375D01*
X42029440Y-48674679D01*
X42062188Y-48638500D01*
X42110016Y-48585661D01*
X42110019Y-48585657D01*
X42116038Y-48579007D01*
X42172304Y-48462875D01*
X42177645Y-48431132D01*
X42192906Y-48340417D01*
X42193713Y-48335620D01*
X42193849Y-48324500D01*
X42186464Y-48272933D01*
X42176828Y-48205645D01*
X42176827Y-48205642D01*
X42175555Y-48196759D01*
X42171841Y-48188591D01*
X42171840Y-48188587D01*
X42167550Y-48179152D01*
X42157562Y-48108861D01*
X42187163Y-48044330D01*
X42246952Y-48006045D01*
X42282250Y-48001000D01*
X44997472Y-48001000D01*
X45008454Y-48001480D01*
X45035002Y-48003803D01*
X45035004Y-48003803D01*
X45045989Y-48004764D01*
X45082397Y-47995008D01*
X45093124Y-47992630D01*
X45096483Y-47992038D01*
X45130227Y-47986088D01*
X45139772Y-47980577D01*
X45143048Y-47979385D01*
X45146216Y-47977908D01*
X45156866Y-47975054D01*
X45187732Y-47953441D01*
X45196997Y-47947539D01*
X45220088Y-47934207D01*
X45229637Y-47928694D01*
X45253867Y-47899817D01*
X45261293Y-47891715D01*
X45314260Y-47838748D01*
X45376572Y-47804722D01*
X45447387Y-47809787D01*
X45503416Y-47851730D01*
X45504674Y-47854589D01*
X45510449Y-47861459D01*
X45510450Y-47861461D01*
X45581928Y-47946494D01*
X45587708Y-47953370D01*
X45627014Y-47979534D01*
X45664917Y-48004764D01*
X45695129Y-48024875D01*
X45781791Y-48051950D01*
X45800125Y-48057678D01*
X45818302Y-48063357D01*
X45827272Y-48063521D01*
X45827276Y-48063522D01*
X45886011Y-48064598D01*
X45947324Y-48065722D01*
X46025788Y-48044330D01*
X46063161Y-48034141D01*
X46063162Y-48034141D01*
X46071824Y-48031779D01*
X46079474Y-48027082D01*
X46079476Y-48027081D01*
X46181793Y-47964258D01*
X46183782Y-47967498D01*
X46232508Y-47946441D01*
X46247881Y-47945500D01*
X55895290Y-47945500D01*
X55906272Y-47945980D01*
X55932820Y-47948303D01*
X55932822Y-47948303D01*
X55943807Y-47949264D01*
X55980215Y-47939508D01*
X55990942Y-47937130D01*
X55994301Y-47936538D01*
X56028045Y-47930588D01*
X56037590Y-47925077D01*
X56040866Y-47923885D01*
X56044034Y-47922408D01*
X56054684Y-47919554D01*
X56085544Y-47897945D01*
X56094815Y-47892039D01*
X56117906Y-47878707D01*
X56127455Y-47873194D01*
X56151685Y-47844317D01*
X56159111Y-47836215D01*
X58053740Y-45941587D01*
X58116052Y-45907561D01*
X58192873Y-45915044D01*
X58232468Y-45932178D01*
X58238715Y-45933483D01*
X58238718Y-45933484D01*
X58419136Y-45971175D01*
X58419141Y-45971176D01*
X58423872Y-45972164D01*
X58430283Y-45972500D01*
X59873000Y-45972500D01*
X59941121Y-45992502D01*
X59987614Y-46046158D01*
X59999000Y-46098500D01*
X59999000Y-46461500D01*
X59978998Y-46529621D01*
X59925342Y-46576114D01*
X59873000Y-46587500D01*
X58476130Y-46587500D01*
X58429981Y-46592188D01*
X58336812Y-46601651D01*
X58336810Y-46601651D01*
X58330464Y-46602296D01*
X58143875Y-46660770D01*
X57972855Y-46755568D01*
X57824390Y-46882818D01*
X57704544Y-47037322D01*
X57701727Y-47043047D01*
X57701725Y-47043050D01*
X57621033Y-47207037D01*
X57621031Y-47207041D01*
X57618213Y-47212769D01*
X57568925Y-47401992D01*
X57558691Y-47597260D01*
X57587931Y-47790599D01*
X57590134Y-47796586D01*
X57590134Y-47796587D01*
X57649650Y-47958347D01*
X57655449Y-47974108D01*
X57658812Y-47979532D01*
X57658813Y-47979534D01*
X57692671Y-48034141D01*
X57758488Y-48140293D01*
X57786523Y-48169939D01*
X57818794Y-48233173D01*
X57811755Y-48303819D01*
X57784069Y-48345605D01*
X57052079Y-49077595D01*
X56989767Y-49111621D01*
X56962984Y-49114500D01*
X43234708Y-49114500D01*
X43223726Y-49114020D01*
X43197178Y-49111697D01*
X43197176Y-49111697D01*
X43186191Y-49110736D01*
X43149783Y-49120492D01*
X43139056Y-49122870D01*
X43135697Y-49123462D01*
X43101953Y-49129412D01*
X43092408Y-49134923D01*
X43089132Y-49136115D01*
X43085964Y-49137592D01*
X43075314Y-49140446D01*
X43066283Y-49146770D01*
X43044454Y-49162055D01*
X43035183Y-49167961D01*
X43012092Y-49181293D01*
X43002543Y-49186806D01*
X42995457Y-49195251D01*
X42978313Y-49215682D01*
X42970887Y-49223785D01*
X42447404Y-49747268D01*
X42385092Y-49781294D01*
X42375410Y-49783007D01*
X42367207Y-49784131D01*
X42358231Y-49784076D01*
X42335943Y-49790446D01*
X42242786Y-49817070D01*
X42242784Y-49817071D01*
X42234155Y-49819537D01*
X42125019Y-49888397D01*
X42039596Y-49985120D01*
X41984754Y-50101930D01*
X41983374Y-50110796D01*
X41966282Y-50220565D01*
X41966282Y-50220569D01*
X41964901Y-50229438D01*
X41966065Y-50238340D01*
X41966065Y-50238343D01*
X41980468Y-50348487D01*
X41980469Y-50348491D01*
X41981633Y-50357392D01*
X42033605Y-50475508D01*
X42039382Y-50482381D01*
X42039383Y-50482382D01*
X42110859Y-50567413D01*
X42116639Y-50574289D01*
X42224060Y-50645794D01*
X42347233Y-50684276D01*
X42464267Y-50686421D01*
X42532009Y-50707668D01*
X42577511Y-50762167D01*
X42582614Y-50780610D01*
X42583555Y-50780347D01*
X42585967Y-50788987D01*
X42587132Y-50797893D01*
X42639104Y-50916009D01*
X42722138Y-51014790D01*
X42829559Y-51086295D01*
X42952732Y-51124777D01*
X42961702Y-51124941D01*
X42961706Y-51124942D01*
X43020441Y-51126018D01*
X43081754Y-51127142D01*
X43161579Y-51105379D01*
X43197591Y-51095561D01*
X43197592Y-51095561D01*
X43206254Y-51093199D01*
X43213904Y-51088502D01*
X43213906Y-51088501D01*
X43308571Y-51030377D01*
X43308574Y-51030374D01*
X43316223Y-51025678D01*
X43322249Y-51019021D01*
X43396799Y-50936660D01*
X43396802Y-50936656D01*
X43402821Y-50930006D01*
X43459087Y-50813874D01*
X43464728Y-50780347D01*
X43474986Y-50719370D01*
X43510145Y-50651179D01*
X43708919Y-50452405D01*
X43771231Y-50418379D01*
X43798014Y-50415500D01*
X57531269Y-50415500D01*
X57599390Y-50435502D01*
X57645883Y-50489158D01*
X57649518Y-50497989D01*
X57655449Y-50514108D01*
X57658815Y-50519536D01*
X57658817Y-50519541D01*
X57725997Y-50627890D01*
X57758488Y-50680293D01*
X57762874Y-50684931D01*
X57835913Y-50762167D01*
X57892839Y-50822365D01*
X58053013Y-50934521D01*
X58232468Y-51012178D01*
X58238721Y-51013484D01*
X58238720Y-51013484D01*
X58419136Y-51051175D01*
X58419141Y-51051176D01*
X58423872Y-51052164D01*
X58430283Y-51052500D01*
X59873000Y-51052500D01*
X59941121Y-51072502D01*
X59987614Y-51126158D01*
X59999000Y-51178500D01*
X59999000Y-59873000D01*
X59978998Y-59941121D01*
X59925342Y-59987614D01*
X59873000Y-59999000D01*
X30127000Y-59999000D01*
X30058879Y-59978998D01*
X30012386Y-59925342D01*
X30001000Y-59873000D01*
X30001000Y-51173500D01*
X30021002Y-51105379D01*
X30074658Y-51058886D01*
X30127000Y-51047500D01*
X31523870Y-51047500D01*
X31570019Y-51042812D01*
X31663188Y-51033349D01*
X31663190Y-51033349D01*
X31669536Y-51032704D01*
X31856125Y-50974230D01*
X32027145Y-50879432D01*
X32175610Y-50752182D01*
X32295456Y-50597678D01*
X32306965Y-50574289D01*
X32378967Y-50427963D01*
X32378969Y-50427959D01*
X32381787Y-50422231D01*
X32431075Y-50233008D01*
X32441309Y-50037740D01*
X32412069Y-49844401D01*
X32392218Y-49790446D01*
X32346755Y-49666882D01*
X32346755Y-49666881D01*
X32344551Y-49660892D01*
X32241512Y-49494707D01*
X32107161Y-49352635D01*
X31946987Y-49240479D01*
X31767532Y-49162822D01*
X31669279Y-49142296D01*
X31580864Y-49123825D01*
X31580859Y-49123824D01*
X31576128Y-49122836D01*
X31569717Y-49122500D01*
X30127000Y-49122500D01*
X30058879Y-49102498D01*
X30012386Y-49048842D01*
X30001000Y-48996500D01*
X30001000Y-48633500D01*
X30021002Y-48565379D01*
X30074658Y-48518886D01*
X30127000Y-48507500D01*
X31523870Y-48507500D01*
X31570019Y-48502812D01*
X31663188Y-48493349D01*
X31663190Y-48493349D01*
X31669536Y-48492704D01*
X31856125Y-48434230D01*
X32027145Y-48339432D01*
X32175610Y-48212182D01*
X32187574Y-48196759D01*
X32253466Y-48111811D01*
X32295456Y-48057678D01*
X32298275Y-48051950D01*
X32378967Y-47887963D01*
X32378969Y-47887959D01*
X32381787Y-47882231D01*
X32431075Y-47693008D01*
X32441309Y-47497740D01*
X32412069Y-47304401D01*
X32376516Y-47207769D01*
X32346755Y-47126882D01*
X32346755Y-47126881D01*
X32344551Y-47120892D01*
X32241512Y-46954707D01*
X32170732Y-46879859D01*
X32111550Y-46817276D01*
X32111549Y-46817275D01*
X32107161Y-46812635D01*
X31946987Y-46700479D01*
X31767532Y-46622822D01*
X31669279Y-46602296D01*
X31580864Y-46583825D01*
X31580859Y-46583824D01*
X31576128Y-46582836D01*
X31569717Y-46582500D01*
X30127000Y-46582500D01*
X30058879Y-46562498D01*
X30012386Y-46508842D01*
X30001000Y-46456500D01*
X30001000Y-46093500D01*
X30021002Y-46025379D01*
X30074658Y-45978886D01*
X30127000Y-45967500D01*
X31523870Y-45967500D01*
X31570019Y-45962812D01*
X31663188Y-45953349D01*
X31663190Y-45953349D01*
X31669536Y-45952704D01*
X31856125Y-45894230D01*
X32027145Y-45799432D01*
X32175610Y-45672182D01*
X32295456Y-45517678D01*
X32313895Y-45480206D01*
X32378967Y-45347963D01*
X32378969Y-45347959D01*
X32381787Y-45342231D01*
X32431075Y-45153008D01*
X32441309Y-44957740D01*
X32412069Y-44764401D01*
X32388796Y-44701145D01*
X32346755Y-44586882D01*
X32346755Y-44586881D01*
X32344551Y-44580892D01*
X32340767Y-44574788D01*
X32280153Y-44477028D01*
X32241512Y-44414707D01*
X32173530Y-44342818D01*
X32111550Y-44277276D01*
X32111549Y-44277275D01*
X32107161Y-44272635D01*
X31946987Y-44160479D01*
X31767532Y-44082822D01*
X31669279Y-44062296D01*
X31580864Y-44043825D01*
X31580859Y-44043824D01*
X31576128Y-44042836D01*
X31569717Y-44042500D01*
X30127000Y-44042500D01*
X30058879Y-44022498D01*
X30012386Y-43968842D01*
X30001000Y-43916500D01*
X30001000Y-30127000D01*
X30021002Y-30058879D01*
X30074658Y-30012386D01*
X30127000Y-30001000D01*
X59873000Y-30001000D01*
X59941121Y-30021002D01*
G37*
%TD.AperFunction*%
%TD*%
M02*
