%TF.GenerationSoftware,KiCad,Pcbnew,6.0.10-86aedd382b~118~ubuntu20.04.1*%
%TF.CreationDate,2022-12-20T17:41:16+01:00*%
%TF.ProjectId,DC_UPS,44435f55-5053-42e6-9b69-6361645f7063,rev?*%
%TF.SameCoordinates,Original*%
%TF.FileFunction,Paste,Top*%
%TF.FilePolarity,Positive*%
%FSLAX46Y46*%
G04 Gerber Fmt 4.6, Leading zero omitted, Abs format (unit mm)*
G04 Created by KiCad (PCBNEW 6.0.10-86aedd382b~118~ubuntu20.04.1) date 2022-12-20 17:41:16*
%MOMM*%
%LPD*%
G01*
G04 APERTURE LIST*
G04 Aperture macros list*
%AMRoundRect*
0 Rectangle with rounded corners*
0 $1 Rounding radius*
0 $2 $3 $4 $5 $6 $7 $8 $9 X,Y pos of 4 corners*
0 Add a 4 corners polygon primitive as box body*
4,1,4,$2,$3,$4,$5,$6,$7,$8,$9,$2,$3,0*
0 Add four circle primitives for the rounded corners*
1,1,$1+$1,$2,$3*
1,1,$1+$1,$4,$5*
1,1,$1+$1,$6,$7*
1,1,$1+$1,$8,$9*
0 Add four rect primitives between the rounded corners*
20,1,$1+$1,$2,$3,$4,$5,0*
20,1,$1+$1,$4,$5,$6,$7,0*
20,1,$1+$1,$6,$7,$8,$9,0*
20,1,$1+$1,$8,$9,$2,$3,0*%
%AMFreePoly0*
4,1,21,1.372500,0.787500,0.862500,0.787500,0.862500,0.532500,1.372500,0.532500,1.372500,0.127500,0.862500,0.127500,0.862500,-0.127500,1.372500,-0.127500,1.372500,-0.532500,0.862500,-0.532500,0.862500,-0.787500,1.372500,-0.787500,1.372500,-1.195000,0.612500,-1.195000,0.612500,-1.117500,-0.862500,-1.117500,-0.862500,1.117500,0.612500,1.117500,0.612500,1.195000,1.372500,1.195000,
1.372500,0.787500,1.372500,0.787500,$1*%
G04 Aperture macros list end*
%ADD10RoundRect,0.250000X0.400000X0.625000X-0.400000X0.625000X-0.400000X-0.625000X0.400000X-0.625000X0*%
%ADD11RoundRect,0.250000X-0.400000X-0.625000X0.400000X-0.625000X0.400000X0.625000X-0.400000X0.625000X0*%
%ADD12RoundRect,0.250000X-0.325000X-0.275000X0.325000X-0.275000X0.325000X0.275000X-0.325000X0.275000X0*%
%ADD13RoundRect,0.062500X-0.362500X-0.062500X0.362500X-0.062500X0.362500X0.062500X-0.362500X0.062500X0*%
%ADD14RoundRect,0.062500X-0.062500X-0.362500X0.062500X-0.362500X0.062500X0.362500X-0.062500X0.362500X0*%
%ADD15R,2.200000X2.700000*%
%ADD16R,0.405000X0.990000*%
%ADD17FreePoly0,90.000000*%
%ADD18RoundRect,0.250000X0.650000X-0.412500X0.650000X0.412500X-0.650000X0.412500X-0.650000X-0.412500X0*%
%ADD19RoundRect,0.250000X-0.625000X0.400000X-0.625000X-0.400000X0.625000X-0.400000X0.625000X0.400000X0*%
%ADD20RoundRect,0.150000X-0.625000X0.150000X-0.625000X-0.150000X0.625000X-0.150000X0.625000X0.150000X0*%
%ADD21RoundRect,0.250000X-0.650000X0.350000X-0.650000X-0.350000X0.650000X-0.350000X0.650000X0.350000X0*%
%ADD22RoundRect,0.155000X0.212500X0.155000X-0.212500X0.155000X-0.212500X-0.155000X0.212500X-0.155000X0*%
%ADD23RoundRect,0.250001X-0.624999X0.462499X-0.624999X-0.462499X0.624999X-0.462499X0.624999X0.462499X0*%
%ADD24RoundRect,0.155000X0.155000X-0.212500X0.155000X0.212500X-0.155000X0.212500X-0.155000X-0.212500X0*%
%ADD25RoundRect,0.155000X-0.155000X0.212500X-0.155000X-0.212500X0.155000X-0.212500X0.155000X0.212500X0*%
G04 APERTURE END LIST*
D10*
%TO.C,R_{pf}1*%
X52450000Y-37750000D03*
X49350000Y-37750000D03*
%TD*%
D11*
%TO.C,R5*%
X45200000Y-53750000D03*
X48300000Y-53750000D03*
%TD*%
%TO.C,R4*%
X45200000Y-51250000D03*
X48300000Y-51250000D03*
%TD*%
D12*
%TO.C,U1*%
X44410000Y-41830000D03*
X43090000Y-43050000D03*
X44410000Y-43050000D03*
X43090000Y-44270000D03*
X44410000Y-44270000D03*
X43090000Y-41830000D03*
D13*
X41800000Y-41550000D03*
X41800000Y-42050000D03*
X41800000Y-42550000D03*
X41800000Y-43050000D03*
X41800000Y-43550000D03*
X41800000Y-44050000D03*
X41800000Y-44550000D03*
D14*
X42750000Y-45500000D03*
X43250000Y-45500000D03*
X43750000Y-45500000D03*
X44250000Y-45500000D03*
X44750000Y-45500000D03*
D13*
X45700000Y-44550000D03*
X45700000Y-44050000D03*
X45700000Y-43550000D03*
X45700000Y-43050000D03*
X45700000Y-42550000D03*
X45700000Y-42050000D03*
X45700000Y-41550000D03*
D14*
X44750000Y-40600000D03*
X44250000Y-40600000D03*
X43750000Y-40600000D03*
X43250000Y-40600000D03*
X42750000Y-40600000D03*
%TD*%
D15*
%TO.C,L1*%
X44750000Y-38100000D03*
X44750000Y-33000000D03*
%TD*%
D16*
%TO.C,Q1*%
X37944891Y-47389374D03*
X38604891Y-47389374D03*
X39264891Y-47389374D03*
X39924891Y-47389374D03*
D17*
X38934891Y-45396874D03*
%TD*%
D18*
%TO.C,C5*%
X39000000Y-40950000D03*
X39000000Y-37825000D03*
%TD*%
D11*
%TO.C,R_Prog1*%
X49400000Y-33400000D03*
X52500000Y-33400000D03*
%TD*%
D10*
%TO.C,R_{fb}1*%
X52454498Y-42059157D03*
X49354498Y-42059157D03*
%TD*%
D19*
%TO.C,R3*%
X36640000Y-53520000D03*
X36640000Y-56620000D03*
%TD*%
D10*
%TO.C,R_{sense}1*%
X36650000Y-50450000D03*
X33550000Y-50450000D03*
%TD*%
D19*
%TO.C,R2*%
X34470000Y-53520000D03*
X34470000Y-56620000D03*
%TD*%
D20*
%TO.C,J4*%
X56505000Y-32270000D03*
X56505000Y-33270000D03*
X56505000Y-34270000D03*
D21*
X59030000Y-35570000D03*
X59030000Y-30970000D03*
%TD*%
D11*
%TO.C,R_{fb}2*%
X49350000Y-39900000D03*
X52450000Y-39900000D03*
%TD*%
D22*
%TO.C,C2*%
X40135000Y-35300000D03*
X39000000Y-35300000D03*
%TD*%
D23*
%TO.C,D2*%
X39010000Y-53645000D03*
X39010000Y-56620000D03*
%TD*%
D16*
%TO.C,Q2*%
X34060000Y-47389374D03*
X34720000Y-47389374D03*
X35380000Y-47389374D03*
X36040000Y-47389374D03*
D17*
X35050000Y-45396874D03*
%TD*%
D24*
%TO.C,C4*%
X40600000Y-40617500D03*
X40600000Y-39482500D03*
%TD*%
D11*
%TO.C,R6*%
X45200000Y-56250000D03*
X48300000Y-56250000D03*
%TD*%
D23*
%TO.C,D1*%
X41430000Y-53645000D03*
X41430000Y-56620000D03*
%TD*%
D11*
%TO.C,R_{pf}2*%
X49350000Y-35600000D03*
X52450000Y-35600000D03*
%TD*%
D22*
%TO.C,C3*%
X40135000Y-36350000D03*
X39000000Y-36350000D03*
%TD*%
D10*
%TO.C,R1*%
X52450000Y-46350000D03*
X49350000Y-46350000D03*
%TD*%
D18*
%TO.C,C6*%
X36800000Y-40950000D03*
X36800000Y-37825000D03*
%TD*%
D10*
%TO.C,R_{BIAS}1*%
X52450000Y-44200000D03*
X49350000Y-44200000D03*
%TD*%
D25*
%TO.C,C1*%
X41050000Y-47715000D03*
X41050000Y-48850000D03*
%TD*%
M02*
